<?xml version="1.0" encoding="utf-8"?>
<svg width="200px" height="200px" viewBox="0 0 200 200" version="1.1" xmlns="http://www.w3.org/2000/svg">
  <g id="Megaphone" transform="matrix(0.95, 0, 0, 0.95, 5, 4.999999)">
    <path d="M77.9642 68.4328L77.5619 68.3576C76.7459 68.1982 76.1558 67.4683 76.1558 66.618L76.1558 13.302C76.1558 7.70705 72.5261 2.67863 67.1182 0.766416C61.9613 -1.05284 56.588 0.430007 53.4125 4.54217C46.657 12.7957 39.2312 20.4497 31.2144 27.4222C20.9912 36.2751 11.2094 42.5828 2.22805 46.1503C0.887229 46.6735 0.000924197 47.989 0 49.4568L1.32028e-05 118.208C0.00215206 121.037 1.65038 123.594 4.19187 124.71C12.5592 128.38 21.6012 134.373 31.0152 142.54C39.0925 149.576 46.5722 157.299 53.3736 165.629C55.5826 168.464 58.9592 170.08 62.502 169.997C64.0383 169.99 65.5633 169.73 67.0187 169.227C72.5693 167.341 76.1558 162.494 76.1558 156.895L76.1558 103.393C76.1567 102.53 76.765 101.793 77.5965 101.649L77.9642 101.587C82.1261 100.431 90 95.4871 90 85.0098C90 74.5324 82.1261 69.5881 77.9642 68.4328L77.9642 68.4328L77.9642 68.4328Z" transform="matrix(1, 0, 0, 1, 110, 0)" fill="none" stroke="#323232" style="stroke-width: 10px;"/>
    <path d="M 50 81.571 L 50 9.999 C 50.034 0.096 50.053 0.1 40.001 0 L 9.999 0 C 4.477 0 0 4.477 0 9.999 C 0 42.38 0 142.285 0 142.285 C 0 148.203 4.797 152.999 10.714 152.999 L 34.13 152.999 C 38.64 153.037 42.914 150.985 45.705 147.441 C 48.572 143.767 49.442 138.915 48.031 134.473 C 47.308 132.16 46.411 129.562 45.455 126.799 C 41.924 116.576 37.268 110.25 36.027 95.852 C 43.793 95.682 50 89.339 50 81.571 Z" transform="matrix(1, 0, 0, 1, 45, 47)" fill="none" stroke="#323232" style="stroke-width: 10px;"/>
    <path d="M 7.5 17 L 7.5 17.289 C 7.489 19.093 6.791 20.834 5.531 22.202 C 5.531 22.202 0 30.011 0 38 C 0 45.241 2.484 50.351 5.475 53.711 C 6.787 55.201 7.503 57.071 7.5 59 C 7.5 66.732 14.216 73 22.5 73 L 30 73 L 30 0 L 22.5 0 C 14.216 0 7.5 9.268 7.5 17 Z" transform="matrix(1, 0, 0, 1, 0, 47)" fill="none" stroke="#323232" style="stroke-width: 10px;"/>
  </g>
</svg>