<?xml version="1.0" encoding="utf-8"?>
<svg width="200px" height="200px" viewBox="0 0 200 200" version="1.1" xmlns="http://www.w3.org/2000/svg">
  <path d="M 52.5 195 L 28.749 195 C 28.36 195 27.972 194.991 27.584 194.972 C 27.196 194.953 26.808 194.924 26.421 194.886 C 26.034 194.847 25.649 194.8 25.264 194.743 C 24.88 194.686 24.497 194.619 24.116 194.544 C 23.735 194.468 23.355 194.383 22.978 194.288 C 22.601 194.194 22.227 194.091 21.855 193.978 C 21.483 193.865 21.114 193.742 20.748 193.612 C 20.382 193.481 20.02 193.341 19.661 193.192 C 19.302 193.043 18.946 192.886 18.595 192.72 C 18.244 192.554 17.897 192.379 17.554 192.196 C 17.211 192.012 16.873 191.821 16.54 191.621 C 16.206 191.421 15.878 191.213 15.555 190.998 C 15.232 190.782 14.914 190.558 14.602 190.326 C 14.29 190.095 13.983 189.856 13.683 189.609 C 13.382 189.363 13.088 189.109 12.8 188.848 C 12.512 188.587 12.231 188.319 11.956 188.044 C 11.681 187.77 11.413 187.487 11.152 187.2 C 10.891 186.912 10.637 186.618 10.391 186.317 C 10.144 186.017 9.905 185.711 9.674 185.398 C 9.442 185.086 9.218 184.769 9.002 184.446 C 8.787 184.122 8.579 183.794 8.379 183.46 C 8.179 183.127 7.987 182.789 7.804 182.446 C 7.621 182.103 7.446 181.756 7.28 181.405 C 7.114 181.054 6.957 180.699 6.808 180.34 C 6.659 179.981 6.519 179.618 6.388 179.252 C 6.257 178.886 6.135 178.517 6.023 178.145 C 5.91 177.774 5.806 177.398 5.712 177.021 C 5.617 176.644 5.532 176.265 5.456 175.884 C 5.381 175.503 5.314 175.12 5.257 174.736 C 5.2 174.351 5.152 173.965 5.114 173.578 C 5.076 173.192 5.048 172.805 5.029 172.417 C 5.01 172.028 5 171.64 5 171.251 L 5 28.749 C 5 28.361 5.01 27.972 5.029 27.583 C 5.048 27.196 5.076 26.808 5.114 26.422 C 5.152 26.035 5.2 25.649 5.257 25.264 C 5.314 24.88 5.381 24.497 5.456 24.116 C 5.532 23.735 5.617 23.356 5.712 22.979 C 5.806 22.602 5.91 22.227 6.023 21.855 C 6.135 21.483 6.257 21.114 6.388 20.748 C 6.519 20.382 6.659 20.02 6.808 19.66 C 6.957 19.301 7.114 18.946 7.28 18.595 C 7.446 18.244 7.621 17.896 7.804 17.554 C 7.987 17.211 8.179 16.873 8.379 16.54 C 8.579 16.206 8.787 15.878 9.002 15.555 C 9.218 15.232 9.442 14.914 9.674 14.602 C 9.905 14.289 10.144 13.983 10.391 13.683 C 10.637 13.383 10.891 13.088 11.152 12.8 C 11.413 12.513 11.681 12.23 11.956 11.956 C 12.231 11.681 12.512 11.413 12.8 11.152 C 13.088 10.891 13.382 10.637 13.683 10.391 C 13.983 10.144 14.29 9.905 14.602 9.674 C 14.914 9.442 15.232 9.218 15.555 9.002 C 15.878 8.787 16.206 8.579 16.54 8.379 C 16.873 8.179 17.211 7.988 17.554 7.804 C 17.897 7.621 18.244 7.446 18.595 7.28 C 18.946 7.114 19.302 6.957 19.661 6.808 C 20.02 6.659 20.382 6.519 20.748 6.388 C 21.114 6.258 21.483 6.135 21.855 6.022 C 22.227 5.91 22.601 5.807 22.978 5.712 C 23.355 5.618 23.735 5.532 24.116 5.456 C 24.497 5.381 24.88 5.314 25.264 5.257 C 25.649 5.2 26.034 5.152 26.421 5.114 C 26.808 5.076 27.196 5.048 27.584 5.029 C 27.972 5.01 28.36 5 28.749 5 L 52.5 5" fill="none" stroke="#323232" stroke-linecap="round" stroke-linejoin="round" style="stroke-width: 10px;"/>
  <path d="M 195 5 L 171.249 5 C 170.86 5 170.472 5.009 170.084 5.028 C 169.696 5.047 169.308 5.076 168.921 5.114 C 168.534 5.153 168.149 5.2 167.764 5.257 C 167.38 5.314 166.997 5.381 166.616 5.456 C 166.235 5.532 165.855 5.617 165.478 5.712 C 165.101 5.806 164.727 5.909 164.355 6.022 C 163.983 6.135 163.614 6.258 163.248 6.388 C 162.882 6.519 162.52 6.659 162.161 6.808 C 161.802 6.957 161.446 7.114 161.095 7.28 C 160.744 7.446 160.397 7.621 160.054 7.804 C 159.711 7.988 159.373 8.179 159.04 8.379 C 158.706 8.579 158.378 8.787 158.055 9.002 C 157.732 9.218 157.414 9.442 157.102 9.674 C 156.79 9.905 156.483 10.144 156.183 10.391 C 155.882 10.637 155.588 10.891 155.3 11.152 C 155.012 11.413 154.731 11.681 154.456 11.956 C 154.181 12.23 153.913 12.513 153.652 12.8 C 153.391 13.088 153.137 13.382 152.891 13.683 C 152.644 13.983 152.405 14.289 152.174 14.602 C 151.942 14.914 151.718 15.231 151.502 15.554 C 151.287 15.878 151.079 16.206 150.879 16.54 C 150.679 16.873 150.487 17.211 150.304 17.554 C 150.121 17.897 149.946 18.244 149.78 18.595 C 149.614 18.946 149.457 19.301 149.308 19.66 C 149.159 20.019 149.019 20.382 148.888 20.748 C 148.757 21.114 148.635 21.483 148.523 21.855 C 148.41 22.226 148.306 22.602 148.212 22.979 C 148.117 23.356 148.032 23.735 147.956 24.116 C 147.881 24.497 147.814 24.88 147.757 25.264 C 147.7 25.649 147.652 26.035 147.614 26.422 C 147.576 26.808 147.548 27.195 147.529 27.583 C 147.51 27.972 147.5 28.36 147.5 28.749 L 147.5 171.251 C 147.5 171.64 147.51 172.028 147.529 172.417 C 147.548 172.804 147.576 173.192 147.614 173.578 C 147.652 173.966 147.7 174.351 147.757 174.736 C 147.814 175.12 147.881 175.503 147.956 175.884 C 148.032 176.265 148.117 176.644 148.212 177.021 C 148.306 177.398 148.41 177.773 148.523 178.145 C 148.635 178.517 148.757 178.886 148.888 179.252 C 149.019 179.618 149.159 179.981 149.308 180.34 C 149.457 180.699 149.614 181.054 149.78 181.406 C 149.946 181.756 150.121 182.104 150.304 182.446 C 150.487 182.789 150.679 183.127 150.879 183.46 C 151.079 183.794 151.287 184.123 151.502 184.446 C 151.718 184.769 151.942 185.086 152.174 185.398 C 152.405 185.711 152.644 186.017 152.891 186.317 C 153.137 186.617 153.391 186.912 153.652 187.2 C 153.913 187.487 154.181 187.77 154.456 188.044 C 154.731 188.319 155.012 188.587 155.3 188.848 C 155.588 189.109 155.882 189.363 156.183 189.609 C 156.483 189.856 156.79 190.095 157.102 190.326 C 157.414 190.558 157.732 190.782 158.055 190.998 C 158.378 191.213 158.706 191.421 159.04 191.621 C 159.373 191.821 159.711 192.012 160.054 192.196 C 160.397 192.379 160.744 192.554 161.095 192.72 C 161.446 192.886 161.802 193.044 162.161 193.192 C 162.52 193.341 162.882 193.481 163.248 193.612 C 163.614 193.742 163.983 193.865 164.355 193.978 C 164.727 194.09 165.101 194.193 165.478 194.288 C 165.855 194.383 166.235 194.468 166.616 194.544 C 166.997 194.619 167.38 194.686 167.764 194.743 C 168.149 194.8 168.534 194.848 168.921 194.886 C 169.308 194.924 169.696 194.953 170.084 194.972 C 170.472 194.991 170.86 195 171.249 195 L 195 195" fill="none" stroke="#323232" stroke-linecap="round" stroke-linejoin="round" style="stroke-width: 10px;" transform="matrix(-1, 0, 0, -1, 342.5, 200)"/>
  <g id="Lines" transform="translate(27 25)">
    <path d="M1 150L1 0" id="Line-1" fill="none" fill-rule="evenodd" stroke="#323232" stroke-width="10"/>
    <path d="M1 150L1 0" transform="translate(36 0)" id="Line-2" fill="none" fill-rule="evenodd" stroke="#323232" stroke-width="10"/>
    <path d="M1 150L1 0" transform="translate(72 0)" id="Line-3" fill="none" fill-rule="evenodd" stroke="#323232" stroke-width="10"/>
    <path d="M1 150L1 0" transform="translate(108 0)" id="Line-4" fill="none" fill-rule="evenodd" stroke="#323232" stroke-width="10"/>
    <path d="M1 150L1 0" transform="translate(144 0)" id="Line-5" fill="none" fill-rule="evenodd" stroke="#323232" stroke-width="10"/>
  </g>
</svg>