<?xml version="1.0" encoding="utf-8"?>
<svg width="200px" height="200px" viewBox="0 0 200 200" version="1.1" xmlns="http://www.w3.org/2000/svg">
  <path d="M 52.5 195 C 52.5 195 30 195 30 195 C 15 195 5 185 5 170 C 5 170 5 30 5 30 C 5 15 15 5 30 5 C 30 5 52.5 5 52.5 5" fill="none" stroke="#323232" stroke-linecap="round" stroke-linejoin="round" style="stroke-width: 10px;"/>
  <g id="Lines" transform="translate(27 25)">
    <path d="M 1 145 L 1 5" stroke="#323232" stroke-width="10" style="stroke-linecap: round;"/>
    <path d="M 37 145 L 37 5" stroke="#323232" stroke-width="10" style="stroke-linecap: round;"/>
    <path d="M 73 145 L 73 5" stroke="#323232" stroke-width="10" style="stroke-linecap: round;"/>
    <path d="M 109 145 L 109 5" stroke="#323232" stroke-width="10" style="stroke-linecap: round;"/>
    <path d="M 145 145 L 145 5" stroke="#323232" stroke-width="10" style="stroke-linecap: round;"/>
  </g>
  <path d="M 147.5 195 C 147.5 195 170 195 170 195 C 185 195 195 185 195 170 C 195 170 195 30 195 30 C 195 15 185 5 170 5 C 170 5 147.5 5 147.5 5" fill="none" stroke="#323232" stroke-linecap="round" stroke-linejoin="round" style="stroke-width: 10px;"/>
</svg>