<?xml version="1.0" encoding="utf-8"?>
<svg width="200px" height="200px" viewBox="0 0 200 200" version="1.1" xmlns="http://www.w3.org/2000/svg">
  <path d="M 5 100 C 5 47.533 47.533 5 100 5 C 152.467 5 195 47.533 195 100 C 195 152.467 152.467 195 100 195 C 47.533 195 5 152.467 5 100 Z" stroke="#323232" stroke-width="10" fill="none"/>
  <path d="M 103.265 122.184 L 91.02 122.184 C 91.088 115.793 91.769 110.707 93.061 106.926 C 94.354 103.145 96.19 100.083 98.571 97.741 C 100.952 95.399 103.809 93.241 107.143 91.266 C 110.136 89.493 112.653 87.167 114.694 84.29 C 116.735 81.412 117.755 77.982 117.755 74.001 C 117.755 69.082 116.063 65.175 112.678 62.281 C 109.294 59.386 105.204 57.939 100.408 57.939 C 97.619 57.939 94.932 58.508 92.347 59.646 C 89.762 60.784 87.602 62.574 85.867 65.016 C 84.133 67.459 83.129 70.654 82.857 74.603 L 70 74.603 C 70.272 68.915 71.777 64.046 74.515 59.998 C 77.253 55.949 80.876 52.853 85.383 50.712 C 89.889 48.57 94.898 47.5 100.408 47.5 C 106.394 47.5 111.607 48.671 116.046 51.013 C 120.485 53.355 123.92 56.567 126.352 60.649 C 128.784 64.732 130 69.383 130 74.603 C 130 80.157 128.741 84.909 126.224 88.857 C 123.707 92.806 120.204 96.119 115.714 98.795 C 111.224 101.539 108.053 104.568 106.199 107.88 C 104.345 111.193 103.367 115.961 103.265 122.184 Z" style="fill: rgb(50, 50, 50);"/>
  <ellipse style="fill: rgb(50, 50, 50);" cx="98" cy="144" rx="9" ry="9"/>
</svg>