<?xml version="1.0" encoding="utf-8"?>
<svg width="215px" height="384px" viewBox="0 0 215 384" version="1.1" xmlns="http://www.w3.org/2000/svg">
  <path d="M7.48965 368.35L31.6641 382.331L31.6641 71.4118C31.6641 71.1062 31.6734 70.8009 31.6921 70.4958C31.7108 70.1907 31.7387 69.8865 31.776 69.5832C31.8132 69.2798 31.8597 68.9779 31.9154 68.6774C31.9711 68.3769 32.036 68.0784 32.1099 67.7818C32.1839 67.4852 32.2669 67.1912 32.3588 66.8998C32.4507 66.6083 32.5515 66.3199 32.6611 66.0347C32.7706 65.7493 32.8888 65.4677 33.0156 65.1896C33.1424 64.9115 33.2776 64.6375 33.4211 64.3677C33.5646 64.0979 33.7163 63.8327 33.876 63.5721C34.0357 63.3115 34.2033 63.0561 34.3787 62.8058C34.554 62.5555 34.7369 62.3108 34.9272 62.0717C35.1175 61.8325 35.3149 61.5993 35.5195 61.3723C35.7241 61.1452 35.9354 60.9246 36.1534 60.7105C36.3715 60.4964 36.5959 60.2891 36.8266 60.0887C37.0573 59.8882 37.294 59.695 37.5365 59.5091C37.779 59.3231 38.027 59.1447 38.2805 58.9739L65.3311 40.743C65.4907 40.6354 65.6523 40.5309 65.8159 40.4296C65.9795 40.3282 66.145 40.2301 66.3124 40.1352C66.4798 40.0402 66.649 39.9485 66.8199 39.86C66.9908 39.7716 67.1633 39.6865 67.3375 39.6047C67.5117 39.5228 67.6874 39.4444 67.8646 39.3694C68.0419 39.2943 68.2205 39.2227 68.4004 39.1545C68.5803 39.0863 68.7615 39.0217 68.944 38.9605C69.1265 38.8993 69.3101 38.8416 69.4948 38.7875C69.6795 38.7334 69.8651 38.6828 70.0517 38.6358C70.2383 38.5888 70.4258 38.5454 70.6141 38.5057C70.8024 38.4659 70.9913 38.4297 71.181 38.3973C71.3707 38.3647 71.561 38.3359 71.7518 38.3108C71.9425 38.2856 72.1337 38.2641 72.3254 38.2463C72.517 38.2285 72.7089 38.2143 72.9011 38.2039C73.0932 38.1935 73.2855 38.1868 73.4779 38.1837C73.6704 38.1807 73.8628 38.1814 74.0552 38.1858C74.2476 38.1901 74.4398 38.1982 74.6319 38.21C74.824 38.2218 75.0158 38.2372 75.2073 38.2564C75.3988 38.2756 75.5898 38.2984 75.7804 38.3249C75.971 38.3514 76.161 38.3816 76.3505 38.4155C76.5399 38.4493 76.7287 38.4868 76.9167 38.5279C77.1047 38.569 77.2918 38.6136 77.4781 38.6619C77.6644 38.7102 77.8497 38.7621 78.034 38.8175C78.2183 38.8729 78.4014 38.9319 78.5835 38.9944C78.7655 39.0568 78.9462 39.1228 79.1257 39.1923C79.3052 39.2618 79.4833 39.3346 79.66 39.4109C79.8367 39.4872 80.0118 39.5668 80.1854 39.6499C80.359 39.7329 80.531 39.8193 80.7013 39.9089C80.8716 39.9986 81.0401 40.0914 81.2068 40.1876C81.3735 40.2837 81.5383 40.383 81.7012 40.4856C81.8641 40.588 82.0249 40.6936 82.1837 40.8023C82.3426 40.911 82.4993 41.0226 82.6538 41.1374L165.246 102.446C165.481 102.621 165.711 102.802 165.935 102.99C166.16 103.178 166.378 103.372 166.591 103.572C166.804 103.773 167.011 103.98 167.212 104.192C167.413 104.405 167.607 104.623 167.795 104.847C167.983 105.071 168.164 105.301 168.339 105.535C168.514 105.77 168.681 106.01 168.842 106.254C169.003 106.499 169.156 106.748 169.302 107.001C169.448 107.255 169.587 107.512 169.718 107.773C169.849 108.035 169.972 108.301 170.087 108.569C170.202 108.838 170.31 109.11 170.41 109.385C170.509 109.66 170.601 109.938 170.684 110.218C170.767 110.498 170.842 110.781 170.909 111.066C170.976 111.351 171.034 111.637 171.084 111.925C171.134 112.214 171.176 112.503 171.209 112.793C171.242 113.084 171.267 113.376 171.283 113.668C171.299 113.96 171.306 114.253 171.305 114.545C171.304 114.837 171.295 115.129 171.276 115.421C171.258 115.713 171.231 116.005 171.196 116.295C171.161 116.585 171.118 116.874 171.065 117.162C171.013 117.45 170.953 117.736 170.884 118.02C170.815 118.305 170.738 118.587 170.653 118.867C170.568 119.147 170.474 119.424 170.372 119.698C170.271 119.972 170.161 120.243 170.044 120.511C169.927 120.779 169.801 121.044 169.668 121.304C169.535 121.565 169.395 121.821 169.247 122.073C169.099 122.326 168.944 122.574 168.782 122.817C168.619 123.061 168.45 123.299 168.273 123.532C168.097 123.766 167.914 123.994 167.724 124.216C167.535 124.439 167.339 124.656 167.136 124.867C166.934 125.079 166.726 125.284 166.511 125.482C166.297 125.682 166.077 125.874 165.851 126.06C165.626 126.246 165.395 126.426 165.158 126.598L46.2455 213.532L61.6606 233.352L202.458 134.304C202.859 134.022 203.251 133.729 203.635 133.424C204.018 133.119 204.393 132.803 204.758 132.476C205.123 132.149 205.478 131.811 205.823 131.463C206.168 131.115 206.502 130.758 206.826 130.39C207.151 130.023 207.464 129.646 207.765 129.26C208.067 128.874 208.357 128.48 208.636 128.076C208.915 127.673 209.181 127.262 209.436 126.843C209.691 126.425 209.933 125.999 210.162 125.566C210.392 125.133 210.609 124.693 210.812 124.247C211.016 123.802 211.206 123.351 211.383 122.894C211.56 122.437 211.724 121.975 211.874 121.508C212.024 121.042 212.16 120.572 212.282 120.097C212.405 119.623 212.513 119.145 212.607 118.664C212.702 118.183 212.782 117.7 212.847 117.214C212.913 116.728 212.965 116.241 213.002 115.752C213.039 115.264 213.061 114.774 213.07 114.284C213.078 113.794 213.072 113.305 213.052 112.815C213.031 112.326 212.996 111.837 212.947 111.349C212.898 110.862 212.835 110.376 212.757 109.892C212.679 109.408 212.587 108.927 212.481 108.449C212.375 107.971 212.255 107.496 212.121 107.024C211.987 106.553 211.839 106.086 211.678 105.623C211.517 105.161 211.342 104.703 211.154 104.25C210.965 103.798 210.764 103.352 210.549 102.911C210.334 102.471 210.107 102.037 209.867 101.609C209.627 101.182 209.375 100.762 209.11 100.35C208.845 99.9377 208.569 99.5334 208.28 99.1374C207.991 98.7414 207.691 98.3541 207.38 97.9754C207.069 97.5974 206.746 97.2284 206.413 96.8684C206.08 96.5091 205.737 96.1598 205.383 95.8205C205.03 95.4812 204.667 95.1526 204.294 94.8347C203.921 94.5167 203.539 94.21 203.148 93.9145L82.9039 3.03323C82.7462 2.91403 82.5862 2.798 82.4239 2.68512C82.2616 2.57224 82.0971 2.46262 81.9305 2.35625C81.7638 2.24988 81.5951 2.14684 81.4244 2.04713C81.2538 1.94743 81.0811 1.85114 80.9066 1.75827C80.7321 1.66539 80.5558 1.576 80.3777 1.49009C80.1996 1.40418 80.02 1.32183 79.8387 1.24303C79.6574 1.16423 79.4746 1.08904 79.2903 1.01747C79.106 0.9459 78.9203 0.877991 78.7334 0.813759C78.5464 0.749527 78.3583 0.689018 78.1689 0.632217C77.9795 0.575424 77.7891 0.5224 77.5977 0.473145C77.4062 0.423874 77.2139 0.378418 77.0206 0.336761C76.8273 0.295105 76.6333 0.257278 76.4386 0.22329C76.2438 0.189308 76.0484 0.159187 75.8525 0.132919C75.6566 0.106659 75.4602 0.0842819 75.2634 0.0657883C75.0665 0.0472946 74.8694 0.032692 74.672 0.0219879C74.4746 0.0112915 74.2771 0.00449371 74.0794 0.00160217C73.8817 -0.00128174 73.6841 -0.000267029 73.4864 0.00465393C73.2888 0.00957489 73.0913 0.0184097 72.894 0.0311432C72.6968 0.0438766 72.4998 0.0605011 72.3032 0.0810242C72.1065 0.10154 71.9104 0.125938 71.7147 0.154221C71.5191 0.182495 71.324 0.21463 71.1297 0.250618C70.9353 0.286606 70.7417 0.326424 70.5489 0.370071C70.356 0.413712 70.1641 0.461151 69.9732 0.512383C69.7823 0.563614 69.5924 0.618599 69.4036 0.67733C69.2149 0.736069 69.0273 0.798515 68.841 0.86467C68.6547 0.930824 68.4698 1.00063 68.2863 1.0741C68.1028 1.14757 67.9207 1.22463 67.7402 1.3053C67.5597 1.38596 67.3809 1.47016 67.2038 1.55789C67.0266 1.64562 66.8512 1.73683 66.6777 1.8315C66.5042 1.92617 66.3325 2.02423 66.1628 2.12568C65.9931 2.22713 65.8255 2.3319 65.66 2.43998C65.4945 2.54807 65.3311 2.65938 65.17 2.77392L6.30893 44.6147C6.06618 44.7872 5.82878 44.9668 5.59674 45.1536C5.36469 45.3402 5.1384 45.5337 4.91788 45.7339C4.69736 45.9341 4.48299 46.1406 4.27477 46.3536C4.06654 46.5665 3.86484 46.7854 3.66966 47.0104C3.47449 47.2354 3.28618 47.466 3.10474 47.7022C2.92329 47.9383 2.74904 48.1797 2.58199 48.4263C2.41492 48.6728 2.25534 48.9241 2.10324 49.1802C1.95114 49.4362 1.80681 49.6966 1.67023 49.9613C1.53365 50.226 1.40506 50.4944 1.28447 50.7668C1.16388 51.0391 1.0515 51.3148 0.947327 51.5938C0.84317 51.8728 0.747391 52.1546 0.660019 52.4394C0.572632 52.7241 0.49382 53.0112 0.423538 53.3006C0.353256 53.59 0.291656 53.8812 0.238739 54.1744C0.185806 54.4675 0.141647 54.7618 0.106262 55.0576C0.0708771 55.3533 0.0443115 55.6497 0.0265961 55.9471C0.00886536 56.2444 0 56.542 0 56.8398L0 355.366C0 355.694 0.0106964 356.02 0.032074 356.346C0.0534515 356.673 0.0854645 356.998 0.128128 357.322C0.170792 357.647 0.224014 357.97 0.287781 358.29C0.351563 358.611 0.425736 358.929 0.510346 359.245C0.59494 359.561 0.689774 359.874 0.794846 360.184C0.899918 360.494 1.015 360.8 1.14011 361.102C1.2652 361.404 1.40002 361.702 1.54462 361.995C1.68918 362.289 1.8432 362.578 2.00664 362.86C2.17009 363.144 2.34262 363.422 2.52423 363.694C2.70586 363.966 2.89616 364.232 3.09517 364.491C3.29417 364.751 3.50145 365.004 3.717 365.25C3.93254 365.496 4.1559 365.735 4.38707 365.966C4.61824 366.198 4.85672 366.421 5.10252 366.637C5.34833 366.853 5.60091 367.06 5.86029 367.259C6.11967 367.459 6.38528 367.649 6.65714 367.831C6.92899 368.013 7.2065 368.186 7.48965 368.35L7.48965 368.35L7.48965 368.35Z" id="P---Outer" fill="#FFFFFF" fill-rule="evenodd" stroke="#231F20" stroke-width="1"/>
  <path d="M25.3042 332.231L0 348.481L0 36.8653C0 36.5828 0.00798035 36.3004 0.023941 36.0183C0.0399017 35.7362 0.0638123 35.4547 0.0956726 35.1739C0.127533 34.8932 0.167313 34.6136 0.214981 34.335C0.26265 34.0565 0.318146 33.7795 0.38147 33.5041C0.444794 33.2287 0.515854 32.9553 0.59462 32.6839C0.673401 32.4126 0.759781 32.1436 0.85376 31.8771C0.947739 31.6107 1.04916 31.347 1.15804 31.0863C1.26691 30.8255 1.38306 30.568 1.50648 30.3138C1.62993 30.0596 1.76044 29.8091 1.89803 29.5623C2.03561 29.3155 2.18005 29.0728 2.33136 28.8341C2.48267 28.5955 2.64059 28.3613 2.80513 28.1315C2.96968 27.9018 3.14058 27.6769 3.31783 27.4568C3.49509 27.2368 3.67841 27.0218 3.86781 26.8121C4.05721 26.6024 4.25238 26.3983 4.45332 26.1996C4.65427 26.0009 4.86066 25.808 5.07249 25.621C5.28433 25.434 5.50128 25.2532 5.72334 25.0784L33.5098 3.21204C33.6694 3.08644 33.8315 2.96413 33.9961 2.84512C34.1607 2.7261 34.3276 2.61047 34.4969 2.49825C34.6662 2.386 34.8376 2.27725 35.0113 2.17198C35.185 2.06671 35.3607 1.96501 35.5386 1.86688C35.7164 1.76875 35.8961 1.67427 36.0778 1.58344C36.2595 1.49261 36.4429 1.40551 36.6281 1.32213C36.8133 1.23876 37.0001 1.15917 37.1885 1.08338C37.377 1.0076 37.5669 0.935669 37.7582 0.867592C37.9495 0.799515 38.1422 0.735359 38.3362 0.67511C38.5301 0.614861 38.7252 0.558571 38.9215 0.506256C39.1178 0.453934 39.315 0.405617 39.5132 0.361305C39.7114 0.316994 39.9104 0.276726 40.1103 0.240501C40.3101 0.204277 40.5106 0.172119 40.7117 0.144043C40.9129 0.115959 41.1146 0.09198 41.3167 0.0720901C41.5188 0.0522003 41.7213 0.0364227 41.924 0.024765C42.1267 0.013092 42.3297 0.0055542 42.5328 0.0021286C42.7359 -0.001297 42.9389 -0.000595093 43.1419 0.00423431C43.345 0.00905609 43.5478 0.0180054 43.7505 0.0310822C43.9532 0.0441513 44.1555 0.0613251 44.3575 0.0826111C44.5595 0.103897 44.761 0.12928 44.9619 0.158752C45.1628 0.188217 45.3631 0.221756 45.5627 0.259361C45.7623 0.296967 45.9611 0.338615 46.159 0.3843C46.3569 0.429985 46.5537 0.47966 46.7496 0.533333C46.9455 0.587013 47.1402 0.644646 47.3338 0.706245C47.5273 0.76783 47.7195 0.833321 47.9104 0.90271C48.1013 0.972115 48.2907 1.04536 48.4786 1.12244C48.6665 1.19954 48.8527 1.28041 49.0373 1.36506C49.222 1.44972 49.4048 1.53809 49.5858 1.63017C49.7668 1.72226 49.9459 1.81799 50.1231 1.91734C50.3002 2.01669 50.4753 2.11961 50.6482 2.22608C50.8211 2.33255 50.9919 2.44248 51.1604 2.55589C51.3289 2.6693 51.495 2.78607 51.6587 2.90622L146.437 72.4515C146.597 72.5687 146.753 72.6905 146.905 72.8169C147.058 72.9433 147.206 73.0742 147.351 73.2094C147.496 73.3447 147.636 73.4842 147.773 73.6278C147.909 73.7714 148.041 73.9189 148.169 74.0704C148.296 74.2219 148.419 74.377 148.538 74.5357C148.656 74.6945 148.769 74.8567 148.878 75.0222C148.987 75.1878 149.091 75.3564 149.19 75.528C149.289 75.6997 149.382 75.8741 149.47 76.0514C149.559 76.2286 149.642 76.4083 149.719 76.5905C149.797 76.7727 149.869 76.9571 149.936 77.1435C150.003 77.33 150.064 77.5183 150.12 77.7084C150.175 77.8985 150.225 78.0901 150.269 78.2831C150.313 78.4762 150.351 78.6704 150.384 78.8657C150.417 79.0611 150.444 79.2573 150.465 79.4542C150.486 79.6512 150.501 79.8486 150.51 80.0464C150.519 80.2442 150.523 80.4422 150.52 80.6402C150.517 80.8382 150.509 81.036 150.495 81.2335C150.481 81.4311 150.461 81.6281 150.435 81.8244C150.409 82.0208 150.377 82.2162 150.339 82.4106C150.302 82.6051 150.258 82.7982 150.209 82.9901C150.16 83.182 150.106 83.3722 150.045 83.5608C149.985 83.7495 149.919 83.9362 149.847 84.1209C149.776 84.3056 149.699 84.488 149.617 84.6681C149.534 84.8483 149.447 85.0259 149.354 85.2008C149.261 85.3758 149.163 85.5478 149.06 85.7169C148.957 85.886 148.849 86.052 148.736 86.2146C148.623 86.3773 148.506 86.5365 148.383 86.6922C148.26 86.848 148.133 86.9999 148.002 87.148C147.871 87.2962 147.735 87.4404 147.595 87.5804C147.455 87.7205 147.311 87.8564 147.163 87.9879C147.015 88.1194 146.863 88.2465 146.708 88.369C146.552 88.4915 146.393 88.6094 146.23 88.7224L14.9426 180.013L32.4279 136.396L109.282 85.0668C109.369 85.0089 109.453 84.9483 109.536 84.885C109.619 84.8218 109.7 84.7561 109.779 84.6877C109.858 84.6194 109.934 84.5488 110.009 84.4756C110.083 84.4026 110.155 84.3272 110.225 84.2496C110.294 84.172 110.361 84.0923 110.426 84.0105C110.491 83.9286 110.553 83.8449 110.613 83.7592C110.672 83.6736 110.729 83.5861 110.783 83.4968C110.837 83.4076 110.888 83.3167 110.936 83.2243C110.985 83.1319 111.03 83.038 111.072 82.9427C111.115 82.8474 111.154 82.7509 111.19 82.6531C111.227 82.5554 111.26 82.4566 111.29 82.3567C111.32 82.2569 111.347 82.1563 111.371 82.0547C111.395 81.9532 111.416 81.851 111.433 81.7481C111.451 81.6453 111.465 81.5421 111.476 81.4383C111.487 81.3347 111.495 81.2307 111.499 81.1265C111.504 81.0223 111.505 80.9181 111.503 80.8137C111.501 80.7095 111.496 80.6053 111.487 80.5014C111.479 80.3975 111.467 80.2939 111.452 80.1906C111.437 80.0874 111.419 79.9848 111.398 79.8827C111.376 79.7807 111.351 79.6794 111.324 79.5788C111.296 79.4783 111.265 79.3787 111.231 79.2801C111.197 79.1815 111.16 79.0841 111.12 78.9878C111.08 78.8915 111.037 78.7965 110.991 78.7029C110.945 78.6094 110.896 78.5174 110.844 78.4268C110.792 78.3363 110.737 78.2475 110.68 78.1603C110.623 78.0733 110.563 77.988 110.5 77.9046C110.437 77.8213 110.372 77.74 110.304 77.6607C110.237 77.5815 110.167 77.5044 110.094 77.4295C110.021 77.3546 109.946 77.2821 109.869 77.2119C109.792 77.1417 109.712 77.074 109.631 77.0088C109.55 76.9436 109.466 76.881 109.381 76.8209C109.296 76.7609 109.209 76.7036 109.12 76.6491L40.0061 34.2332C39.9121 34.1755 39.8163 34.121 39.7187 34.0696C39.6211 34.0183 39.5219 33.9702 39.4211 33.9254C39.3203 33.8807 39.2181 33.8393 39.1146 33.8012C39.0111 33.7632 38.9064 33.7287 38.8006 33.6976C38.6948 33.6665 38.5881 33.6389 38.4804 33.6149C38.3728 33.5909 38.2645 33.5704 38.1555 33.5535C38.0465 33.5367 37.9371 33.5235 37.8272 33.5138C37.7173 33.5042 37.6073 33.4983 37.497 33.4959C37.3867 33.4936 37.2765 33.4949 37.1663 33.4999C37.0561 33.5049 36.9462 33.5135 36.8366 33.5257C36.727 33.5379 36.6179 33.5538 36.5093 33.5732C36.4008 33.5927 36.293 33.6157 36.186 33.6423C36.0789 33.6689 35.9729 33.699 35.8678 33.7326C35.7628 33.7662 35.659 33.8033 35.5564 33.8438C35.4538 33.8843 35.3526 33.9281 35.2529 33.9753C35.1532 34.0225 35.0552 34.0728 34.9589 34.1265C34.8625 34.1802 34.768 34.237 34.6755 34.2969C34.5829 34.3569 34.4924 34.4198 34.4039 34.4856C34.3155 34.5516 34.2294 34.6203 34.1455 34.6919C34.0616 34.7635 33.9801 34.8379 33.9012 34.9149C33.8223 34.9919 33.7459 35.0714 33.6722 35.1534C33.5985 35.2355 33.5276 35.3199 33.4595 35.4066C33.3914 35.4934 33.3262 35.5824 33.264 35.6734C33.2017 35.7644 33.1426 35.8574 33.0865 35.9524C33.0304 36.0474 32.9776 36.1441 32.9279 36.2426C32.8782 36.3411 32.8319 36.4411 32.7889 36.5426C32.7458 36.6442 32.7062 36.747 32.6699 36.8512C32.6337 36.9554 32.601 37.0606 32.5717 37.1669C32.5424 37.2733 32.5166 37.3805 32.4945 37.4885C32.4723 37.5965 32.4537 37.7052 32.4387 37.8144C32.4237 37.9237 32.4123 38.0334 32.4046 38.1434C32.3969 38.2534 32.3928 38.3636 32.3924 38.4738L31.9992 136.955L14.9426 180.013L32.1984 198.767L32.1984 319.61C32.1984 319.923 32.1887 320.235 32.1692 320.547C32.1497 320.859 32.1204 321.17 32.0814 321.48C32.0425 321.79 31.9939 322.099 31.9356 322.406C31.8773 322.713 31.8095 323.018 31.7322 323.321C31.6549 323.624 31.5682 323.924 31.4721 324.221C31.376 324.519 31.2708 324.813 31.1563 325.103C31.0418 325.395 30.9183 325.682 30.7859 325.964C30.6535 326.248 30.5124 326.526 30.3625 326.8C30.2127 327.075 30.0544 327.345 29.8877 327.609C29.721 327.873 29.5463 328.132 29.3634 328.385C29.1805 328.639 28.9899 328.887 28.7916 329.128C28.5933 329.37 28.3876 329.605 28.1745 329.833C27.9615 330.062 27.7415 330.284 27.5146 330.499C27.2877 330.714 27.0543 330.922 26.8144 331.122C26.5745 331.322 26.3285 331.515 26.0766 331.7C25.8247 331.885 25.5672 332.062 25.3042 332.231L25.3042 332.231Z" transform="translate(31.664398 33.850906)" id="P---Inner" fill="#E3E3E3" fill-rule="evenodd" stroke="#231F20" stroke-width="1"/>
</svg>