<?xml version="1.0" encoding="utf-8"?>
<svg width="512px" height="512px" viewBox="0 0 512 512" version="1.1" xmlns="http://www.w3.org/2000/svg">
  <ellipse d="M 2 255.999 C 2 115.718 115.712 2 255.983 2 C 396.255 2 509.966 115.718 509.966 255.999 C 509.966 396.279 396.255 509.997 255.983 509.997 C 115.712 509.997 2 396.279 2 255.999 Z" fill="none" stroke="#78AFA0" stroke-dasharray="76 4 70 76 4 70" style="stroke-width: 4px;" rx="254" ry="254" cx="256" cy="256"/>
  <ellipse fill="none" stroke="#78AFA0" stroke-opacity="0.2784314" stroke-dasharray="46 2 12 46 2 12" style="stroke-width: 4px;" cx="256" cy="256" rx="254" ry="254"/>
  <ellipse fill="none" stroke="#DDA131" stroke-dasharray="76 2 40 180" style="stroke-width: 8px;" cx="256" cy="256" rx="237.5" ry="237.5"/>
  <ellipse fill="none" stroke="#DDA131" stroke-opacity="0.6901961" stroke-dasharray="56 2 4 56 2 4" style="stroke-width: 8px;" cx="256" cy="256" rx="237.5" ry="237.5"/>
  <ellipse fill="none" stroke="#D36F2B" stroke-dasharray="51 4 10 80" style="stroke-width: 4px;" cx="256" cy="256" rx="225" ry="225"/>
  <ellipse fill="none" stroke="#D36F2B" stroke-opacity="0.4392157" stroke-dasharray="140 4 10 80" style="stroke-width: 4px;" cx="256" cy="256" rx="225" ry="225"/>
  <ellipse fill="none" stroke="#C24127" stroke-dasharray="35 7 10 80" style="stroke-width: 2px;" cx="256" cy="256" rx="210" ry="210"/>
  <ellipse fill="none" stroke="#C24127" stroke-opacity="0.2784314" stroke-dasharray="35 7 10 80" style="stroke-width: 2px;" cx="256" cy="256" rx="210" ry="210"/>
</svg>