<?xml version="1.0" encoding="utf-8"?>
<svg width="210px" height="210px" viewBox="0 0 210 210" version="1.1" xmlns:xlink="http://www.w3.org/1999/xlink" xmlns="http://www.w3.org/2000/svg">
  <path d="M165.062 9.50481C162.177 6.61978 158.263 4.99934 154.183 5L27.2212 5C21.3273 4.99872 15.6746 7.33946 11.507 11.507C7.33946 15.6746 4.99872 21.3273 5 27.2212L5 182.779C5 188.677 7.34196 194.33 11.5104 198.496C15.6789 202.663 21.3322 205.003 27.226 205L182.779 205C195.036 204.963 204.963 195.036 205 182.779L205 55.8173C205 51.7343 203.379 47.821 200.493 44.9357L165.062 9.50481ZM105 181.923C88.0066 181.923 74.2308 168.147 74.2308 151.154C74.2307 134.161 88.0065 120.385 105 120.385C121.993 120.385 135.769 134.16 135.769 151.154C135.78 159.316 132.542 167.149 126.769 172.921C120.997 178.694 113.165 181.933 105.001 181.923L105 181.923ZM128.077 74.2308L35.7692 74.2308C31.5209 74.2308 28.0769 70.7868 28.0769 66.5385L28.0769 35.7692C28.0769 31.5209 31.5209 28.0769 35.7692 28.0769L128.077 28.0769C132.325 28.0769 135.769 31.5209 135.769 35.7692L135.769 66.5385C135.769 70.7868 132.325 74.2308 128.077 74.2308L128.077 74.2308Z" id="Shape" fill="none" fill-rule="evenodd" stroke="#323232" stroke-width="10" stroke-linecap="round" stroke-linejoin="round" />
</svg>