<?xml version="1.0" encoding="utf-8"?>
<svg width="220px" height="220px" viewBox="0 0 220 220" version="1.1" xmlns:xlink="http://www.w3.org/1999/xlink" xmlns="http://www.w3.org/2000/svg">
  <g id="save-outline" transform="translate(5 5)">
    <path d="M168.066 4.73005C165.036 1.70077 160.926 -0.000693248 156.642 0L23.3322 0C17.1437 -0.00134028 11.2083 2.45644 6.83237 6.83237C2.45644 11.2083 -0.00134028 17.1437 0 23.3322L0 186.668C0 192.861 2.45906 198.796 6.83594 203.171C11.2128 207.546 17.1488 210.003 23.3373 210L186.668 210C199.538 209.961 209.961 199.538 210 186.668L210 53.3582C210 49.071 208.298 44.962 205.268 41.9325L168.066 4.73005ZM105 185.769C87.157 185.769 72.6923 171.305 72.6923 153.462C72.6923 135.619 87.1569 121.154 105 121.154C122.843 121.154 137.308 135.618 137.308 153.461C137.319 162.032 133.919 170.256 127.858 176.318C121.797 182.379 113.573 185.78 105.001 185.769L105 185.769ZM129.231 72.6923L32.3077 72.6923C27.8469 72.6923 24.2308 69.0761 24.2308 64.6154L24.2308 32.3077C24.2308 27.8469 27.8469 24.2308 32.3077 24.2308L129.231 24.2308C133.691 24.2308 137.308 27.8469 137.308 32.3077L137.308 64.6154C137.308 69.0761 133.691 72.6923 129.231 72.6923L129.231 72.6923Z" id="Shape" fill="none" fill-rule="evenodd" stroke="#323232" stroke-width="10" stroke-linecap="round" stroke-linejoin="round" />
  </g>
</svg>