<?xml version="1.0" encoding="utf-8"?>
<svg width="200px" height="200px" viewBox="0 0 200 200" version="1.1" xmlns="http://www.w3.org/2000/svg">
  <path d="M 190.919 118.174 L 190.719 118.017 L 177.339 107.794 C 175.619 106.47 174.659 104.421 174.749 102.289 L 174.749 97.514 C 174.669 95.393 175.629 93.363 177.339 92.053 L 190.719 81.827 L 190.919 81.669 C 195.189 78.211 196.249 72.254 193.429 67.601 L 175.309 37.077 C 175.289 37.048 175.269 37.018 175.259 36.987 C 172.429 32.403 166.639 30.439 161.499 32.319 L 161.349 32.372 L 145.609 38.539 C 143.599 39.332 141.309 39.134 139.48 38.007 C 138.08 37.153 136.67 36.346 135.23 35.586 C 133.35 34.589 132.06 32.776 131.76 30.704 L 129.39 14.351 L 129.34 14.054 C 128.28 8.833 123.6 5.054 118.13 5 L 81.87 5 C 76.32 5.017 71.58 8.92 70.65 14.248 L 70.61 14.479 L 68.25 30.865 C 67.95 32.931 66.68 34.741 64.8 35.747 C 63.35 36.507 61.93 37.312 60.56 38.151 C 58.72 39.272 56.45 39.467 54.44 38.676 L 38.691 32.48 L 38.541 32.422 C 33.391 30.541 27.601 32.511 24.771 37.106 L 24.711 37.196 L 6.571 67.742 C 3.751 72.399 4.811 78.364 9.081 81.827 L 9.281 81.983 L 22.661 92.206 C 24.381 93.531 25.341 95.579 25.251 97.711 L 25.251 102.486 C 25.331 104.607 24.371 106.638 22.661 107.947 L 9.281 118.174 L 9.081 118.331 C 4.811 121.789 3.751 127.747 6.571 132.399 L 24.691 162.923 C 24.711 162.952 24.731 162.982 24.741 163.014 C 27.571 167.598 33.361 169.561 38.501 167.681 L 38.651 167.628 L 54.37 161.461 C 56.39 160.667 58.67 160.866 60.51 161.994 C 61.9 162.85 63.32 163.657 64.75 164.414 C 66.64 165.411 67.93 167.224 68.23 169.296 L 70.58 185.649 L 70.64 185.947 C 71.7 191.175 76.39 194.957 81.87 195 L 118.13 195 C 123.68 194.983 128.42 191.08 129.35 185.752 L 129.39 185.521 L 131.75 169.135 C 132.05 167.065 133.34 165.255 135.22 164.253 C 136.67 163.493 138.09 162.688 139.46 161.849 C 141.299 160.728 143.569 160.533 145.579 161.324 L 161.329 167.499 L 161.479 167.557 C 166.629 169.442 172.429 167.471 175.249 162.874 C 175.269 162.843 175.289 162.812 175.309 162.783 L 193.419 132.263 C 196.249 127.606 195.189 121.637 190.919 118.174 Z" stroke="#323232" style="stroke-width: 10px;" fill="none"/>
  <path d="M 133.22 101.56 C 132.37 119.5 117.44 133.528 99.48 133.246 C 81.52 132.964 67.03 118.474 66.75 100.516 C 66.47 82.559 80.5 67.624 98.44 66.782 C 107.79 66.371 116.87 69.903 123.49 76.517 C 130.1 83.13 133.63 92.217 133.22 101.56 Z" stroke="#323232" style="stroke-width: 10px;" fill="none"/>
</svg>