<?xml version="1.0" encoding="utf-8"?>
<svg width="33px" height="33px" viewBox="0 0 33 33" version="1.1" xmlns="http://www.w3.org/2000/svg" xmlns:xlink="http://www.w3.org/1999/xlink" xmlns:bx="https://boxy-svg.com">
  <defs>
    <symbol id="line" viewBox="-0.5 -0.5 1 5" bx:pinned="true">
      <path d="M 0 4 L 0 0" stroke="#323232" stroke-linecap="round"/>
    </symbol>
  </defs>
  <path d="M 6.5 16.5 C 6.5 10.977 10.977 6.5 16.5 6.5 C 22.023 6.5 26.5 10.977 26.5 16.5 C 26.5 22.023 22.023 26.5 16.5 26.5 C 10.977 26.5 6.5 22.023 6.5 16.5 Z" id="path_1" fill="none" fill-rule="evenodd" stroke="#323232" style=""/>
  <use width="1" height="4" transform="matrix(1, 0, 0, 1.25, 16, 0.5)" style="" xlink:href="#line" bx:origin="0.5 3.2"/>
  <use width="1" height="4" transform="matrix(0, 1, -1.249999, 0, 32.499996, 16)" style="" xlink:href="#line" bx:origin="0.5 3.200002"/>
  <use width="1" height="4" transform="matrix(1, 0, 0, 1.25, 16, 27.5)" style="" xlink:href="#line" bx:origin="0.5 -2.2"/>
  <use width="1" height="4" transform="matrix(0, 1, -1.249999, 0, 5.499996, 16)" style="" xlink:href="#line" bx:origin="0.5 -2.200002"/>
  <use width="1" height="4" transform="matrix(0.707107, 0.707107, -0.883883, 0.883883, 27.460154, 4.832738)" style="" xlink:href="#line" bx:origin="0.5 3.200002"/>
  <use width="1" height="4" transform="matrix(-0.707107, 0.707107, -0.883882, -0.883883, 28.167259, 27.46015)" style="" bx:origin="0.5 3.200002" xlink:href="#line"/>
  <use width="1" height="4" transform="matrix(-0.707107, -0.707107, 0.883883, -0.883883, 5.539845, 28.167261)" style="" bx:origin="0.5 3.2" xlink:href="#line"/>
  <use width="1" height="4" transform="matrix(0.707107, -0.707107, 0.883884, 0.883883, 4.832736, 5.53985)" style="" bx:origin="0.5 3.2" xlink:href="#line"/>
</svg>