<?xml version="1.0" encoding="utf-8"?>
<svg width="33px" height="33px" viewBox="0 0 33 33" version="1.1" xmlns="http://www.w3.org/2000/svg" xmlns:xlink="http://www.w3.org/1999/xlink" xmlns:bx="https://boxy-svg.com">
  <defs>
    <symbol id="line" viewBox="-0.5 -0.5 1 5" bx:pinned="true">
      <path d="M 0 4 L 0 0" stroke="#323232" stroke-linecap="round"/>
    </symbol>
  </defs>
  <path d="M 7.5 16.5 C 7.5 11.529 11.529 7.5 16.5 7.5 C 21.471 7.5 25.5 11.529 25.5 16.5 C 25.5 21.471 21.471 25.5 16.5 25.5 C 11.529 25.5 7.5 21.471 7.5 16.5 Z" id="path_1" fill="none" fill-rule="evenodd" stroke="#323232" style=""/>
  <use width="1" height="4" transform="matrix(1, 0, 0, 1.25, 16, 0.5)" style="" xlink:href="#line" bx:origin="0.5 3.2"/>
  <use width="1" height="4" transform="matrix(0, 1, -1.2499990463256836, 0, 32.499996185302734, 16)" style="" xlink:href="#line" bx:origin="0.5 3.200002"/>
  <use width="1" height="4" transform="matrix(1, 0, 0, 1.25, 16, 27.5)" style="" xlink:href="#line" bx:origin="0.5 -2.2"/>
  <use width="1" height="4" transform="matrix(0, 1, -1.2499990463256836, 0, 5.499996185302734, 16)" style="" xlink:href="#line" bx:origin="0.5 -2.200002"/>
  <use width="1" height="4" transform="matrix(0.7071070075035095, 0.7071070075035095, -0.883882999420166, 0.883882999420166, 27.460153579711914, 4.832737922668457)" style="" xlink:href="#line" bx:origin="0.5 3.200002"/>
  <use width="1" height="4" transform="matrix(-0.7071070075035095, 0.7071070075035095, -0.8838820457458496, -0.883882999420166, 28.167259216308594, 27.46014976501465)" style="" bx:origin="0.5 3.200002" xlink:href="#line"/>
  <use width="1" height="4" transform="matrix(-0.7071070075035095, -0.7071070075035095, 0.883882999420166, -0.883882999420166, 5.539844989776611, 28.167261123657227)" style="" bx:origin="0.5 3.2" xlink:href="#line"/>
  <use width="1" height="4" transform="matrix(0.7071070075035095, -0.7071070075035095, 0.8838840126991272, 0.883882999420166, 4.832736015319824, 5.539850234985352)" style="" bx:origin="0.5 3.2" xlink:href="#line"/>
</svg>