<?xml version="1.0" encoding="utf-8"?>
<svg width="200px" height="200px" viewBox="0 0 200 200" version="1.1" xmlns="http://www.w3.org/2000/svg" xmlns:xlink="http://www.w3.org/1999/xlink" xmlns:bx="https://boxy-svg.com">
  <defs>
    <symbol id="square" viewBox="-5 -5 60 60" bx:pinned="true">
      <path d="M 17.499 5 L 42.501 5 C 50.833 5 55 9.167 55 17.5 L 55 42.501 C 55 50.833 50.833 55 42.501 55 L 17.499 55 C 9.167 55 5 50.833 5 42.501 L 5 17.499 C 5 9.167 9.167 5 17.499 5 Z" stroke="#323232" style="stroke-linejoin: round; stroke-width: 10px; fill: none;" transform="matrix(1, 0, 0, 1, -5, -5)"/>
    </symbol>
  </defs>
  <use width="50" height="50" transform="matrix(1.2, 0, 0, 1.2, 1, 1)" xlink:href="#square"/>
  <use width="50" height="50" transform="matrix(1.2, 0, 0, 1.2, 70, 1)" xlink:href="#square"/>
  <use width="50" height="50" transform="matrix(1.2, 0, 0, 1.2, 139, 1)" xlink:href="#square"/>
  <use width="50" height="50" transform="matrix(1.2, 0, 0, 1.2, 1, 70)" xlink:href="#square"/>
  <use width="50" height="50" transform="matrix(1.2, 0, 0, 1.2, 70, 70)" xlink:href="#square"/>
  <use width="50" height="50" transform="matrix(1.2, 0, 0, 1.2, 139, 70)" xlink:href="#square"/>
  <use width="50" height="50" transform="matrix(1.2, 0, 0, 1.2, 1, 139)" xlink:href="#square"/>
  <use width="50" height="50" transform="matrix(1.2, 0, 0, 1.2, 70, 139)" xlink:href="#square"/>
  <use width="50" height="50" transform="matrix(1.2, 0, 0, 1.2, 139, 139)" xlink:href="#square"/>
</svg>