<?xml version="1.0" encoding="utf-8"?>
<svg width="479px" height="478px" viewBox="0 0 479 478" version="1.1" xmlns:xlink="http://www.w3.org/1999/xlink" xmlns="http://www.w3.org/2000/svg">
  <defs>
    <path d="M86.0769 0L39.999 0Q39.0171 0 38.0363 0.0481805Q37.0556 0.0963611 36.0784 0.192606Q35.1012 0.288851 34.1299 0.432929Q33.1586 0.577006 32.1956 0.768569Q31.2325 0.960133 30.28 1.19872Q29.3275 1.43731 28.3879 1.72234Q27.4483 2.00738 26.5237 2.33818Q25.5992 2.66898 24.692 3.04474Q23.7849 3.42051 22.8972 3.84033Q22.0096 4.26016 21.1436 4.72303Q20.2776 5.1859 19.4354 5.69071Q18.5932 6.19552 17.7767 6.74105Q16.9603 7.28657 16.1716 7.8715Q15.3829 8.45643 14.6239 9.07935Q13.8649 9.70228 13.1373 10.3617Q12.4098 11.0211 11.7154 11.7154Q11.0211 12.4098 10.3617 13.1373Q9.70228 13.8649 9.07935 14.6239Q8.45643 15.3829 7.8715 16.1716Q7.28657 16.9603 6.74105 17.7767Q6.19552 18.5932 5.69071 19.4354Q5.1859 20.2776 4.72303 21.1436Q4.26016 22.0096 3.84033 22.8972Q3.42051 23.7849 3.04474 24.692Q2.66898 25.5992 2.33818 26.5237Q2.00738 27.4483 1.72234 28.3879Q1.43731 29.3275 1.19872 30.28Q0.960133 31.2325 0.768569 32.1956Q0.577006 33.1586 0.432929 34.1299Q0.288851 35.1012 0.192606 36.0784Q0.0963611 37.0556 0.0481805 38.0363Q0 39.0171 0 39.999L0 407.54Q0 408.521 0.0481805 409.502Q0.0963611 410.483 0.192606 411.46Q0.288851 412.437 0.432929 413.409Q0.577006 414.38 0.768569 415.343Q0.960133 416.306 1.19872 417.258Q1.43731 418.211 1.72234 419.151Q2.00738 420.09 2.33818 421.015Q2.66898 421.939 3.04474 422.846Q3.42051 423.754 3.84033 424.641Q4.26016 425.529 4.72303 426.395Q5.1859 427.261 5.69071 428.103Q6.19552 428.945 6.74105 429.762Q7.28657 430.578 7.8715 431.367Q8.45643 432.156 9.07935 432.915Q9.70228 433.674 10.3617 434.401Q11.0211 435.129 11.7154 435.823Q12.4098 436.517 13.1373 437.177Q13.8649 437.836 14.6239 438.459Q15.3829 439.082 16.1716 439.667Q16.9603 440.252 17.7767 440.797Q18.5932 441.343 19.4354 441.848Q20.2776 442.353 21.1436 442.815Q22.0096 443.278 22.8972 443.698Q23.7849 444.118 24.692 444.494Q25.5992 444.87 26.5237 445.2Q27.4483 445.531 28.3879 445.816Q29.3275 446.101 30.28 446.34Q31.2325 446.578 32.1956 446.77Q33.1586 446.961 34.1299 447.106Q35.1012 447.25 36.0784 447.346Q37.0556 447.442 38.0363 447.49Q39.0171 447.539 39.999 447.539L86.1415 447.539" id="path_1" />
    <path d="M86.1413 0L39.999 0Q39.0171 0 38.0363 0.0481805Q37.0556 0.0963611 36.0784 0.192606Q35.1012 0.288851 34.1299 0.432929Q33.1586 0.577006 32.1956 0.768569Q31.2325 0.960133 30.28 1.19872Q29.3275 1.43731 28.3879 1.72234Q27.4483 2.00738 26.5237 2.33818Q25.5992 2.66898 24.692 3.04474Q23.7849 3.42051 22.8972 3.84033Q22.0096 4.26016 21.1436 4.72303Q20.2776 5.1859 19.4354 5.69071Q18.5932 6.19552 17.7767 6.74105Q16.9603 7.28657 16.1716 7.8715Q15.3829 8.45643 14.6239 9.07935Q13.8649 9.70228 13.1373 10.3617Q12.4098 11.0211 11.7154 11.7154Q11.0211 12.4098 10.3617 13.1373Q9.70228 13.8649 9.07935 14.6239Q8.45643 15.3829 7.8715 16.1716Q7.28657 16.9603 6.74105 17.7767Q6.19552 18.5932 5.69071 19.4354Q5.1859 20.2776 4.72303 21.1436Q4.26016 22.0096 3.84033 22.8972Q3.42051 23.7849 3.04474 24.692Q2.66898 25.5992 2.33818 26.5237Q2.00738 27.4483 1.72234 28.3879Q1.43731 29.3275 1.19872 30.28Q0.960133 31.2325 0.768569 32.1956Q0.577006 33.1586 0.432929 34.1299Q0.288851 35.1012 0.192606 36.0784Q0.0963611 37.0556 0.0481805 38.0363Q0 39.0171 0 39.999L0 407.08Q0 408.062 0.0481805 409.043Q0.0963611 410.024 0.192606 411.001Q0.288851 411.978 0.432929 412.949Q0.577006 413.921 0.768569 414.884Q0.960133 415.847 1.19872 416.799Q1.43731 417.752 1.72234 418.691Q2.00738 419.631 2.33818 420.555Q2.66898 421.48 3.04474 422.387Q3.42051 423.294 3.84033 424.182Q4.26016 425.07 4.72303 425.936Q5.1859 426.802 5.69071 427.644Q6.19552 428.486 6.74105 429.302Q7.28657 430.119 7.8715 430.908Q8.45643 431.696 9.07935 432.455Q9.70228 433.214 10.3617 433.942Q11.0211 434.669 11.7154 435.364Q12.4098 436.058 13.1373 436.717Q13.8649 437.377 14.6239 438Q15.3829 438.623 16.1716 439.208Q16.9603 439.793 17.7767 440.338Q18.5932 440.884 19.4354 441.388Q20.2776 441.893 21.1436 442.356Q22.0096 442.819 22.8972 443.239Q23.7849 443.659 24.692 444.034Q25.5992 444.41 26.5237 444.741Q27.4483 445.072 28.3879 445.357Q29.3275 445.642 30.28 445.88Q31.2325 446.119 32.1956 446.311Q33.1586 446.502 34.1299 446.646Q35.1012 446.79 36.0784 446.887Q37.0556 446.983 38.0363 447.031Q39.0171 447.079 39.999 447.079L86.1415 447.079" transform="matrix(-1 0 0 1 448.00006 0.041934967)" id="path_2" />
    <clipPath id="clip_1">
      <use xlink:href="#path_1" />
    </clipPath>
    <clipPath id="clip_2">
      <use xlink:href="#path_2" />
    </clipPath>
  </defs>
  <g id="Group" transform="translate(15 15)">
    <g id="Shape-path">
      <g clip-path="url(#clip_1)">
        <use xlink:href="#path_1" fill="none" stroke="#000000" stroke-width="60" stroke-linecap="round" stroke-linejoin="round" />
      </g>
    </g>
    <g id="Shape-path">
      <g clip-path="url(#clip_2)">
        <use xlink:href="#path_2" fill="none" stroke="#000000" stroke-width="60" stroke-linecap="round" stroke-linejoin="round" />
      </g>
    </g>
    <path d="M0 313.3L1 0L0 313.3Z" transform="translate(74 66.3)" id="Shape-path" fill="none" fill-rule="evenodd" stroke="#000000" stroke-width="30" stroke-linecap="round" stroke-linejoin="round" />
    <path d="M0 313.3L1 0L0 313.3Z" transform="translate(370 68.3)" id="Shape-path" fill="none" fill-rule="evenodd" stroke="#000000" stroke-width="30" stroke-linecap="round" stroke-linejoin="round" />
    <path d="M0 313.3L1 0L0 313.3Z" transform="translate(296 66.3)" id="Shape-path" fill="none" fill-rule="evenodd" stroke="#000000" stroke-width="30" stroke-linecap="round" stroke-linejoin="round" />
    <path d="M0 313.3L1 0L0 313.3Z" transform="translate(222 66.3)" id="Shape-path" fill="none" fill-rule="evenodd" stroke="#000000" stroke-width="30" stroke-linecap="round" stroke-linejoin="round" />
    <path d="M0 313.3L1 0L0 313.3Z" transform="translate(148 67.2)" id="Shape-path" fill="none" fill-rule="evenodd" stroke="#000000" stroke-width="30" stroke-linecap="round" stroke-linejoin="round" />
  </g>
</svg>