<?xml version="1.0" encoding="utf-8"?>
<svg width="210px" height="210px" viewBox="0 0 210 210" version="1.1" xmlns:xlink="http://www.w3.org/1999/xlink" xmlns="http://www.w3.org/2000/svg">
  <defs>
    <path d="M0 100C0 44.7715 44.7715 0 100 0C155.228 0 200 44.7715 200 100C200 155.228 155.228 200 100 200C44.7715 200 0 155.228 0 100L0 100Z" id="path_1" />
    <clipPath id="clip_1">
      <use xlink:href="#path_1" />
    </clipPath>
  </defs>
  <g id="Clock" transform="translate(5 5)">
    <g id="Clock-Body">
      <g clip-path="url(#clip_1)">
        <use xlink:href="#path_1" fill="none" stroke="#000000" stroke-width="20" />
      </g>
    </g>
    <g id="Hands" transform="translate(99 35)">
      <path d="M1 65L1 0" id="Hour" fill="none" fill-rule="evenodd" stroke="#000000" stroke-width="10" stroke-linecap="square" />
      <path d="M0 1L50 1" transform="translate(1 64)" id="Minute" fill="none" fill-rule="evenodd" stroke="#000000" stroke-width="10" stroke-linecap="square" />
    </g>
    <path d="M0 2.5C0 1.11929 1.11929 0 2.5 0C3.88071 0 5 1.11929 5 2.5C5 3.88071 3.88071 5 2.5 5C1.11929 5 0 3.88071 0 2.5L0 2.5Z" transform="translate(97.5 20)" id="12" fill="#000000" fill-rule="evenodd" stroke="none" />
    <path d="M0 2.5C0 1.11929 1.11929 0 2.5 0C3.88071 0 5 1.11929 5 2.5C5 3.88071 3.88071 5 2.5 5C1.11929 5 0 3.88071 0 2.5L0 2.5Z" transform="translate(175 97.5)" id="3" fill="#000000" fill-rule="evenodd" stroke="none" />
    <path d="M0 2.5C0 1.11929 1.11929 0 2.5 0C3.88071 0 5 1.11929 5 2.5C5 3.88071 3.88071 5 2.5 5C1.11929 5 0 3.88071 0 2.5L0 2.5Z" transform="translate(97.5 175)" id="6" fill="#000000" fill-rule="evenodd" stroke="none" />
    <path d="M0 2.5C0 1.11929 1.11929 0 2.5 0C3.88071 0 5 1.11929 5 2.5C5 3.88071 3.88071 5 2.5 5C1.11929 5 0 3.88071 0 2.5L0 2.5Z" transform="translate(20 97.5)" id="9" fill="#000000" fill-rule="evenodd" stroke="none" />
  </g>
</svg>