<?xml version="1.0" encoding="utf-8"?>
<svg width="513px" height="513px" viewBox="0 0 513 513" version="1.1" xmlns:xlink="http://www.w3.org/1999/xlink" xmlns="http://www.w3.org/2000/svg">
  <defs>
    <filter filterUnits="userSpaceOnUse" color-interpolation-filters="sRGB" id="filter_1">
      <feFlood flood-opacity="0" result="BackgroundImageFix" />
      <feColorMatrix in="SourceAlpha" type="matrix" values="0 0 0 0 0 0 0 0 0 0 0 0 0 0 0 0 0 0 127 0" />
      <feMorphology radius="10" operator="dilate" in="SourceAlpha" result="effect0_dropShadow" />
      <feOffset dx="-5" dy="5" />
      <feGaussianBlur stdDeviation="15" />
      <feColorMatrix type="matrix" values="0 0 0 0 0.39215687 0 0 0 0 0.39215687 0 0 0 0 0.39215687 0 0 0 0.49803922 0" />
      <feBlend mode="normal" in2="BackgroundImageFix" result="effect0_dropShadow" />
      <feBlend mode="normal" in="SourceGraphic" in2="effect0_dropShadow" result="shape" />
    </filter>
    <path d="M0 256C0 114.615 114.615 0 256 0C397.385 0 512 114.615 512 256C512 397.385 397.385 512 256 512C114.615 512 0 397.385 0 256Z" id="path_1" />
    <path d="M0 256C0 114.615 114.608 0 255.984 0C397.361 0 511.969 114.615 511.969 256C511.969 397.385 397.361 512 255.984 512C114.608 512 0 397.385 0 256Z" transform="translate(6.1035156E-05 9.766625E-05)" id="path_2" />
    <path d="M0 256.002C0 114.616 114.614 4.54747e-12 255.997 0C397.38 4.76939e-09 511.994 114.616 511.994 256.002C511.995 397.387 397.381 512.003 255.997 512.003C114.614 512.003 0 397.387 0 256.002Z" transform="matrix(-4.371139E-08 -1 1 -4.371139E-08 2.2888184E-05 511.99435)" id="path_3" />
    <path d="M0 241.509C0 108.127 108.121 0 241.495 0C374.869 0 482.989 108.127 482.989 241.509C482.989 374.891 374.869 483.019 241.495 483.019C108.121 483.019 0 374.891 0 241.509Z" transform="translate(14.489727 14.49072)" id="path_4" />
    <path d="M439.471 102.929C362.832 -6.23395 212.294 -32.8001 102.971 43.6784C-6.35063 120.157 -32.7554 270.86 43.7218 380.023C120.199 489.186 270.738 515.752 380.06 439.273C489.383 362.956 515.948 212.253 439.471 102.929C439.471 103.09 439.471 102.929 439.471 102.929L439.471 102.929Z" transform="matrix(-4.371139E-08 1 -1 -4.371139E-08 497.45044 14.347243)" id="path_5" />
    <path d="M0 227.019C0 101.64 101.634 0 227.005 0C352.376 0 454.01 101.64 454.01 227.019C454.01 352.398 352.376 454.038 227.005 454.038C101.634 454.038 0 352.398 0 227.019Z" transform="translate(28.979416 28.981264)" id="path_6" />
    <path d="M451.359 262.54C471.002 138.725 386.473 22.4778 262.66 2.83486C138.847 -16.808 22.4394 67.7209 2.79663 191.536C-16.685 315.35 67.6815 431.598 191.496 451.241L191.496 451.241C315.47 470.884 431.716 386.355 451.359 262.54L451.359 262.54L451.359 262.54Z" transform="matrix(-4.371139E-08 -1 1 -4.371139E-08 28.98436 483.01385)" id="path_7" />
    <path d="M0 209.308C0 93.7105 93.7048 0 209.295 0C324.886 0 418.591 93.7105 418.591 209.308C418.591 324.906 324.886 418.616 209.295 418.616C93.7048 418.616 0 324.906 0 209.308Z" transform="translate(46.689026 46.69192)" id="path_8" />
    <path d="M0 209.31C3.8147e-06 93.7111 93.7094 0 209.306 0C324.902 -3.05176e-05 418.612 93.7106 418.612 209.31C418.612 324.908 324.902 418.619 209.306 418.619C93.7094 418.619 7.62939e-06 324.908 0 209.31Z" transform="matrix(-4.371139E-08 1 -1 -4.371139E-08 465.31015 46.69175)" id="path_9" />
    <clipPath id="clip_1">
      <use xlink:href="#path_2" />
    </clipPath>
    <clipPath id="clip_2">
      <use xlink:href="#path_3" />
    </clipPath>
    <clipPath id="clip_3">
      <use xlink:href="#path_4" />
    </clipPath>
    <clipPath id="clip_4">
      <use xlink:href="#path_5" />
    </clipPath>
    <clipPath id="clip_5">
      <use xlink:href="#path_6" />
    </clipPath>
    <clipPath id="clip_6">
      <use xlink:href="#path_7" />
    </clipPath>
    <clipPath id="clip_7">
      <use xlink:href="#path_8" />
    </clipPath>
    <clipPath id="clip_8">
      <use xlink:href="#path_9" />
    </clipPath>
    <clipPath id="mask_1">
      <use xlink:href="#path_1" />
    </clipPath>
  </defs>
  <g id="Logo-Mask" transform="translate(0.5 0.5)">
    <path d="M0 256C0 114.615 114.615 0 256 0C397.385 0 512 114.615 512 256C512 397.385 397.385 512 256 512C114.615 512 0 397.385 0 256Z" id="Mask" fill="#FFFFFF" fill-rule="evenodd" stroke="none" />
    <g clip-path="url(#mask_1)">
      <g id="Logo">
        <path d="M0 256C0 114.615 114.614 0 255.996 0C397.379 0 511.993 114.615 511.993 256C511.993 397.385 397.379 512 255.996 512C114.614 512 0 397.385 0 256Z" id="Background" fill="#FFFFFF" fill-rule="evenodd" stroke="none" />
        <g id="Green-Solid">
          <g clip-path="url(#clip_1)">
            <use xlink:href="#path_2" fill="none" stroke="#78AFA0" stroke-width="8" stroke-dasharray="76 4 70 76 4 70" />
          </g>
        </g>
        <g id="Green-Transparent">
          <g clip-path="url(#clip_2)">
            <use xlink:href="#path_3" fill="none" stroke="#78AFA0" stroke-opacity="0.28" stroke-width="8" stroke-dasharray="46 2 12 46 2 12" />
          </g>
        </g>
        <g id="Yellow-Solid">
          <g clip-path="url(#clip_3)">
            <use xlink:href="#path_4" fill="none" stroke="#DDA131" stroke-width="16" stroke-dasharray="76 2 40 180" />
          </g>
        </g>
        <g id="Yellow-Transparent">
          <g clip-path="url(#clip_4)">
            <use xlink:href="#path_5" fill="none" stroke="#DDA131" stroke-opacity="0.69" stroke-width="16" stroke-dasharray="56 2 4 56 2 4" />
          </g>
        </g>
        <g id="Orange-Solid">
          <g clip-path="url(#clip_5)">
            <use xlink:href="#path_6" fill="none" stroke="#D36F2B" stroke-width="8" stroke-dasharray="51 4 10 80" />
          </g>
        </g>
        <g id="Orange-Transparent">
          <g clip-path="url(#clip_6)">
            <use xlink:href="#path_7" fill="none" stroke="#D36F2B" stroke-opacity="0.44" stroke-width="8" stroke-dasharray="140 4 10 80" />
          </g>
        </g>
        <g id="Red-Solid">
          <g clip-path="url(#clip_7)">
            <use xlink:href="#path_8" fill="none" stroke="#C24127" stroke-width="4" stroke-dasharray="35 7 10 80" />
          </g>
        </g>
        <g id="Red-Transparent">
          <g clip-path="url(#clip_8)">
            <use xlink:href="#path_9" fill="none" stroke="#C24127" stroke-opacity="0.28" stroke-width="4" stroke-dasharray="35 7 10 80" />
          </g>
        </g>
        <path d="M7.48965 371.947L31.6641 385.928L31.6641 75.0084Q31.6641 74.55 31.6921 74.0924Q31.7201 73.6348 31.776 73.1798Q31.8318 72.7248 31.9154 72.274Q31.999 71.8233 32.1099 71.3784Q32.2209 70.9336 32.3588 70.4964Q32.4967 70.0592 32.6611 69.6313Q32.8254 69.2033 33.0156 68.7862Q33.2058 68.369 33.4211 67.9643Q33.6364 67.5596 33.876 67.1687Q34.1156 66.7779 34.3787 66.4024Q34.6417 66.027 34.9272 65.6683Q35.2126 65.3095 35.5195 64.9689Q35.8264 64.6283 36.1534 64.3071Q36.4805 63.9859 36.8266 63.6853Q37.1727 63.3846 37.5365 63.1057Q37.9003 62.8267 38.2805 62.5705L65.3311 44.3396Q65.5705 44.1782 65.8159 44.0262Q66.0613 43.8742 66.3124 43.7318Q66.5635 43.5893 66.8199 43.4566Q67.0762 43.324 67.3375 43.2013Q67.5988 43.0785 67.8646 42.966Q68.1305 42.8534 68.4004 42.7511Q68.6703 42.6489 68.944 42.5571Q69.2177 42.4653 69.4948 42.3841Q69.7718 42.3029 70.0517 42.2324Q70.3316 42.1619 70.6141 42.1023Q70.8965 42.0426 71.181 41.9939Q71.4656 41.9451 71.7518 41.9074Q72.0379 41.8696 72.3254 41.8429Q72.6128 41.8162 72.9011 41.8005Q73.1893 41.7849 73.4779 41.7803Q73.7666 41.7758 74.0552 41.7824Q74.3438 41.7889 74.6319 41.8066Q74.92 41.8243 75.2073 41.853Q75.4945 41.8818 75.7804 41.9215Q76.0663 41.9613 76.3505 42.0121Q76.6347 42.0628 76.9167 42.1245Q77.1987 42.1861 77.4781 42.2585Q77.7576 42.331 78.034 42.4141Q78.3104 42.4973 78.5835 42.591Q78.8565 42.6847 79.1257 42.7889Q79.395 42.8931 79.66 43.0075Q79.925 43.1219 80.1854 43.2465Q80.4458 43.3711 80.7013 43.5055Q80.9567 43.64 81.2068 43.7842Q81.4568 43.9284 81.7012 44.0822Q81.9455 44.2359 82.1837 44.3989Q82.422 44.5619 82.6538 44.734L165.246 106.043Q165.599 106.305 165.935 106.587Q166.272 106.868 166.591 107.169Q166.91 107.47 167.212 107.789Q167.513 108.108 167.795 108.444Q168.077 108.78 168.339 109.132Q168.601 109.484 168.842 109.851Q169.083 110.218 169.302 110.598Q169.521 110.978 169.718 111.37Q169.914 111.763 170.087 112.166Q170.26 112.569 170.41 112.982Q170.559 113.394 170.684 113.815Q170.809 114.235 170.909 114.663Q171.009 115.09 171.084 115.522Q171.159 115.955 171.209 116.39Q171.259 116.826 171.283 117.265Q171.307 117.703 171.305 118.142Q171.304 118.58 171.276 119.018Q171.249 119.456 171.196 119.892Q171.144 120.327 171.065 120.759Q170.987 121.191 170.884 121.617Q170.781 122.044 170.653 122.464Q170.525 122.883 170.372 123.295Q170.22 123.706 170.044 124.108Q169.868 124.51 169.668 124.901Q169.469 125.292 169.247 125.67Q169.025 126.049 168.782 126.414Q168.538 126.779 168.273 127.129Q168.009 127.479 167.724 127.813Q167.44 128.147 167.136 128.464Q166.833 128.781 166.511 129.079Q166.19 129.378 165.851 129.657Q165.513 129.936 165.158 130.195L46.2455 217.129L61.6606 236.949L202.458 137.901Q203.059 137.478 203.635 137.021Q204.21 136.563 204.758 136.073Q205.305 135.582 205.823 135.06Q206.34 134.538 206.826 133.987Q207.313 133.436 207.765 132.857Q208.218 132.278 208.636 131.673Q209.054 131.068 209.436 130.44Q209.818 129.812 210.162 129.163Q210.507 128.513 210.812 127.844Q211.118 127.176 211.383 126.491Q211.649 125.805 211.874 125.105Q212.099 124.406 212.282 123.694Q212.466 122.982 212.607 122.261Q212.749 121.539 212.847 120.811Q212.946 120.082 213.002 119.349Q213.057 118.616 213.07 117.881Q213.082 117.146 213.052 116.412Q213.021 115.678 212.947 114.946Q212.874 114.215 212.757 113.489Q212.64 112.763 212.481 112.046Q212.322 111.328 212.121 110.621Q211.92 109.914 211.678 109.22Q211.436 108.526 211.154 107.847Q210.871 107.169 210.549 106.508Q210.227 105.847 209.867 105.206Q209.507 104.565 209.11 103.947Q208.713 103.328 208.28 102.734Q207.847 102.14 207.38 101.572Q206.913 101.005 206.413 100.465Q205.914 99.9261 205.383 99.4171Q204.853 98.9082 204.294 98.4313Q203.734 97.9544 203.148 97.5111L82.9039 6.62985Q82.6673 6.45105 82.4239 6.28174Q82.1804 6.11242 81.9305 5.95287Q81.6805 5.79331 81.4244 5.64375Q81.1684 5.4942 80.9066 5.35489Q80.6448 5.21557 80.3777 5.08671Q80.1106 4.95785 79.8387 4.83965Q79.5667 4.72145 79.2903 4.61409Q79.0138 4.50673 78.7334 4.41038Q78.4529 4.31403 78.1689 4.22884Q77.8848 4.14365 77.5977 4.06976Q77.3105 3.99586 77.0206 3.93338Q76.7307 3.87089 76.4386 3.81991Q76.1464 3.76894 75.8525 3.72954Q75.5586 3.69015 75.2634 3.66241Q74.9681 3.63466 74.672 3.61861Q74.3759 3.60256 74.0794 3.59822Q73.7829 3.59389 73.4864 3.60127Q73.19 3.60866 72.894 3.62776Q72.5981 3.64686 72.3032 3.67764Q72.0082 3.70842 71.7147 3.75084Q71.4212 3.79325 71.1297 3.84724Q70.8381 3.90122 70.5489 3.96669Q70.2596 4.03215 69.9732 4.109Q69.6868 4.18585 69.4036 4.27395Q69.1205 4.36206 68.841 4.46129Q68.5616 4.56052 68.2863 4.67072Q68.011 4.78092 67.7402 4.90192Q67.4695 5.02291 67.2038 5.15451Q66.938 5.28611 66.6777 5.42812Q66.4174 5.57012 66.1628 5.7223Q65.9083 5.87448 65.66 6.0366Q65.4117 6.19873 65.17 6.37054L6.30893 48.2113Q5.94481 48.4701 5.59674 48.7502Q5.24866 49.0302 4.91788 49.3305Q4.58709 49.6308 4.27476 49.9502Q3.96243 50.2696 3.66966 50.607Q3.3769 50.9445 3.10474 51.2988Q2.83257 51.653 2.58198 52.0229Q2.33138 52.3927 2.10324 52.7768Q1.8751 53.1609 1.67023 53.5579Q1.46535 53.9549 1.28447 54.3634Q1.10358 54.7719 0.947333 55.1904Q0.791081 55.6089 0.660016 56.036Q0.528951 56.4631 0.423537 56.8972Q0.318122 57.3313 0.238733 57.771Q0.159344 58.2106 0.106261 58.6542Q0.0531774 59.0977 0.0265887 59.5437Q0 59.9897 0 60.4364L0 358.963Q0 359.454 0.0320675 359.943Q0.0641351 360.433 0.128133 360.919Q0.192131 361.406 0.287786 361.887Q0.38344 362.368 0.510343 362.842Q0.637245 363.316 0.794853 363.781Q0.95246 364.245 1.1401 364.699Q1.32774 365.152 1.54461 365.592Q1.76147 366.033 2.00664 366.457Q2.25181 366.883 2.52423 367.291Q2.79666 367.699 3.09517 368.088Q3.39368 368.478 3.717 368.847Q4.04032 369.216 4.38707 369.563Q4.73383 369.91 5.10252 370.234Q5.47122 370.557 5.86029 370.856Q6.24936 371.155 6.65714 371.428Q7.06491 371.701 7.48965 371.947L7.48965 371.947Z" transform="translate(184.31741 64.000015)" id="P---Outer" fill="#FFFFFF" fill-rule="evenodd" stroke="#231F20" stroke-width="1" filter="url(#filter_1)" />
        <path d="M25.3042 336.069L0 352.319L0 40.7029Q0 40.2791 0.0239375 39.8559Q0.047875 39.4327 0.0956737 39.0115Q0.143472 38.5904 0.214979 38.1726Q0.286487 37.7548 0.381474 37.3417Q0.476462 36.9286 0.594626 36.5215Q0.712791 36.1145 0.853755 35.7147Q0.99472 35.315 1.15803 34.9239Q1.32135 34.5327 1.50649 34.1514Q1.69164 33.7701 1.89802 33.3999Q2.1044 33.0297 2.33136 32.6717Q2.55832 32.3137 2.80513 31.9691Q3.05195 31.6245 3.31783 31.2944Q3.58371 30.9643 3.86781 30.6497Q4.15191 30.3352 4.45332 30.0372Q4.75473 29.7391 5.07249 29.4586Q5.39025 29.1781 5.72335 28.916L33.5098 7.04962Q33.7492 6.86122 33.9961 6.6827Q34.243 6.50417 34.4969 6.33582Q34.7508 6.16746 35.0113 6.00956Q35.2718 5.85165 35.5386 5.70446Q35.8053 5.55726 36.0778 5.42102Q36.3503 5.28478 36.6281 5.15971Q36.9059 5.03465 37.1885 4.92096Q37.4712 4.80728 37.7582 4.70517Q38.0452 4.60306 38.3362 4.51269Q38.6271 4.42231 38.9215 4.34383Q39.2159 4.26535 39.5132 4.19888Q39.8105 4.13242 40.1103 4.07808Q40.41 4.02374 40.7117 3.98162Q41.0135 3.9395 41.3167 3.90967Q41.6199 3.87983 41.924 3.86234Q42.2281 3.84484 42.5328 3.83971Q42.8374 3.83457 43.1419 3.84181Q43.4465 3.84905 43.7505 3.86866Q44.0545 3.88826 44.3575 3.92019Q44.6605 3.95212 44.9619 3.99633Q45.2633 4.04053 45.5627 4.09694Q45.8621 4.15335 46.159 4.22188Q46.4558 4.2904 46.7496 4.37091Q47.0434 4.45143 47.3338 4.54382Q47.6241 4.6362 47.9104 4.74029Q48.1967 4.84439 48.4786 4.96002Q48.7604 5.07566 49.0373 5.20264Q49.3143 5.32963 49.5858 5.46775Q49.8573 5.60588 50.1231 5.75492Q50.3888 5.90395 50.6482 6.06366Q50.9076 6.22336 51.1604 6.39347Q51.4131 6.56358 51.6587 6.7438L146.437 76.2891Q146.677 76.4648 146.905 76.6545Q147.134 76.8441 147.351 77.047Q147.568 77.2499 147.773 77.4654Q147.977 77.6808 148.169 77.908Q148.36 78.1352 148.538 78.3733Q148.715 78.6115 148.878 78.8598Q149.042 79.1081 149.19 79.3656Q149.338 79.6231 149.47 79.889Q149.603 80.1548 149.719 80.4281Q149.836 80.7014 149.936 80.9811Q150.036 81.2608 150.12 81.546Q150.203 81.8311 150.269 82.1207Q150.335 82.4103 150.384 82.7033Q150.433 82.9964 150.465 83.2918Q150.496 83.5872 150.51 83.884Q150.524 84.1807 150.52 84.4778Q150.516 84.7748 150.495 85.0711Q150.474 85.3675 150.435 85.662Q150.396 85.9565 150.339 86.2482Q150.283 86.5399 150.209 86.8277Q150.136 87.1155 150.045 87.3984Q149.955 87.6814 149.847 87.9585Q149.74 88.2355 149.617 88.5057Q149.493 88.776 149.354 89.0384Q149.215 89.3008 149.06 89.5545Q148.905 89.8082 148.736 90.0522Q148.567 90.2962 148.383 90.5298Q148.199 90.7634 148.002 90.9856Q147.805 91.2079 147.595 91.418Q147.385 91.6282 147.163 91.8255Q146.941 92.0228 146.708 92.2066Q146.474 92.3904 146.23 92.56L14.9426 183.851L32.4279 140.234L109.282 88.9044Q109.412 88.8175 109.536 88.7226Q109.661 88.6278 109.779 88.5253Q109.897 88.4229 110.009 88.3132Q110.12 88.2036 110.225 88.0872Q110.329 87.9708 110.426 87.8481Q110.523 87.7253 110.613 87.5968Q110.702 87.4683 110.783 87.3344Q110.864 87.2005 110.936 87.0619Q111.009 86.9232 111.072 86.7803Q111.136 86.6373 111.19 86.4907Q111.245 86.3441 111.29 86.1943Q111.335 86.0446 111.371 85.8923Q111.407 85.74 111.433 85.5857Q111.46 85.4315 111.476 85.2759Q111.493 85.1204 111.499 84.9641Q111.506 84.8078 111.503 84.6513Q111.5 84.4949 111.487 84.339Q111.475 84.1831 111.452 84.0282Q111.43 83.8734 111.398 83.7203Q111.365 83.5672 111.324 83.4164Q111.282 83.2656 111.231 83.1177Q111.18 82.9698 111.12 82.8254Q111.06 82.6809 110.991 82.5405Q110.922 82.4002 110.844 82.2644Q110.766 82.1286 110.68 81.9979Q110.594 81.8673 110.5 81.7422Q110.406 81.6172 110.304 81.4983Q110.203 81.3794 110.094 81.2671Q109.985 81.1548 109.869 81.0495Q109.753 80.9442 109.631 80.8464Q109.509 80.7486 109.381 80.6585Q109.253 80.5685 109.12 80.4867L40.0061 38.0708Q39.8651 37.9842 39.7187 37.9072Q39.5723 37.8302 39.4211 37.763Q39.2699 37.6959 39.1146 37.6388Q38.9593 37.5818 38.8006 37.5352Q38.6419 37.4885 38.4804 37.4525Q38.319 37.4164 38.1555 37.3911Q37.992 37.3659 37.8272 37.3514Q37.6624 37.337 37.497 37.3335Q37.3316 37.33 37.1663 37.3375Q37.001 37.3449 36.8366 37.3633Q36.6722 37.3816 36.5093 37.4108Q36.3465 37.44 36.186 37.4799Q36.0254 37.5198 35.8678 37.5702Q35.7103 37.6206 35.5564 37.6814Q35.4025 37.7421 35.2529 37.8129Q35.1034 37.8836 34.9589 37.9641Q34.8143 38.0446 34.6755 38.1345Q34.5366 38.2244 34.4039 38.3232Q34.2713 38.4221 34.1455 38.5295Q34.0196 38.6369 33.9012 38.7525Q33.7828 38.868 33.6722 38.991Q33.5617 39.1141 33.4595 39.2442Q33.3573 39.3744 33.264 39.511Q33.1706 39.6475 33.0865 39.79Q33.0024 39.9325 32.9279 40.0802Q32.8534 40.2279 32.7889 40.3802Q32.7243 40.5325 32.6699 40.6888Q32.6156 40.845 32.5717 41.0045Q32.5277 41.164 32.4945 41.3261Q32.4612 41.4881 32.4387 41.652Q32.4162 41.8159 32.4046 41.981Q32.393 42.146 32.3924 42.3114L31.9992 140.793L14.9426 183.851L32.1984 202.605L32.1984 323.448Q32.1984 323.917 32.1692 324.385Q32.1399 324.853 32.0814 325.318Q32.023 325.783 31.9356 326.244Q31.8482 326.704 31.7322 327.159Q31.6162 327.613 31.4721 328.059Q31.328 328.505 31.1563 328.941Q30.9845 329.378 30.7859 329.802Q30.5873 330.227 30.3625 330.638Q30.1378 331.05 29.8877 331.447Q29.6377 331.843 29.3634 332.223Q29.0891 332.604 28.7916 332.966Q28.4941 333.328 28.1745 333.671Q27.855 334.014 27.5146 334.337Q27.1742 334.659 26.8144 334.96Q26.4545 335.26 26.0766 335.538Q25.6987 335.815 25.3042 336.069Z" transform="translate(215.98181 97.60996)" id="P---Inner" fill="#E3E3E3" fill-rule="evenodd" stroke="#231F20" stroke-width="1" />
      </g>
    </g>
  </g>
</svg>