<?xml version="1.0" encoding="utf-8"?>
<svg width="200px" height="120px" viewBox="0 0 200 120" version="1.1" xmlns:xlink="http://www.w3.org/1999/xlink" xmlns="http://www.w3.org/2000/svg">
  <g id="Group">
    <path d="M19.999 0L180.001 0Q180.492 0 180.982 0.0240897Q181.473 0.0481793 181.961 0.0963006Q182.45 0.144422 182.935 0.216459Q183.421 0.288496 183.903 0.384275Q184.384 0.480054 184.86 0.599345Q185.337 0.718635 185.806 0.86115Q186.276 1.00366 186.738 1.16906Q187.201 1.33446 187.654 1.52233Q188.108 1.71021 188.552 1.92012Q188.995 2.13003 189.428 2.36146Q189.861 2.59289 190.283 2.84529Q190.704 3.09768 191.112 3.37044Q191.52 3.64319 191.914 3.93565Q192.309 4.22811 192.688 4.53956Q193.068 4.85102 193.431 5.18072Q193.795 5.51042 194.142 5.85757Q194.49 6.20472 194.819 6.56849Q195.149 6.93226 195.46 7.31177Q195.772 7.69128 196.064 8.08561Q196.357 8.47994 196.63 8.88815Q196.902 9.29636 197.155 9.71746Q197.407 10.1386 197.639 10.5715Q197.87 11.0045 198.08 11.4483Q198.29 11.8921 198.478 12.3457Q198.666 12.7993 198.831 13.2615Q198.996 13.7238 199.139 14.1936Q199.281 14.6634 199.401 15.1396Q199.52 15.6159 199.616 16.0974Q199.711 16.5789 199.784 17.0645Q199.856 17.5502 199.904 18.0388Q199.952 18.5273 199.976 19.0177Q200 19.5081 200 19.999L200 60.001Q200 60.492 199.976 60.9823Q199.952 61.4727 199.904 61.9612Q199.856 62.4498 199.784 62.9355Q199.711 63.4211 199.616 63.9026Q199.52 64.3841 199.401 64.8604Q199.281 65.3366 199.139 65.8064Q198.996 66.2762 198.831 66.7384Q198.666 67.2007 198.478 67.6543Q198.29 68.1078 198.08 68.5517Q197.87 68.9955 197.639 69.4285Q197.407 69.8614 197.155 70.2825Q196.902 70.7036 196.63 71.1118Q196.357 71.5201 196.064 71.9144Q195.772 72.3087 195.46 72.6882Q195.149 73.0677 194.819 73.4315Q194.49 73.7953 194.142 74.1424Q193.795 74.4896 193.431 74.8193Q193.068 75.149 192.688 75.4604Q192.309 75.7719 191.914 76.0643Q191.52 76.3568 191.112 76.6295Q190.704 76.9023 190.283 77.1547Q189.861 77.4071 189.428 77.6385Q188.995 77.87 188.552 78.0799Q188.108 78.2898 187.654 78.4777Q187.201 78.6655 186.738 78.8309Q186.276 78.9963 185.806 79.1388Q185.337 79.2813 184.86 79.4006Q184.384 79.5199 183.903 79.6157Q183.421 79.7115 182.935 79.7835Q182.45 79.8556 181.961 79.9037Q181.473 79.9518 180.982 79.9759Q180.492 80 180.001 80L19.999 80Q19.5081 80 19.0177 79.9759Q18.5273 79.9518 18.0388 79.9037Q17.5502 79.8556 17.0645 79.7835Q16.5789 79.7115 16.0974 79.6157Q15.6159 79.5199 15.1396 79.4007Q14.6634 79.2813 14.1936 79.1388Q13.7238 78.9963 13.2615 78.8309Q12.7993 78.6655 12.3457 78.4777Q11.8921 78.2898 11.4483 78.0799Q11.0045 77.87 10.5715 77.6385Q10.1386 77.4071 9.71746 77.1547Q9.29636 76.9023 8.88815 76.6295Q8.47994 76.3568 8.08561 76.0643Q7.69128 75.7719 7.31177 75.4604Q6.93226 75.149 6.56849 74.8193Q6.20472 74.4896 5.85757 74.1424Q5.51042 73.7953 5.18072 73.4315Q4.85102 73.0677 4.53956 72.6882Q4.22811 72.3087 3.93565 71.9144Q3.64319 71.5201 3.37044 71.1118Q3.09768 70.7036 2.84529 70.2825Q2.59289 69.8614 2.36146 69.4285Q2.13003 68.9955 1.92012 68.5517Q1.71021 68.1078 1.52233 67.6543Q1.33446 67.2007 1.16906 66.7384Q1.00366 66.2762 0.86115 65.8064Q0.718635 65.3366 0.599345 64.8604Q0.480054 64.3841 0.384275 63.9026Q0.288496 63.4211 0.216459 62.9355Q0.144422 62.4498 0.0963006 61.9613Q0.0481793 61.4727 0.0240897 60.9823Q0 60.492 0 60.001L0 19.999Q0 19.5081 0.0240897 19.0177Q0.0481793 18.5273 0.0963006 18.0388Q0.144422 17.5502 0.216459 17.0645Q0.288496 16.5789 0.384275 16.0974Q0.480054 15.6159 0.599345 15.1396Q0.718635 14.6634 0.86115 14.1936Q1.00366 13.7238 1.16906 13.2615Q1.33446 12.7993 1.52233 12.3457Q1.71021 11.8921 1.92012 11.4483Q2.13003 11.0045 2.36146 10.5715Q2.59289 10.1386 2.84529 9.71746Q3.09768 9.29636 3.37044 8.88815Q3.64319 8.47994 3.93565 8.08561Q4.22811 7.69128 4.53956 7.31177Q4.85102 6.93226 5.18072 6.56849Q5.51042 6.20472 5.85757 5.85757Q6.20472 5.51042 6.56849 5.18072Q6.93226 4.85102 7.31177 4.53956Q7.69128 4.22811 8.08561 3.93565Q8.47994 3.64319 8.88815 3.37044Q9.29636 3.09768 9.71746 2.84529Q10.1386 2.59289 10.5715 2.36146Q11.0045 2.13003 11.4483 1.92012Q11.8921 1.71021 12.3457 1.52233Q12.7993 1.33446 13.2615 1.16906Q13.7238 1.00366 14.1936 0.86115Q14.6634 0.718635 15.1396 0.599345Q15.6159 0.480054 16.0974 0.384275Q16.5789 0.288496 17.0645 0.216459Q17.5502 0.144422 18.0388 0.0963006Q18.5273 0.0481793 19.0177 0.0240897Q19.5081 0 19.999 0Z" transform="translate(0 40)" id="Rectangle" fill="#8EBCE6" fill-rule="evenodd" stroke="none" />
    <path d="M40 0L80 60L0 60L40 0Z" transform="translate(60 0)" id="Triangle" fill="#8EBCE6" fill-rule="evenodd" stroke="none" />
  </g>
</svg>