<?xml version="1.0" encoding="utf-8"?>
<svg width="512px" height="512px" viewBox="0 0 512 512" version="1.1" xmlns:xlink="http://www.w3.org/1999/xlink" xmlns="http://www.w3.org/2000/svg">
  <defs>
    <path d="M0 0L512 0L512 512L0 512L0 0Z" id="path_1" />
    <path d="M438.392 274L437.922 273.62L406.362 248.87C402.308 245.663 400.039 240.705 400.262 235.54L400.262 223.98C400.059 218.848 402.331 213.931 406.372 210.76L437.922 186L438.392 185.62C448.442 177.248 450.94 162.825 444.292 151.56L401.582 77.66C401.533 77.5903 401.489 77.5167 401.452 77.44C394.774 66.3423 381.128 61.5904 369.002 66.14L368.652 66.27L331.552 81.2C326.802 83.1207 321.417 82.6407 317.082 79.91C313.802 77.8433 310.468 75.89 307.082 74.05C302.629 71.6352 299.589 67.2475 298.892 62.23L293.302 22.64L293.182 21.92C290.674 9.28094 279.647 0.132231 266.762 0L181.242 0C168.155 0.0418777 156.994 9.48956 154.792 22.39L154.702 22.95L149.132 62.62C148.439 67.6222 145.425 72.0038 141.002 74.44C137.582 76.28 134.242 78.23 131.002 80.26C126.674 82.9739 121.307 83.4463 116.572 81.53L79.4418 66.53L79.0918 66.39C66.9472 61.8352 53.2824 66.6061 46.6118 77.73L46.4818 77.95L3.71182 151.9C-2.94662 163.176 -0.44813 177.617 9.61183 186L10.0818 186.38L41.6418 211.13C45.6961 214.337 47.965 219.295 47.7418 224.46L47.7418 236.02C47.945 241.152 45.6722 246.069 41.6318 249.24L10.0818 274L9.61182 274.38C-0.438162 282.752 -2.93662 297.175 3.71182 308.44L46.4218 382.34C46.471 382.41 46.5145 382.483 46.5518 382.56C53.2294 393.658 66.8754 398.41 79.0018 393.86L79.3518 393.73L116.422 378.8C121.172 376.879 126.556 377.359 130.892 380.09C134.172 382.163 137.505 384.117 140.892 385.95C145.345 388.365 148.385 392.752 149.082 397.77L154.642 437.36L154.762 438.08C157.275 450.741 168.334 459.896 181.242 460L266.762 460C279.849 459.958 291.01 450.51 293.212 437.61L293.302 437.05L298.872 397.38C299.576 392.368 302.609 387.984 307.052 385.56C310.472 383.72 313.812 381.77 317.052 379.74C321.38 377.026 326.747 376.554 331.482 378.47L368.612 393.42L368.962 393.56C381.106 398.123 394.777 393.351 401.442 382.22C401.481 382.145 401.525 382.071 401.572 382L444.282 308.11C450.953 296.835 448.458 282.385 438.392 274L438.392 274ZM303.912 233.76C301.882 276.921 265.947 310.671 222.744 309.992C179.541 309.314 144.683 274.452 144.01 231.249C143.336 188.046 177.09 152.115 220.251 150.09C242.73 149.1 264.591 157.597 280.5 173.509C296.409 189.42 304.904 211.281 303.912 233.76L303.912 233.76Z" transform="translate(31.998184 26)" id="path_2" />
    <clipPath id="clip_1">
      <use xlink:href="#path_2" />
    </clipPath>
    <clipPath id="mask_1">
      <use xlink:href="#path_1" />
    </clipPath>
  </defs>
  <g id="settings">
    <path d="M0 0L512 0L512 512L0 512L0 0Z" id="Background" fill="none" fill-rule="evenodd" stroke="none" />
    <g clip-path="url(#mask_1)">
      <g id="Shape">
        <use stroke="none" fill="#000000" fill-opacity="0" xlink:href="#path_2" fill-rule="evenodd" />
        <g clip-path="url(#clip_1)">
          <use xlink:href="#path_2" fill="none" stroke="#000000" stroke-width="60" />
        </g>
      </g>
    </g>
  </g>
</svg>