<?xml version="1.0" encoding="utf-8"?>
<svg width="65px" height="65px" viewBox="0 0 65 65" version="1.1" xmlns:xlink="http://www.w3.org/1999/xlink" xmlns="http://www.w3.org/2000/svg">
  <g id="Pencil" transform="matrix(0.7071076 0.70710665 -0.70710665 0.7071076 29.698471 1.4142141)">
    <path d="M21 0L0 2.86104e-06L0 28" transform="matrix(0.7071068 -0.7071059 0.7071059 0.7071068 0 18.738268)" id="New-shape" fill="none" fill-rule="evenodd" stroke="#323232" stroke-width="2" />
    <path d="M21 0L0 2.86104e-06L0 28" transform="matrix(-0.707105 -0.7071077 -0.7071077 0.707105 47.56128 18.906837)" id="New-shape-2" fill="none" fill-rule="evenodd" stroke="#323232" stroke-width="2" />
    <path d="M0 26.6667L5 40L10 26.6667L10 0L0 0L0 26.6667Z" transform="matrix(0.9999996 -4.21464E-08 4.21464E-08 0.9999996 18.7383 4.9787224E-07)" id="New-shape" fill="none" fill-rule="evenodd" stroke="#323232" stroke-width="2" />
    <path d="M0 1L10 1" transform="matrix(0.9999996 -4.21464E-08 4.21464E-08 0.9999996 18.738293 25.499908)" id="Line" fill="none" fill-rule="evenodd" stroke="#323232" stroke-width="2" stroke-linecap="square" />
  </g>
</svg>