<?xml version="1.0" encoding="utf-8"?>
<svg width="210px" height="210px" viewBox="0 0 210 210" version="1.1" xmlns:xlink="http://www.w3.org/1999/xlink" xmlns="http://www.w3.org/2000/svg">
  <g id="Group" transform="translate(5 5)">
    <path d="M0 100C0 44.7715 44.7715 0 100 0C155.228 0 200 44.7715 200 100C200 155.228 155.228 200 100 200C44.7715 200 0 155.228 0 100Z" id="Ellipse" fill="none" fill-rule="evenodd" stroke="#323232" stroke-width="10" />
    <g id="" transform="translate(58 37)">
      <path d="M32.7841 86.4091L32.7841 85.7954Q32.8864 76.0284 34.8295 70.25Q36.7727 64.4716 40.3523 60.892Q43.9318 57.3125 48.9432 54.2954Q53.4432 51.5852 56.5114 47.1875Q59.5795 42.7898 59.5795 36.7045Q59.5795 29.1875 54.4915 24.7642Q49.4034 20.3409 42.1932 20.3409Q38 20.3409 34.1136 22.0795Q30.2273 23.8182 27.6193 27.5511Q25.0114 31.2841 24.6023 37.3182L11.7159 37.3182Q12.125 28.625 16.2415 22.4375Q20.358 16.25 27.1335 12.9773Q33.9091 9.70454 42.1932 9.70454Q51.1932 9.70454 57.8665 13.2841Q64.5398 16.8636 68.196 23.1023Q71.8523 29.3409 71.8523 37.3182Q71.8523 45.8068 68.0682 51.8409Q64.2841 57.875 57.5341 61.9659Q50.7841 66.1591 47.9972 71.2216Q45.2102 76.2841 45.0568 85.7954L45.0568 86.4091L32.7841 86.4091ZM39.3295 116.682Q35.5454 116.682 32.8352 113.972Q30.125 111.261 30.125 107.477Q30.125 103.693 32.8352 100.983Q35.5454 98.2727 39.3295 98.2727Q43.1136 98.2727 45.8239 100.983Q48.5341 103.693 48.5341 107.477Q48.5341 111.261 45.8239 113.972Q43.1136 116.682 39.3295 116.682Z" />
    </g>
  </g>
</svg>