<?xml version="1.0" encoding="utf-8"?>
<svg width="32px" height="32px" viewBox="0 0 32 32" version="1.1" xmlns:xlink="http://www.w3.org/1999/xlink" xmlns="http://www.w3.org/2000/svg">
  <defs>
    <path d="M8.34615 6.55769C8.34615 4.27591 8.68224 1.96656 9.53846 0C3.84296 2.47925 0 8.29548 0 14.9038C0 23.7932 7.20676 31 16.0962 31C22.7045 31 28.5207 27.157 31 21.4615C29.0334 22.3178 26.7241 22.6538 24.4423 22.6538C15.5529 22.6538 8.34615 15.4471 8.34615 6.55769L8.34615 6.55769L8.34615 6.55769Z" transform="translate(0.5 0.5)" id="path_1" />
    <clipPath id="mask_1">
      <use xlink:href="#path_1" />
    </clipPath>
  </defs>
  <path d="M8.34615 6.55769C8.34615 4.27591 8.68224 1.96656 9.53846 0C3.84296 2.47925 0 8.29548 0 14.9038C0 23.7932 7.20676 31 16.0962 31C22.7045 31 28.5207 27.157 31 21.4615C29.0334 22.3178 26.7241 22.6538 24.4423 22.6538C15.5529 22.6538 8.34615 15.4471 8.34615 6.55769L8.34615 6.55769L8.34615 6.55769Z" transform="translate(0.5 0.5)" id="path_1" fill="none" fill-rule="evenodd" stroke="#323232" stroke-width="1" />
</svg>