<svg width="200" height="200" xmlns:xlink="http://www.w3.org/1999/xlink" xmlns="http://www.w3.org/2000/svg"><defs><clipPath id="d"><use xlink:href="#a"/></clipPath><clipPath id="e"><use xlink:href="#b"/></clipPath><clipPath id="f"><use xlink:href="#c"/></clipPath><path d="M78 68.4h-.4c-.9-.2-1.4-1-1.4-1.8V13.3c0-5.6-3.7-10.6-9-12.5a12 12 0 0 0-13.8 3.7c-6.7 8.3-14.2 16-22.2 23-10.2 8.8-20 15-29 18.7A3.5 3.5 0 0 0 0 49.5v68.7a7 7 0 0 0 4.2 6.5c8.4 3.7 17.4 9.7 26.8 17.8 8 7 15.6 14.8 22.4 23.1 2.2 2.9 5.6 4.5 9.1 4.4 1.5 0 3-.3 4.5-.8a13 13 0 0 0 9.2-12.3v-53.5c0-.9.6-1.6 1.4-1.8h.4A17 17 0 0 0 90 85a17 17 0 0 0-12-16.6Z" transform="translate(110)" id="a"/><path d="M50 81.6V9l-.1-.5V8l-.2-.4-.1-.5-.2-.5-.2-.4q0-.3-.2-.5l-.2-.4-.2-.4-.3-.5L48 4l-.3-.3-.3-.4-.3-.4-.4-.3-.4-.3L46 2l-.4-.3-.5-.3-.4-.2-.4-.2-.5-.2-.4-.2-.5-.2-.5-.1-.4-.1h-.5L41 0H10A10 10 0 0 0 0 10v132.3c0 5.9 4.8 10.7 10.7 10.7h23.4c4.5 0 8.8-2 11.6-5.6 2.9-3.6 3.7-8.5 2.3-13l-2.5-7.6c-3.6-10.2-8.2-16.5-9.5-31 7.8-.1 14-6.5 14-14.2Z" transform="translate(45 47)" id="b"/><path d="M7.5 17v.3c0 1.8-.7 3.5-2 4.9A22.7 22.7 0 0 0 0 38a23 23 0 0 0 5.5 15.7 8 8 0 0 1 2 5.3c0 7.7 6.7 14 15 14H30V0h-7.5c-8.3 0-15 9.3-15 17Z" transform="translate(0 47)" id="c"/></defs><g clip-path="url(#d)"><use xlink:href="#a" fill="none" stroke="#323232" stroke-width="20"/></g><g clip-path="url(#e)"><use xlink:href="#b" fill="none" stroke="#323232" stroke-width="20"/></g><g clip-path="url(#f)"><use xlink:href="#c" fill="none" stroke="#323232" stroke-width="20"/></g></svg>