<svg width="210" height="210" xmlns:xlink="http://www.w3.org/1999/xlink" xmlns="http://www.w3.org/2000/svg"><defs><clipPath id="c"><use xlink:href="#a"/></clipPath><clipPath id="d"><use xlink:href="#b"/></clipPath><path d="M50 200H23.8l-1.3-.1-1.2-.2-1.2-.2-1.2-.2-1.2-.4-1.1-.4-1.2-.4-1-.5-1.2-.6-1-.6-1-.6-1-.7-1-.8-1-.8-.9-.8-.8-1-.8-.8-.8-1-.7-1-.6-1-.6-1.1-.6-1.1-.5-1.1-.4-1.2-.4-1.1-.4-1.2-.2-1.2-.2-1.2-.2-1.2v-1.3L0 175V23.8l.1-1.3.2-1.2.2-1.2.2-1.2.4-1.2.4-1.1.4-1.2.5-1 .6-1.2.6-1 .6-1 .7-1 .8-1 .8-1 .8-.9 1-.8.8-.8 1-.8 1-.7 1-.6 1.1-.6 1.1-.6 1.1-.5 1.2-.4 1.1-.4L19 .7l1.2-.2 1.2-.2 1.2-.2h1.3L25 0h25" id="a"/><path d="M50 200H23.8l-1.3-.1-1.2-.2-1.2-.2-1.2-.2-1.2-.4-1.1-.4-1.2-.4-1-.5-1.2-.6-1-.6-1-.6-1-.7-1-.8-1-.8-.9-.8-.8-1-.8-.8-.8-1-.7-1-.6-1-.6-1.1-.6-1.1-.5-1.1-.4-1.2-.4-1.1-.4-1.2-.2-1.2-.2-1.2-.2-1.2v-1.3L0 175V23.8l.1-1.3.2-1.2.2-1.2.2-1.2.4-1.2.4-1.1.4-1.2.5-1 .6-1.2.6-1 .6-1 .7-1 .8-1 .8-1 .8-.9 1-.8.8-.8 1-.8 1-.7 1-.6 1.1-.6 1.1-.6 1.1-.5 1.2-.4 1.1-.4L19 .7l1.2-.2 1.2-.2 1.2-.2h1.3L25 0h25" transform="matrix(-1 0 0 1 200 0)" id="b"/></defs><g clip-path="url(#c)" transform="translate(5 5)"><use xlink:href="#a" fill="none" stroke="#323232" stroke-width="20" stroke-linecap="round" stroke-linejoin="round"/></g><g clip-path="url(#d)" transform="translate(5 5)"><use xlink:href="#b" fill="none" stroke="#323232" stroke-width="20" stroke-linecap="round" stroke-linejoin="round"/></g><g fill="none" stroke="#323232" stroke-width="10"><path d="M33 180V30M69 180V30M105 180V30M141 180V30M177 180V30"/></g></svg>