<?xml version="1.0" encoding="utf-8"?>
<svg width="200px" height="200px" viewBox="0 0 200 200" version="1.1" xmlns:xlink="http://www.w3.org/1999/xlink" xmlns="http://www.w3.org/2000/svg">
  <defs>
    <path d="M9.999 0L20.001 0Q20.2465 0 20.4916 0.0120442Q20.7368 0.0240885 20.9811 0.0481479Q21.2253 0.0722074 21.4682 0.108224Q21.711 0.144241 21.9517 0.192128Q22.1924 0.240015 22.4306 0.299657Q22.6687 0.3593 22.9036 0.430553Q23.1384 0.501807 23.3696 0.584501Q23.6007 0.667194 23.8274 0.761128Q24.0542 0.855062 24.2761 0.960011Q24.498 1.06496 24.7145 1.18067Q24.931 1.29638 25.1415 1.42257Q25.352 1.54876 25.5561 1.68514Q25.7602 1.82151 25.9574 1.96773Q26.1546 2.11395 26.3443 2.26967Q26.534 2.42539 26.7159 2.59023Q26.8978 2.75507 27.0714 2.92864Q27.2449 3.10221 27.4098 3.28408Q27.5746 3.46596 27.7303 3.6557Q27.886 3.84545 28.0323 4.0426Q28.1785 4.23976 28.3149 4.44385Q28.4512 4.64795 28.5774 4.85849Q28.7036 5.06903 28.8193 5.2855Q28.935 5.50198 29.04 5.72388Q29.1449 5.94577 29.2389 6.17255Q29.3328 6.39932 29.4155 6.63044Q29.4982 6.86155 29.5694 7.09644Q29.6407 7.33134 29.7003 7.56944Q29.76 7.80755 29.8079 8.04829Q29.8558 8.28904 29.8918 8.53184Q29.9278 8.77465 29.9519 9.01893Q29.9759 9.26321 29.988 9.50837Q30 9.75354 30 9.999L30 20.001Q30 20.2465 29.988 20.4916Q29.9759 20.7368 29.9519 20.9811Q29.9278 21.2253 29.8918 21.4682Q29.8558 21.711 29.8079 21.9517Q29.76 22.1924 29.7003 22.4306Q29.6407 22.6687 29.5694 22.9036Q29.4982 23.1384 29.4155 23.3696Q29.3328 23.6007 29.2389 23.8274Q29.1449 24.0542 29.04 24.2761Q28.935 24.498 28.8193 24.7145Q28.7036 24.931 28.5774 25.1415Q28.4512 25.352 28.3149 25.5561Q28.1785 25.7602 28.0323 25.9574Q27.886 26.1546 27.7303 26.3443Q27.5746 26.534 27.4098 26.7159Q27.2449 26.8978 27.0714 27.0714Q26.8978 27.2449 26.7159 27.4098Q26.534 27.5746 26.3443 27.7303Q26.1546 27.886 25.9574 28.0323Q25.7602 28.1785 25.5561 28.3149Q25.352 28.4512 25.1415 28.5774Q24.931 28.7036 24.7145 28.8193Q24.498 28.935 24.2761 29.04Q24.0542 29.1449 23.8274 29.2389Q23.6007 29.3328 23.3696 29.4155Q23.1384 29.4982 22.9036 29.5694Q22.6687 29.6407 22.4306 29.7003Q22.1924 29.76 21.9517 29.8079Q21.711 29.8558 21.4682 29.8918Q21.2253 29.9278 20.9811 29.9519Q20.7368 29.9759 20.4916 29.988Q20.2465 30 20.001 30L9.999 30Q9.75354 30 9.50837 29.988Q9.26321 29.9759 9.01893 29.9519Q8.77465 29.9278 8.53184 29.8918Q8.28904 29.8558 8.04829 29.8079Q7.80755 29.76 7.56944 29.7003Q7.33134 29.6407 7.09644 29.5694Q6.86155 29.4982 6.63044 29.4155Q6.39932 29.3328 6.17255 29.2389Q5.94577 29.1449 5.72388 29.04Q5.50198 28.935 5.2855 28.8193Q5.06903 28.7036 4.85849 28.5774Q4.64795 28.4512 4.44385 28.3149Q4.23976 28.1785 4.0426 28.0323Q3.84545 27.886 3.6557 27.7303Q3.46596 27.5746 3.28408 27.4098Q3.10221 27.2449 2.92864 27.0714Q2.75507 26.8978 2.59023 26.7159Q2.42539 26.534 2.26967 26.3443Q2.11395 26.1546 1.96773 25.9574Q1.82151 25.7602 1.68514 25.5561Q1.54876 25.352 1.42257 25.1415Q1.29638 24.931 1.18067 24.7145Q1.06496 24.498 0.960011 24.2761Q0.855062 24.0542 0.761128 23.8274Q0.667194 23.6007 0.584501 23.3696Q0.501807 23.1384 0.430553 22.9036Q0.3593 22.6687 0.299657 22.4306Q0.240015 22.1924 0.192128 21.9517Q0.144241 21.711 0.108224 21.4682Q0.0722074 21.2253 0.0481479 20.9811Q0.0240885 20.7368 0.0120442 20.4916Q0 20.2465 0 20.001L0 9.999Q0 9.75354 0.0120442 9.50837Q0.0240885 9.26321 0.0481479 9.01893Q0.0722074 8.77465 0.108224 8.53184Q0.144241 8.28904 0.192128 8.04829Q0.240015 7.80755 0.299657 7.56944Q0.3593 7.33134 0.430553 7.09644Q0.501807 6.86155 0.584501 6.63044Q0.667194 6.39932 0.761128 6.17255Q0.855062 5.94577 0.960011 5.72388Q1.06496 5.50198 1.18067 5.2855Q1.29638 5.06903 1.42257 4.85849Q1.54876 4.64795 1.68514 4.44385Q1.82151 4.23976 1.96773 4.0426Q2.11395 3.84545 2.26967 3.6557Q2.42539 3.46596 2.59023 3.28408Q2.75507 3.10221 2.92864 2.92864Q3.10221 2.75507 3.28408 2.59023Q3.46596 2.42539 3.6557 2.26967Q3.84545 2.11395 4.0426 1.96773Q4.23976 1.82151 4.44385 1.68514Q4.64795 1.54876 4.85849 1.42257Q5.06903 1.29638 5.2855 1.18067Q5.50198 1.06496 5.72388 0.960011Q5.94577 0.855062 6.17255 0.761128Q6.39932 0.667194 6.63044 0.584501Q6.86155 0.501807 7.09644 0.430553Q7.33134 0.3593 7.56944 0.299657Q7.80755 0.240015 8.04829 0.192128Q8.28904 0.144241 8.53184 0.108224Q8.77465 0.0722074 9.01893 0.0481479Q9.26321 0.0240885 9.50837 0.0120442Q9.75354 0 9.999 0Z" id="path_1" />
    <path d="M9.999 0L20.001 0Q20.2465 0 20.4916 0.0120442Q20.7368 0.0240885 20.9811 0.0481479Q21.2253 0.0722074 21.4682 0.108224Q21.711 0.144241 21.9517 0.192128Q22.1924 0.240015 22.4306 0.299657Q22.6687 0.3593 22.9036 0.430553Q23.1384 0.501807 23.3696 0.584501Q23.6007 0.667194 23.8274 0.761128Q24.0542 0.855062 24.2761 0.960011Q24.498 1.06496 24.7145 1.18067Q24.931 1.29638 25.1415 1.42257Q25.352 1.54876 25.5561 1.68514Q25.7602 1.82151 25.9574 1.96773Q26.1546 2.11395 26.3443 2.26967Q26.534 2.42539 26.7159 2.59023Q26.8978 2.75507 27.0714 2.92864Q27.2449 3.10221 27.4098 3.28408Q27.5746 3.46596 27.7303 3.6557Q27.886 3.84545 28.0323 4.0426Q28.1785 4.23976 28.3149 4.44385Q28.4512 4.64795 28.5774 4.85849Q28.7036 5.06903 28.8193 5.2855Q28.935 5.50198 29.04 5.72388Q29.1449 5.94577 29.2389 6.17255Q29.3328 6.39932 29.4155 6.63044Q29.4982 6.86155 29.5694 7.09644Q29.6407 7.33134 29.7003 7.56944Q29.76 7.80755 29.8079 8.04829Q29.8558 8.28904 29.8918 8.53184Q29.9278 8.77465 29.9519 9.01893Q29.9759 9.26321 29.988 9.50837Q30 9.75354 30 9.999L30 20.001Q30 20.2465 29.988 20.4916Q29.9759 20.7368 29.9519 20.9811Q29.9278 21.2253 29.8918 21.4682Q29.8558 21.711 29.8079 21.9517Q29.76 22.1924 29.7003 22.4306Q29.6407 22.6687 29.5694 22.9036Q29.4982 23.1384 29.4155 23.3696Q29.3328 23.6007 29.2389 23.8274Q29.1449 24.0542 29.04 24.2761Q28.935 24.498 28.8193 24.7145Q28.7036 24.931 28.5774 25.1415Q28.4512 25.352 28.3149 25.5561Q28.1785 25.7602 28.0323 25.9574Q27.886 26.1546 27.7303 26.3443Q27.5746 26.534 27.4098 26.7159Q27.2449 26.8978 27.0714 27.0714Q26.8978 27.2449 26.7159 27.4098Q26.534 27.5746 26.3443 27.7303Q26.1546 27.886 25.9574 28.0323Q25.7602 28.1785 25.5561 28.3149Q25.352 28.4512 25.1415 28.5774Q24.931 28.7036 24.7145 28.8193Q24.498 28.935 24.2761 29.04Q24.0542 29.1449 23.8274 29.2389Q23.6007 29.3328 23.3696 29.4155Q23.1384 29.4982 22.9036 29.5694Q22.6687 29.6407 22.4306 29.7003Q22.1924 29.76 21.9517 29.8079Q21.711 29.8558 21.4682 29.8918Q21.2253 29.9278 20.9811 29.9519Q20.7368 29.9759 20.4916 29.988Q20.2465 30 20.001 30L9.999 30Q9.75354 30 9.50837 29.988Q9.26321 29.9759 9.01893 29.9519Q8.77465 29.9278 8.53184 29.8918Q8.28904 29.8558 8.04829 29.8079Q7.80755 29.76 7.56944 29.7003Q7.33134 29.6407 7.09644 29.5694Q6.86155 29.4982 6.63044 29.4155Q6.39932 29.3328 6.17255 29.2389Q5.94577 29.1449 5.72388 29.04Q5.50198 28.935 5.2855 28.8193Q5.06903 28.7036 4.85849 28.5774Q4.64795 28.4512 4.44385 28.3149Q4.23976 28.1785 4.0426 28.0323Q3.84545 27.886 3.6557 27.7303Q3.46596 27.5746 3.28408 27.4098Q3.10221 27.2449 2.92864 27.0714Q2.75507 26.8978 2.59023 26.7159Q2.42539 26.534 2.26967 26.3443Q2.11395 26.1546 1.96773 25.9574Q1.82151 25.7602 1.68514 25.5561Q1.54876 25.352 1.42257 25.1415Q1.29638 24.931 1.18067 24.7145Q1.06496 24.498 0.960011 24.2761Q0.855062 24.0542 0.761128 23.8274Q0.667194 23.6007 0.584501 23.3696Q0.501807 23.1384 0.430553 22.9036Q0.3593 22.6687 0.299657 22.4306Q0.240015 22.1924 0.192128 21.9517Q0.144241 21.711 0.108224 21.4682Q0.0722074 21.2253 0.0481479 20.9811Q0.0240885 20.7368 0.0120442 20.4916Q0 20.2465 0 20.001L0 9.999Q0 9.75354 0.0120442 9.50837Q0.0240885 9.26321 0.0481479 9.01893Q0.0722074 8.77465 0.108224 8.53184Q0.144241 8.28904 0.192128 8.04829Q0.240015 7.80755 0.299657 7.56944Q0.3593 7.33134 0.430553 7.09644Q0.501807 6.86155 0.584501 6.63044Q0.667194 6.39932 0.761128 6.17255Q0.855062 5.94577 0.960011 5.72388Q1.06496 5.50198 1.18067 5.2855Q1.29638 5.06903 1.42257 4.85849Q1.54876 4.64795 1.68514 4.44385Q1.82151 4.23976 1.96773 4.0426Q2.11395 3.84545 2.26967 3.6557Q2.42539 3.46596 2.59023 3.28408Q2.75507 3.10221 2.92864 2.92864Q3.10221 2.75507 3.28408 2.59023Q3.46596 2.42539 3.6557 2.26967Q3.84545 2.11395 4.0426 1.96773Q4.23976 1.82151 4.44385 1.68514Q4.64795 1.54876 4.85849 1.42257Q5.06903 1.29638 5.2855 1.18067Q5.50198 1.06496 5.72388 0.960011Q5.94577 0.855062 6.17255 0.761128Q6.39932 0.667194 6.63044 0.584501Q6.86155 0.501807 7.09644 0.430553Q7.33134 0.3593 7.56944 0.299657Q7.80755 0.240015 8.04829 0.192128Q8.28904 0.144241 8.53184 0.108224Q8.77465 0.0722074 9.01893 0.0481479Q9.26321 0.0240885 9.50837 0.0120442Q9.75354 0 9.999 0Z" transform="translate(40 0)" id="path_2" />
    <path d="M9.999 0L20.001 0Q20.2465 0 20.4916 0.0120442Q20.7368 0.0240885 20.9811 0.0481479Q21.2253 0.0722074 21.4682 0.108224Q21.711 0.144241 21.9517 0.192128Q22.1924 0.240015 22.4306 0.299657Q22.6687 0.3593 22.9036 0.430553Q23.1384 0.501807 23.3696 0.584501Q23.6007 0.667194 23.8274 0.761128Q24.0542 0.855062 24.2761 0.960011Q24.498 1.06496 24.7145 1.18067Q24.931 1.29638 25.1415 1.42257Q25.352 1.54876 25.5561 1.68514Q25.7602 1.82151 25.9574 1.96773Q26.1546 2.11395 26.3443 2.26967Q26.534 2.42539 26.7159 2.59023Q26.8978 2.75507 27.0714 2.92864Q27.2449 3.10221 27.4098 3.28408Q27.5746 3.46596 27.7303 3.6557Q27.886 3.84545 28.0323 4.0426Q28.1785 4.23976 28.3149 4.44385Q28.4512 4.64795 28.5774 4.85849Q28.7036 5.06903 28.8193 5.2855Q28.935 5.50198 29.04 5.72388Q29.1449 5.94577 29.2389 6.17255Q29.3328 6.39932 29.4155 6.63044Q29.4982 6.86155 29.5694 7.09644Q29.6407 7.33134 29.7003 7.56944Q29.76 7.80755 29.8079 8.04829Q29.8558 8.28904 29.8918 8.53184Q29.9278 8.77465 29.9519 9.01893Q29.9759 9.26321 29.988 9.50837Q30 9.75354 30 9.999L30 20.001Q30 20.2465 29.988 20.4916Q29.9759 20.7368 29.9519 20.9811Q29.9278 21.2253 29.8918 21.4682Q29.8558 21.711 29.8079 21.9517Q29.76 22.1924 29.7003 22.4306Q29.6407 22.6687 29.5694 22.9036Q29.4982 23.1384 29.4155 23.3696Q29.3328 23.6007 29.2389 23.8274Q29.1449 24.0542 29.04 24.2761Q28.935 24.498 28.8193 24.7145Q28.7036 24.931 28.5774 25.1415Q28.4512 25.352 28.3149 25.5561Q28.1785 25.7602 28.0323 25.9574Q27.886 26.1546 27.7303 26.3443Q27.5746 26.534 27.4098 26.7159Q27.2449 26.8978 27.0714 27.0714Q26.8978 27.2449 26.7159 27.4098Q26.534 27.5746 26.3443 27.7303Q26.1546 27.886 25.9574 28.0323Q25.7602 28.1785 25.5561 28.3149Q25.352 28.4512 25.1415 28.5774Q24.931 28.7036 24.7145 28.8193Q24.498 28.935 24.2761 29.04Q24.0542 29.1449 23.8274 29.2389Q23.6007 29.3328 23.3696 29.4155Q23.1384 29.4982 22.9036 29.5694Q22.6687 29.6407 22.4306 29.7003Q22.1924 29.76 21.9517 29.8079Q21.711 29.8558 21.4682 29.8918Q21.2253 29.9278 20.9811 29.9519Q20.7368 29.9759 20.4916 29.988Q20.2465 30 20.001 30L9.999 30Q9.75354 30 9.50837 29.988Q9.26321 29.9759 9.01893 29.9519Q8.77465 29.9278 8.53184 29.8918Q8.28904 29.8558 8.04829 29.8079Q7.80755 29.76 7.56944 29.7003Q7.33134 29.6407 7.09644 29.5694Q6.86155 29.4982 6.63044 29.4155Q6.39932 29.3328 6.17255 29.2389Q5.94577 29.1449 5.72388 29.04Q5.50198 28.935 5.2855 28.8193Q5.06903 28.7036 4.85849 28.5774Q4.64795 28.4512 4.44385 28.3149Q4.23976 28.1785 4.0426 28.0323Q3.84545 27.886 3.6557 27.7303Q3.46596 27.5746 3.28408 27.4098Q3.10221 27.2449 2.92864 27.0714Q2.75507 26.8978 2.59023 26.7159Q2.42539 26.534 2.26967 26.3443Q2.11395 26.1546 1.96773 25.9574Q1.82151 25.7602 1.68514 25.5561Q1.54876 25.352 1.42257 25.1415Q1.29638 24.931 1.18067 24.7145Q1.06496 24.498 0.960011 24.2761Q0.855062 24.0542 0.761128 23.8274Q0.667194 23.6007 0.584501 23.3696Q0.501807 23.1384 0.430553 22.9036Q0.3593 22.6687 0.299657 22.4306Q0.240015 22.1924 0.192128 21.9517Q0.144241 21.711 0.108224 21.4682Q0.0722074 21.2253 0.0481479 20.9811Q0.0240885 20.7368 0.0120442 20.4916Q0 20.2465 0 20.001L0 9.999Q0 9.75354 0.0120442 9.50837Q0.0240885 9.26321 0.0481479 9.01893Q0.0722074 8.77465 0.108224 8.53184Q0.144241 8.28904 0.192128 8.04829Q0.240015 7.80755 0.299657 7.56944Q0.3593 7.33134 0.430553 7.09644Q0.501807 6.86155 0.584501 6.63044Q0.667194 6.39932 0.761128 6.17255Q0.855062 5.94577 0.960011 5.72388Q1.06496 5.50198 1.18067 5.2855Q1.29638 5.06903 1.42257 4.85849Q1.54876 4.64795 1.68514 4.44385Q1.82151 4.23976 1.96773 4.0426Q2.11395 3.84545 2.26967 3.6557Q2.42539 3.46596 2.59023 3.28408Q2.75507 3.10221 2.92864 2.92864Q3.10221 2.75507 3.28408 2.59023Q3.46596 2.42539 3.6557 2.26967Q3.84545 2.11395 4.0426 1.96773Q4.23976 1.82151 4.44385 1.68514Q4.64795 1.54876 4.85849 1.42257Q5.06903 1.29638 5.2855 1.18067Q5.50198 1.06496 5.72388 0.960011Q5.94577 0.855062 6.17255 0.761128Q6.39932 0.667194 6.63044 0.584501Q6.86155 0.501807 7.09644 0.430553Q7.33134 0.3593 7.56944 0.299657Q7.80755 0.240015 8.04829 0.192128Q8.28904 0.144241 8.53184 0.108224Q8.77465 0.0722074 9.01893 0.0481479Q9.26321 0.0240885 9.50837 0.0120442Q9.75354 0 9.999 0Z" transform="translate(80 0)" id="path_3" />
    <path d="M9.999 0L20.001 0Q20.2465 0 20.4916 0.0120442Q20.7368 0.0240885 20.9811 0.0481479Q21.2253 0.0722074 21.4682 0.108224Q21.711 0.144241 21.9517 0.192128Q22.1924 0.240015 22.4306 0.299657Q22.6687 0.3593 22.9036 0.430553Q23.1384 0.501807 23.3696 0.584501Q23.6007 0.667194 23.8274 0.761128Q24.0542 0.855062 24.2761 0.960011Q24.498 1.06496 24.7145 1.18067Q24.931 1.29638 25.1415 1.42257Q25.352 1.54876 25.5561 1.68514Q25.7602 1.82151 25.9574 1.96773Q26.1546 2.11395 26.3443 2.26967Q26.534 2.42539 26.7159 2.59023Q26.8978 2.75507 27.0714 2.92864Q27.2449 3.10221 27.4098 3.28408Q27.5746 3.46596 27.7303 3.6557Q27.886 3.84545 28.0323 4.0426Q28.1785 4.23976 28.3149 4.44385Q28.4512 4.64795 28.5774 4.85849Q28.7036 5.06903 28.8193 5.2855Q28.935 5.50198 29.04 5.72388Q29.1449 5.94577 29.2389 6.17255Q29.3328 6.39932 29.4155 6.63044Q29.4982 6.86155 29.5694 7.09644Q29.6407 7.33134 29.7003 7.56944Q29.76 7.80755 29.8079 8.04829Q29.8558 8.28904 29.8918 8.53184Q29.9278 8.77465 29.9519 9.01893Q29.9759 9.26321 29.988 9.50837Q30 9.75354 30 9.999L30 20.001Q30 20.2465 29.988 20.4916Q29.9759 20.7368 29.9519 20.9811Q29.9278 21.2253 29.8918 21.4682Q29.8558 21.711 29.8079 21.9517Q29.76 22.1924 29.7003 22.4306Q29.6407 22.6687 29.5694 22.9036Q29.4982 23.1384 29.4155 23.3696Q29.3328 23.6007 29.2389 23.8274Q29.1449 24.0542 29.04 24.2761Q28.935 24.498 28.8193 24.7145Q28.7036 24.931 28.5774 25.1415Q28.4512 25.352 28.3149 25.5561Q28.1785 25.7602 28.0323 25.9574Q27.886 26.1546 27.7303 26.3443Q27.5746 26.534 27.4098 26.7159Q27.2449 26.8978 27.0714 27.0714Q26.8978 27.2449 26.7159 27.4098Q26.534 27.5746 26.3443 27.7303Q26.1546 27.886 25.9574 28.0323Q25.7602 28.1785 25.5561 28.3149Q25.352 28.4512 25.1415 28.5774Q24.931 28.7036 24.7145 28.8193Q24.498 28.935 24.2761 29.04Q24.0542 29.1449 23.8274 29.2389Q23.6007 29.3328 23.3696 29.4155Q23.1384 29.4982 22.9036 29.5694Q22.6687 29.6407 22.4306 29.7003Q22.1924 29.76 21.9517 29.8079Q21.711 29.8558 21.4682 29.8918Q21.2253 29.9278 20.9811 29.9519Q20.7368 29.9759 20.4916 29.988Q20.2465 30 20.001 30L9.999 30Q9.75354 30 9.50837 29.988Q9.26321 29.9759 9.01893 29.9519Q8.77465 29.9278 8.53184 29.8918Q8.28904 29.8558 8.04829 29.8079Q7.80755 29.76 7.56944 29.7003Q7.33134 29.6407 7.09644 29.5694Q6.86155 29.4982 6.63044 29.4155Q6.39932 29.3328 6.17255 29.2389Q5.94577 29.1449 5.72388 29.04Q5.50198 28.935 5.2855 28.8193Q5.06903 28.7036 4.85849 28.5774Q4.64795 28.4512 4.44385 28.3149Q4.23976 28.1785 4.0426 28.0323Q3.84545 27.886 3.6557 27.7303Q3.46596 27.5746 3.28408 27.4098Q3.10221 27.2449 2.92864 27.0714Q2.75507 26.8978 2.59023 26.7159Q2.42539 26.534 2.26967 26.3443Q2.11395 26.1546 1.96773 25.9574Q1.82151 25.7602 1.68514 25.5561Q1.54876 25.352 1.42257 25.1415Q1.29638 24.931 1.18067 24.7145Q1.06496 24.498 0.960011 24.2761Q0.855062 24.0542 0.761128 23.8274Q0.667194 23.6007 0.584501 23.3696Q0.501807 23.1384 0.430553 22.9036Q0.3593 22.6687 0.299657 22.4306Q0.240015 22.1924 0.192128 21.9517Q0.144241 21.711 0.108224 21.4682Q0.0722074 21.2253 0.0481479 20.9811Q0.0240885 20.7368 0.0120442 20.4916Q0 20.2465 0 20.001L0 9.999Q0 9.75354 0.0120442 9.50837Q0.0240885 9.26321 0.0481479 9.01893Q0.0722074 8.77465 0.108224 8.53184Q0.144241 8.28904 0.192128 8.04829Q0.240015 7.80755 0.299657 7.56944Q0.3593 7.33134 0.430553 7.09644Q0.501807 6.86155 0.584501 6.63044Q0.667194 6.39932 0.761128 6.17255Q0.855062 5.94577 0.960011 5.72388Q1.06496 5.50198 1.18067 5.2855Q1.29638 5.06903 1.42257 4.85849Q1.54876 4.64795 1.68514 4.44385Q1.82151 4.23976 1.96773 4.0426Q2.11395 3.84545 2.26967 3.6557Q2.42539 3.46596 2.59023 3.28408Q2.75507 3.10221 2.92864 2.92864Q3.10221 2.75507 3.28408 2.59023Q3.46596 2.42539 3.6557 2.26967Q3.84545 2.11395 4.0426 1.96773Q4.23976 1.82151 4.44385 1.68514Q4.64795 1.54876 4.85849 1.42257Q5.06903 1.29638 5.2855 1.18067Q5.50198 1.06496 5.72388 0.960011Q5.94577 0.855062 6.17255 0.761128Q6.39932 0.667194 6.63044 0.584501Q6.86155 0.501807 7.09644 0.430553Q7.33134 0.3593 7.56944 0.299657Q7.80755 0.240015 8.04829 0.192128Q8.28904 0.144241 8.53184 0.108224Q8.77465 0.0722074 9.01893 0.0481479Q9.26321 0.0240885 9.50837 0.0120442Q9.75354 0 9.999 0Z" transform="translate(0 38)" id="path_4" />
    <path d="M9.999 0L20.001 0Q20.2465 0 20.4916 0.0120442Q20.7368 0.0240885 20.9811 0.0481479Q21.2253 0.0722074 21.4682 0.108224Q21.711 0.144241 21.9517 0.192128Q22.1924 0.240015 22.4306 0.299657Q22.6687 0.3593 22.9036 0.430553Q23.1384 0.501807 23.3696 0.584501Q23.6007 0.667194 23.8274 0.761128Q24.0542 0.855062 24.2761 0.960011Q24.498 1.06496 24.7145 1.18067Q24.931 1.29638 25.1415 1.42257Q25.352 1.54876 25.5561 1.68514Q25.7602 1.82151 25.9574 1.96773Q26.1546 2.11395 26.3443 2.26967Q26.534 2.42539 26.7159 2.59023Q26.8978 2.75507 27.0714 2.92864Q27.2449 3.10221 27.4098 3.28408Q27.5746 3.46596 27.7303 3.6557Q27.886 3.84545 28.0323 4.0426Q28.1785 4.23976 28.3149 4.44385Q28.4512 4.64795 28.5774 4.85849Q28.7036 5.06903 28.8193 5.2855Q28.935 5.50198 29.04 5.72388Q29.1449 5.94577 29.2389 6.17255Q29.3328 6.39932 29.4155 6.63044Q29.4982 6.86155 29.5694 7.09644Q29.6407 7.33134 29.7003 7.56944Q29.76 7.80755 29.8079 8.04829Q29.8558 8.28904 29.8918 8.53184Q29.9278 8.77465 29.9519 9.01893Q29.9759 9.26321 29.988 9.50837Q30 9.75354 30 9.999L30 20.001Q30 20.2465 29.988 20.4916Q29.9759 20.7368 29.9519 20.9811Q29.9278 21.2253 29.8918 21.4682Q29.8558 21.711 29.8079 21.9517Q29.76 22.1924 29.7003 22.4306Q29.6407 22.6687 29.5694 22.9036Q29.4982 23.1384 29.4155 23.3696Q29.3328 23.6007 29.2389 23.8274Q29.1449 24.0542 29.04 24.2761Q28.935 24.498 28.8193 24.7145Q28.7036 24.931 28.5774 25.1415Q28.4512 25.352 28.3149 25.5561Q28.1785 25.7602 28.0323 25.9574Q27.886 26.1546 27.7303 26.3443Q27.5746 26.534 27.4098 26.7159Q27.2449 26.8978 27.0714 27.0714Q26.8978 27.2449 26.7159 27.4098Q26.534 27.5746 26.3443 27.7303Q26.1546 27.886 25.9574 28.0323Q25.7602 28.1785 25.5561 28.3149Q25.352 28.4512 25.1415 28.5774Q24.931 28.7036 24.7145 28.8193Q24.498 28.935 24.2761 29.04Q24.0542 29.1449 23.8274 29.2389Q23.6007 29.3328 23.3696 29.4155Q23.1384 29.4982 22.9036 29.5694Q22.6687 29.6407 22.4306 29.7003Q22.1924 29.76 21.9517 29.8079Q21.711 29.8558 21.4682 29.8918Q21.2253 29.9278 20.9811 29.9519Q20.7368 29.9759 20.4916 29.988Q20.2465 30 20.001 30L9.999 30Q9.75354 30 9.50837 29.988Q9.26321 29.9759 9.01893 29.9519Q8.77465 29.9278 8.53184 29.8918Q8.28904 29.8558 8.04829 29.8079Q7.80755 29.76 7.56944 29.7003Q7.33134 29.6407 7.09644 29.5694Q6.86155 29.4982 6.63044 29.4155Q6.39932 29.3328 6.17255 29.2389Q5.94577 29.1449 5.72388 29.04Q5.50198 28.935 5.2855 28.8193Q5.06903 28.7036 4.85849 28.5774Q4.64795 28.4512 4.44385 28.3149Q4.23976 28.1785 4.0426 28.0323Q3.84545 27.886 3.6557 27.7303Q3.46596 27.5746 3.28408 27.4098Q3.10221 27.2449 2.92864 27.0714Q2.75507 26.8978 2.59023 26.7159Q2.42539 26.534 2.26967 26.3443Q2.11395 26.1546 1.96773 25.9574Q1.82151 25.7602 1.68514 25.5561Q1.54876 25.352 1.42257 25.1415Q1.29638 24.931 1.18067 24.7145Q1.06496 24.498 0.960011 24.2761Q0.855062 24.0542 0.761128 23.8274Q0.667194 23.6007 0.584501 23.3696Q0.501807 23.1384 0.430553 22.9036Q0.3593 22.6687 0.299657 22.4306Q0.240015 22.1924 0.192128 21.9517Q0.144241 21.711 0.108224 21.4682Q0.0722074 21.2253 0.0481479 20.9811Q0.0240885 20.7368 0.0120442 20.4916Q0 20.2465 0 20.001L0 9.999Q0 9.75354 0.0120442 9.50837Q0.0240885 9.26321 0.0481479 9.01893Q0.0722074 8.77465 0.108224 8.53184Q0.144241 8.28904 0.192128 8.04829Q0.240015 7.80755 0.299657 7.56944Q0.3593 7.33134 0.430553 7.09644Q0.501807 6.86155 0.584501 6.63044Q0.667194 6.39932 0.761128 6.17255Q0.855062 5.94577 0.960011 5.72388Q1.06496 5.50198 1.18067 5.2855Q1.29638 5.06903 1.42257 4.85849Q1.54876 4.64795 1.68514 4.44385Q1.82151 4.23976 1.96773 4.0426Q2.11395 3.84545 2.26967 3.6557Q2.42539 3.46596 2.59023 3.28408Q2.75507 3.10221 2.92864 2.92864Q3.10221 2.75507 3.28408 2.59023Q3.46596 2.42539 3.6557 2.26967Q3.84545 2.11395 4.0426 1.96773Q4.23976 1.82151 4.44385 1.68514Q4.64795 1.54876 4.85849 1.42257Q5.06903 1.29638 5.2855 1.18067Q5.50198 1.06496 5.72388 0.960011Q5.94577 0.855062 6.17255 0.761128Q6.39932 0.667194 6.63044 0.584501Q6.86155 0.501807 7.09644 0.430553Q7.33134 0.3593 7.56944 0.299657Q7.80755 0.240015 8.04829 0.192128Q8.28904 0.144241 8.53184 0.108224Q8.77465 0.0722074 9.01893 0.0481479Q9.26321 0.0240885 9.50837 0.0120442Q9.75354 0 9.999 0Z" transform="translate(40 38)" id="path_5" />
    <path d="M200 42.8565C200 27.0769 187.208 14.2851 171.429 14.2851L164.286 14.2851L164.286 7.34313C164.286 3.49936 161.33 0.200249 157.487 0.00828505C155.535 -0.0857455 153.63 0.623848 152.215 1.97178C150.801 3.3197 150 5.18826 150 7.14223L150 14.2851L50 14.2851L50 7.34313C50 3.49936 47.0446 0.200249 43.2009 0.00828505C41.2492 -0.0857472 39.3442 0.623848 37.9296 1.97177C36.5151 3.3197 35.7145 5.18826 35.7143 7.14223L35.7143 14.2851L28.5714 14.2851C12.7919 14.2851 0 27.0769 0 42.8565L0 48.2138C0 49.2 0.799491 49.9995 1.78571 49.9995L198.214 49.9995C199.2 49.9995 200 49.2 200 48.2138L200 42.8565L200 42.8565Z" id="path_6" />
    <path d="M0 106.579C0 122.275 12.7919 135 28.5714 135L171.429 135C187.208 135 200 122.275 200 106.579L200 1.77632C200 0.795285 199.2 0 198.214 0L1.78571 0C0.799491 0 0 0.795285 0 1.77632L0 106.579L0 106.579Z" transform="translate(0 65)" id="path_7" />
    <clipPath id="clip_1">
      <use xlink:href="#path_1" />
    </clipPath>
    <clipPath id="clip_2">
      <use xlink:href="#path_2" />
    </clipPath>
    <clipPath id="clip_3">
      <use xlink:href="#path_3" />
    </clipPath>
    <clipPath id="clip_4">
      <use xlink:href="#path_4" />
    </clipPath>
    <clipPath id="clip_5">
      <use xlink:href="#path_5" />
    </clipPath>
    <clipPath id="clip_6">
      <use xlink:href="#path_6" />
    </clipPath>
    <clipPath id="clip_7">
      <use xlink:href="#path_7" />
    </clipPath>
  </defs>
  <g id="Calendar">
    <g id="Dates" transform="translate(20 85)">
      <g id="Date-1">
        <g clip-path="url(#clip_1)">
          <use xlink:href="#path_1" fill="none" stroke="#323232" stroke-width="10" />
        </g>
      </g>
      <g id="Date-2">
        <g clip-path="url(#clip_2)">
          <use xlink:href="#path_2" fill="none" stroke="#323232" stroke-width="10" />
        </g>
      </g>
      <g id="Date-3">
        <g clip-path="url(#clip_3)">
          <use xlink:href="#path_3" fill="none" stroke="#323232" stroke-width="10" />
        </g>
      </g>
      <g id="Date-4">
        <use stroke="none" fill="#323232" xlink:href="#path_4" fill-rule="evenodd" />
        <g clip-path="url(#clip_4)">
          <use xlink:href="#path_4" fill="none" stroke="#323232" stroke-width="10" />
        </g>
      </g>
      <g id="Date-5">
        <g clip-path="url(#clip_5)">
          <use xlink:href="#path_5" fill="none" stroke="#323232" stroke-width="10" />
        </g>
      </g>
    </g>
    <g id="Top">
      <g clip-path="url(#clip_6)">
        <use xlink:href="#path_6" fill="none" stroke="#323232" stroke-width="20" />
      </g>
    </g>
    <g id="Bottom">
      <g clip-path="url(#clip_7)">
        <use xlink:href="#path_7" fill="none" stroke="#323232" stroke-width="20" />
      </g>
    </g>
  </g>
</svg>