<?xml version="1.0" encoding="utf-8"?>
<svg width="210px" height="210px" viewBox="0 0 210 210" version="1.1" xmlns:xlink="http://www.w3.org/1999/xlink" xmlns="http://www.w3.org/2000/svg">
  <defs>
    <path d="M0 100C0 44.7715 44.7715 0 100 0C155.228 0 200 44.7715 200 100C200 155.228 155.228 200 100 200C44.7715 200 0 155.228 0 100Z" id="path_1" />
    <clipPath id="clip_1">
      <use xlink:href="#path_1" />
    </clipPath>
  </defs>
  <g id="Clock" transform="translate(5 5)">
    <g id="Body">
      <g clip-path="url(#clip_1)">
        <use xlink:href="#path_1" fill="none" stroke="#323232" stroke-width="20" />
      </g>
    </g>
    <path d="M0 5C0 2.23858 2.23858 0 5 0C7.76142 0 10 2.23858 10 5C10 7.76142 7.76142 10 5 10C2.23858 10 0 7.76142 0 5Z" transform="translate(95 20)" id="12" fill="#323232" fill-rule="evenodd" stroke="none" />
    <path d="M0 5C0 2.23858 2.23858 0 5 0C7.76142 0 10 2.23858 10 5C10 7.76142 7.76142 10 5 10C2.23858 10 0 7.76142 0 5Z" transform="translate(170 95)" id="3" fill="#323232" fill-rule="evenodd" stroke="none" />
    <path d="M0 5C0 2.23858 2.23858 0 5 0C7.76142 0 10 2.23858 10 5C10 7.76142 7.76142 10 5 10C2.23858 10 0 7.76142 0 5Z" transform="translate(95 170)" id="6" fill="#323232" fill-rule="evenodd" stroke="none" />
    <path d="M0 5C0 2.23858 2.23858 0 5 0C7.76142 0 10 2.23858 10 5C10 7.76142 7.76142 10 5 10C2.23858 10 0 7.76142 0 5Z" transform="translate(20 95)" id="9" fill="#323232" fill-rule="evenodd" stroke="none" />
    <path d="M1 0L1 55" transform="translate(99 45)" id="Minute-Hand" fill="none" fill-rule="evenodd" stroke="#323232" stroke-width="10" stroke-linecap="round" />
    <path d="M40 1L0 1" transform="translate(100 99)" id="Hour-Hand" fill="none" fill-rule="evenodd" stroke="#323232" stroke-width="10" stroke-linecap="round" />
  </g>
</svg>