<svg width="210" height="210" xmlns:xlink="http://www.w3.org/1999/xlink" xmlns="http://www.w3.org/2000/svg"><defs><clipPath id="b"><use xlink:href="#a"/></clipPath><path d="M0 100a100 100 0 1 1 200 0 100 100 0 0 1-200 0Z" id="a"/></defs><g clip-path="url(#b)" transform="translate(5 5)"><use xlink:href="#a" fill="none" stroke="#323232" stroke-width="20"/></g><path d="M100 30a5 5 0 1 1 10 0 5 5 0 0 1-10 0ZM175 105a5 5 0 1 1 10 0 5 5 0 0 1-10 0ZM100 180a5 5 0 1 1 10 0 5 5 0 0 1-10 0ZM25 105a5 5 0 1 1 10 0 5 5 0 0 1-10 0Z" fill="#323232" fill-rule="evenodd"/><path d="M105 50v55M145 105h-40" fill="none" stroke="#323232" stroke-width="10" stroke-linecap="round"/></svg>