<svg width="210" height="210" xmlns="http://www.w3.org/2000/svg"><path d="M5 105a100 100 0 1 1 200 0 100 100 0 0 1-200 0Z" fill="none" stroke="#323232" stroke-width="10"/><path d="M95.8 128.4v-.6q0-9.8 2-15.5 2-5.8 5.6-9.4 3.5-3.6 8.5-6.6 4.5-2.7 7.6-7.1 3-4.4 3-10.5 0-7.5-5-12-5.1-4.4-12.3-4.4-4.2 0-8 1.8-4 1.7-6.6 5.5-2.6 3.7-3 9.7H74.7q.4-8.7 4.5-14.9 4.2-6.2 11-9.4 6.7-3.3 15-3.3 9 0 15.7 3.6 6.6 3.6 10.3 9.8 3.7 6.2 3.7 14.2 0 8.5-3.8 14.5T120.5 104q-6.7 4.2-9.5 9.2-2.8 5-3 14.6v.6H95.9Zm6.5 30.3q-3.8 0-6.5-2.7t-2.7-6.5q0-3.8 2.7-6.5t6.5-2.7q3.8 0 6.5 2.7t2.7 6.5q0 3.8-2.7 6.5t-6.5 2.7Z"/></svg>