<svg width="215" height="384" xmlns="http://www.w3.org/2000/svg"><g fill-rule="evenodd" stroke="#231F20"><path d="m8 368.9 24.2 14v-311a15 15 0 0 1 6.6-12.4l27-18.3a14.9 14.9 0 0 1 17.4.4l82.5 61.3a15.1 15.1 0 0 1 4.5 18.9 14.7 14.7 0 0 1-4.5 5.3l-119 87 15.5 19.8L203 134.8a25.2 25.2 0 0 0 9.6-27.3 25.6 25.6 0 0 0-9-13L83.4 3.4a15 15 0 0 0-17.7-.2L6.8 45A14.9 14.9 0 0 0 .5 57.3V356a15 15 0 0 0 7.5 13Z" fill="#FFF"/><path d="m57.5 366.6-25.3 16.2V71.2a15 15 0 0 1 5.7-11.8l27.8-21.8a15 15 0 0 1 18.1-.3l94.8 69.5a9.7 9.7 0 0 1 3.3 4.1 10 10 0 0 1-3.5 12.2L47 214.4l17.5-43.7 76.8-51.3a4.8 4.8 0 0 0 1.7-1.8 4.3 4.3 0 0 0 .4-1.2 4.6 4.6 0 0 0 .2-1.5 4.6 4.6 0 0 0-.5-1.8 4.9 4.9 0 0 0-2-2.1l-69-42.4a5 5 0 0 0-6.8 1.4 5 5 0 0 0-.8 2.8l-.4 98.5-17 43 17.2 18.8V354a15 15 0 0 1-7 12.6Z" fill="#E3E3E3"/></g></svg>