<svg width="200" height="200" xmlns:xlink="http://www.w3.org/1999/xlink" xmlns="http://www.w3.org/2000/svg"><defs><clipPath id="c"><use xlink:href="#a"/></clipPath><clipPath id="d"><use xlink:href="#b"/></clipPath><path d="M0 75V60C0 37.4 10.2 0 50 0s50 33.2 50 60v15H0Z" transform="translate(50)" id="a"/><path d="M0 10v82.2l.2 2.2.3 2.2.4 2.2.4 2.1.6 2.2.7 2 .8 2.1 1 2 1 2 1 2 1.2 1.8 1.3 1.8 1.3 1.7 1.5 1.7 1.5 1.6 1.6 1.5 1.7 1.5 1.7 1.3 1.8 1.3 1.9 1.2 1.9 1 2 1 2 1 2 .8 2.1.7 2.2.6 2.1.4 2.2.4 2.2.3 2.2.1 2.2.1h112.2l2.2-.2 2.2-.3 2.2-.4 2.1-.4 2.2-.6 2-.7 2.1-.8 2-1 2-1 2-1 1.8-1.2 1.8-1.3 1.7-1.3 1.7-1.5 1.6-1.5 1.5-1.6 1.5-1.7 1.3-1.7 1.3-1.8 1.2-1.9 1-1.9 1-2 1-2 .8-2 .7-2.1.6-2.2.4-2.1.4-2.2.3-2.2.1-2.2.1-2.2V9l-.1-.5V8l-.2-.4-.1-.5-.2-.5-.2-.4q0-.3-.2-.5l-.2-.4-.2-.4-.3-.5-.3-.4-.3-.3-.3-.4-.3-.4-.4-.3-.4-.3-.3-.3-.4-.3-.5-.3-.4-.2-.4-.2-.5-.2-.4-.2-.5-.2-.5-.1-.4-.1h-.5L191 0H9l-.5.1H8l-.4.2-.5.1-.5.2-.4.2q-.3 0-.5.2l-.4.2-.4.2-.5.3L4 2l-.3.3-.4.3-.4.3-.3.4-.3.4L2 4l-.3.4-.3.5-.2.4-.2.4-.2.5-.2.4-.2.5-.1.5-.1.4v.5L0 9v1Z" transform="translate(0 65)" id="b"/></defs><g clip-path="url(#c)"><use xlink:href="#a" fill="none" stroke="#323232" stroke-width="20"/></g><g clip-path="url(#d)"><use xlink:href="#b" fill="none" stroke="#323232" stroke-width="20"/></g></svg>