<?xml version="1.0" encoding="utf-8"?>
<svg width="200px" height="200px" viewBox="0 0 200 200" version="1.1" xmlns:xlink="http://www.w3.org/1999/xlink" xmlns="http://www.w3.org/2000/svg">
  <defs>
    <path d="M195.709 119.13L195.499 118.965L181.41 108.204C179.6 106.81 178.587 104.654 178.687 102.409L178.687 97.3826C178.596 95.1513 179.61 93.0135 181.414 91.6348L195.499 80.8696L195.709 80.7043C200.195 77.0643 201.311 70.7935 198.343 65.8956L179.276 33.7652C179.254 33.7349 179.235 33.7029 179.218 33.6696C176.237 28.8445 170.145 26.7784 164.732 28.7565L164.575 28.813L148.013 35.3043C145.892 36.1394 143.488 35.9307 141.553 34.7435C140.089 33.8449 138.601 32.9957 137.089 32.1957C135.101 31.1457 133.744 29.238 133.433 27.0565L130.937 9.84348L130.884 9.53043C129.764 4.03519 124.841 0.0574916 119.089 0L80.9109 0C75.0685 0.0182077 70.086 4.1259 69.1029 9.73478L69.0628 9.97826L66.5762 27.2261C66.2668 29.401 64.9213 31.306 62.9467 32.3652C61.42 33.1652 59.9289 34.013 58.4825 34.8957C56.5504 36.0756 54.1544 36.281 52.0406 35.4478L35.4648 28.9261L35.3085 28.8652C29.8869 26.8849 23.7866 28.9592 20.8086 33.7957L20.7506 33.8913L1.65705 66.0435C-1.31544 70.9461 -0.200055 77.2248 4.29096 80.8696L4.50076 81.0348L18.5899 91.7956C20.3999 93.19 21.4127 95.3456 21.3131 97.5913L21.3131 102.617C21.4038 104.849 20.3892 106.987 18.5855 108.365L4.50076 119.13L4.29095 119.296C-0.195605 122.936 -1.31098 129.207 1.65705 134.104L20.7238 166.235C20.7458 166.265 20.7652 166.297 20.7819 166.33C23.7629 171.156 29.8548 173.222 35.2683 171.243L35.4246 171.187L51.9736 164.696C54.0941 163.86 56.4977 164.069 58.4334 165.257C59.8977 166.158 61.3856 167.007 62.8976 167.804C64.8856 168.854 66.2427 170.762 66.5538 172.943L69.036 190.157L69.0895 190.47C70.2114 195.974 75.1484 199.955 80.9109 200L119.089 200C124.931 199.982 129.914 195.874 130.897 190.265L130.937 190.022L133.424 172.774C133.738 170.595 135.092 168.689 137.076 167.635C138.602 166.835 140.093 165.987 141.54 165.104C143.472 163.924 145.868 163.719 147.982 164.552L164.557 171.052L164.714 171.113C170.135 173.097 176.238 171.022 179.214 166.183C179.231 166.15 179.251 166.118 179.272 166.087L198.338 133.961C201.316 129.059 200.203 122.776 195.709 119.13L195.709 119.13L195.709 119.13Z" id="path_1" />
    <path d="M69.9658 36.642C69.0777 55.5261 53.3551 70.2927 34.4526 69.9956C15.5501 69.6989 0.298797 54.4459 0.00433949 35.5433C-0.290552 16.6408 14.4777 0.920026 33.3619 0.0340283C43.197 -0.39912 52.7618 3.31855 59.7225 10.2805C66.6831 17.242 70.3999 26.8068 69.9658 36.642L69.9658 36.642L69.9658 36.642Z" transform="translate(65 65)" id="path_2" />
    <clipPath id="clip_1">
      <use xlink:href="#path_1" />
    </clipPath>
    <clipPath id="clip_2">
      <use xlink:href="#path_2" />
    </clipPath>
  </defs>
  <g id="Cog">
    <g id="Outside">
      <g clip-path="url(#clip_1)">
        <use xlink:href="#path_1" fill="none" stroke="#000000" stroke-width="20" />
      </g>
    </g>
    <g id="Center">
      <g clip-path="url(#clip_2)">
        <use xlink:href="#path_2" fill="none" stroke="#000000" stroke-width="20" />
      </g>
    </g>
  </g>
</svg>