<svg width="200" height="200" xmlns:xlink="http://www.w3.org/1999/xlink" xmlns="http://www.w3.org/2000/svg"><defs><clipPath id="c"><use xlink:href="#a"/></clipPath><clipPath id="d"><use xlink:href="#b"/></clipPath><path d="m195.7 119.1-.2-.1-14-10.8a7 7 0 0 1-2.8-5.8v-5c-.1-2.2 1-4.4 2.7-5.8L195.5 81l.2-.2c4.5-3.6 5.6-10 2.6-14.8l-19-32.1v-.1c-3-4.9-9.2-7-14.6-5l-.1.1-16.6 6.5c-2.1.8-4.5.6-6.4-.6l-4.5-2.5a7 7 0 0 1-3.7-5.1L131 9.8v-.3A12 12 0 0 0 119 0H80.9a12 12 0 0 0-11.8 9.7v.3l-2.5 17.2a7 7 0 0 1-3.7 5.2l-4.4 2.5a7.3 7.3 0 0 1-6.5.5L35.5 29h-.2c-5.4-2-11.5 0-14.5 4.9L1.7 66c-3 5-1.9 11.2 2.6 14.9l.2.1 14 10.8a7 7 0 0 1 2.8 5.8v5c.1 2.2-1 4.4-2.7 5.8L4.5 119l-.2.2c-4.5 3.6-5.6 10-2.6 14.8l19 32.1v.1c3 4.9 9.2 7 14.6 5l.1-.1 16.6-6.5c2-.8 4.5-.6 6.4.6l4.5 2.5c2 1 3.3 3 3.7 5.1l2.4 17.3v.3a12 12 0 0 0 12 9.5h38a12 12 0 0 0 11.9-9.7v-.3l2.5-17.2a7 7 0 0 1 3.7-5.2 79 79 0 0 0 4.4-2.5c2-1.2 4.4-1.4 6.5-.5l16.6 6.5h.1a12.1 12.1 0 0 0 14.6-5l19-32.1c3-5 1.9-11.2-2.6-14.9Z" id="a"/><path d="M70 36.6a35 35 0 1 1-70-3.2 35 35 0 0 1 70 3.2Z" transform="translate(65 65)" id="b"/></defs><g clip-path="url(#c)"><use xlink:href="#a" fill="none" stroke="#323232" stroke-width="20"/></g><g clip-path="url(#d)"><use xlink:href="#b" fill="none" stroke="#323232" stroke-width="20"/></g></svg>