<svg width="33" height="33" xmlns:xlink="http://www.w3.org/1999/xlink" xmlns="http://www.w3.org/2000/svg"><defs><clipPath id="b"><use xlink:href="#a"/></clipPath><path d="M0 10.1A10 10 0 0 1 10 0a10 10 0 0 1 9.9 10.1 10 10 0 0 1-10 10.2A10 10 0 0 1 0 10Z" id="a"/></defs><path d="M6.8 16.7a10 10 0 0 1 10-10.1 10 10 0 0 1 9.8 10.1 10 10 0 0 1-9.9 10.1 10 10 0 0 1-10-10.1Z" fill="none"/><g clip-path="url(#b)" transform="translate(6.8 6.6)"><path d="M0 10.1A10 10 0 0 1 10 0a10 10 0 0 1 9.9 10.1 10 10 0 0 1-10 10.2A10 10 0 0 1 0 10Z" fill="none" stroke="#323232" stroke-width="2"/></g><path d="M16.7 5V1M25.2 8 28 5M5 28l2.8-3M25 25l2.7 2.9M16.8 28v4M28 17.2h4M5 16.6H1M7.8 8 5 5" fill="none" stroke="#323232" stroke-linecap="round"/></svg>