<?xml version="1.0" encoding="utf-8"?>
<svg width="200px" height="200px" viewBox="0 0 200 200" version="1.1" xmlns:xlink="http://www.w3.org/1999/xlink" xmlns="http://www.w3.org/2000/svg">
  <defs>
    <path d="M14.999 0L45.001 0Q45.3692 0 45.737 0.0180669Q46.1047 0.0361339 46.4712 0.0722243Q46.8376 0.108315 47.2018 0.162341Q47.566 0.216368 47.9272 0.288202Q48.2883 0.360035 48.6455 0.449501Q49.0026 0.538968 49.355 0.645852Q49.7073 0.752736 50.054 0.87678Q50.4007 1.00082 50.7409 1.14173Q51.081 1.28264 51.4139 1.44006Q51.7467 1.59749 52.0715 1.77106Q52.3962 1.94463 52.712 2.13393Q53.0278 2.32322 53.334 2.52779Q53.6401 2.73235 53.9359 2.95169Q54.2316 3.17103 54.5163 3.40462Q54.8009 3.6382 55.0737 3.88547Q55.3465 4.13274 55.6069 4.39311Q55.8673 4.65346 56.1145 4.92629Q56.3618 5.19911 56.5954 5.48373Q56.829 5.76836 57.0483 6.06411Q57.2676 6.35985 57.4722 6.666Q57.6768 6.97215 57.8661 7.28797Q58.0554 7.60379 58.2289 7.92852Q58.4025 8.25325 58.5599 8.5861Q58.7174 8.91895 58.8583 9.25913Q58.9992 9.59931 59.1232 9.94599Q59.2473 10.2927 59.3541 10.645Q59.461 10.9974 59.5505 11.3545Q59.64 11.7117 59.7118 12.0728Q59.7836 12.434 59.8377 12.7982Q59.8917 13.1624 59.9278 13.5288Q59.9639 13.8953 59.9819 14.263Q60 14.6308 60 14.999L60 45.001Q60 45.3692 59.9819 45.737Q59.9639 46.1047 59.9278 46.4712Q59.8917 46.8376 59.8377 47.2018Q59.7836 47.566 59.7118 47.9272Q59.64 48.2883 59.5505 48.6455Q59.461 49.0026 59.3541 49.355Q59.2473 49.7073 59.1232 50.054Q58.9992 50.4007 58.8583 50.7409Q58.7174 51.081 58.5599 51.4139Q58.4025 51.7467 58.2289 52.0715Q58.0554 52.3962 57.8661 52.712Q57.6768 53.0278 57.4722 53.334Q57.2676 53.6401 57.0483 53.9359Q56.829 54.2316 56.5954 54.5163Q56.3618 54.8009 56.1145 55.0737Q55.8673 55.3465 55.6069 55.6069Q55.3465 55.8673 55.0737 56.1145Q54.8009 56.3618 54.5163 56.5954Q54.2316 56.829 53.9359 57.0483Q53.6401 57.2676 53.334 57.4722Q53.0278 57.6768 52.712 57.8661Q52.3962 58.0554 52.0715 58.2289Q51.7467 58.4025 51.4139 58.5599Q51.081 58.7174 50.7409 58.8583Q50.4007 58.9992 50.054 59.1232Q49.7073 59.2473 49.355 59.3541Q49.0026 59.461 48.6455 59.5505Q48.2883 59.64 47.9272 59.7118Q47.566 59.7836 47.2018 59.8377Q46.8376 59.8917 46.4712 59.9278Q46.1047 59.9639 45.737 59.9819Q45.3692 60 45.001 60L14.999 60Q14.6308 60 14.263 59.9819Q13.8953 59.9639 13.5288 59.9278Q13.1624 59.8917 12.7982 59.8377Q12.434 59.7836 12.0728 59.7118Q11.7117 59.64 11.3545 59.5505Q10.9974 59.461 10.645 59.3541Q10.2927 59.2473 9.94599 59.1232Q9.59931 58.9992 9.25913 58.8583Q8.91895 58.7174 8.5861 58.5599Q8.25325 58.4025 7.92852 58.2289Q7.60379 58.0554 7.28797 57.8661Q6.97215 57.6768 6.666 57.4722Q6.35985 57.2676 6.06411 57.0483Q5.76836 56.829 5.48373 56.5954Q5.19911 56.3618 4.92629 56.1145Q4.65346 55.8673 4.39311 55.6069Q4.13274 55.3465 3.88547 55.0737Q3.6382 54.8009 3.40462 54.5163Q3.17103 54.2316 2.95169 53.9359Q2.73235 53.6401 2.52779 53.334Q2.32322 53.0278 2.13393 52.712Q1.94463 52.3962 1.77106 52.0715Q1.59749 51.7467 1.44006 51.4139Q1.28264 51.081 1.14173 50.7409Q1.00082 50.4007 0.87678 50.054Q0.752736 49.7073 0.645852 49.355Q0.538968 49.0026 0.449501 48.6455Q0.360035 48.2883 0.288202 47.9272Q0.216368 47.566 0.162341 47.2018Q0.108315 46.8376 0.0722243 46.4712Q0.0361339 46.1047 0.0180669 45.737Q0 45.3692 0 45.001L0 14.999Q0 14.6308 0.0180669 14.263Q0.0361339 13.8953 0.0722243 13.5288Q0.108315 13.1624 0.162341 12.7982Q0.216368 12.434 0.288202 12.0728Q0.360035 11.7117 0.449501 11.3545Q0.538968 10.9974 0.645852 10.645Q0.752736 10.2927 0.87678 9.94599Q1.00082 9.59931 1.14173 9.25913Q1.28264 8.91895 1.44006 8.5861Q1.59749 8.25325 1.77106 7.92852Q1.94463 7.60379 2.13393 7.28797Q2.32322 6.97215 2.52779 6.666Q2.73235 6.35985 2.95169 6.06411Q3.17103 5.76836 3.40462 5.48373Q3.6382 5.19911 3.88547 4.92629Q4.13274 4.65346 4.39311 4.39311Q4.65346 4.13274 4.92629 3.88547Q5.19911 3.6382 5.48373 3.40462Q5.76836 3.17103 6.06411 2.95169Q6.35985 2.73235 6.666 2.52779Q6.97215 2.32322 7.28797 2.13393Q7.60379 1.94463 7.92852 1.77106Q8.25325 1.59749 8.5861 1.44006Q8.91895 1.28264 9.25913 1.14173Q9.59931 1.00082 9.94599 0.87678Q10.2927 0.752736 10.645 0.645852Q10.9974 0.538968 11.3545 0.449501Q11.7117 0.360035 12.0728 0.288202Q12.434 0.216368 12.7982 0.162341Q13.1624 0.108315 13.5288 0.0722243Q13.8953 0.0361339 14.263 0.0180669Q14.6308 0 14.999 0L14.999 0Z" id="path_1" />
    <path d="M14.999 0L45.001 0Q45.3692 0 45.737 0.0180669Q46.1047 0.0361339 46.4712 0.0722243Q46.8376 0.108315 47.2018 0.162341Q47.566 0.216368 47.9272 0.288202Q48.2883 0.360035 48.6455 0.449501Q49.0026 0.538968 49.355 0.645852Q49.7073 0.752736 50.054 0.87678Q50.4007 1.00082 50.7409 1.14173Q51.081 1.28264 51.4139 1.44006Q51.7467 1.59749 52.0715 1.77106Q52.3962 1.94463 52.712 2.13393Q53.0278 2.32322 53.334 2.52779Q53.6401 2.73235 53.9359 2.95169Q54.2316 3.17103 54.5163 3.40462Q54.8009 3.6382 55.0737 3.88547Q55.3465 4.13274 55.6069 4.39311Q55.8673 4.65346 56.1145 4.92629Q56.3618 5.19911 56.5954 5.48373Q56.829 5.76836 57.0483 6.06411Q57.2676 6.35985 57.4722 6.666Q57.6768 6.97215 57.8661 7.28797Q58.0554 7.60379 58.2289 7.92852Q58.4025 8.25325 58.5599 8.5861Q58.7174 8.91895 58.8583 9.25913Q58.9992 9.59931 59.1232 9.94599Q59.2473 10.2927 59.3541 10.645Q59.461 10.9974 59.5505 11.3545Q59.64 11.7117 59.7118 12.0728Q59.7836 12.434 59.8377 12.7982Q59.8917 13.1624 59.9278 13.5288Q59.9639 13.8953 59.9819 14.263Q60 14.6308 60 14.999L60 45.001Q60 45.3692 59.9819 45.737Q59.9639 46.1047 59.9278 46.4712Q59.8917 46.8376 59.8377 47.2018Q59.7836 47.566 59.7118 47.9272Q59.64 48.2883 59.5505 48.6455Q59.461 49.0026 59.3541 49.355Q59.2473 49.7073 59.1232 50.054Q58.9992 50.4007 58.8583 50.7409Q58.7174 51.081 58.5599 51.4139Q58.4025 51.7467 58.2289 52.0715Q58.0554 52.3962 57.8661 52.712Q57.6768 53.0278 57.4722 53.334Q57.2676 53.6401 57.0483 53.9359Q56.829 54.2316 56.5954 54.5163Q56.3618 54.8009 56.1145 55.0737Q55.8673 55.3465 55.6069 55.6069Q55.3465 55.8673 55.0737 56.1145Q54.8009 56.3618 54.5163 56.5954Q54.2316 56.829 53.9359 57.0483Q53.6401 57.2676 53.334 57.4722Q53.0278 57.6768 52.712 57.8661Q52.3962 58.0554 52.0715 58.2289Q51.7467 58.4025 51.4139 58.5599Q51.081 58.7174 50.7409 58.8583Q50.4007 58.9992 50.054 59.1232Q49.7073 59.2473 49.355 59.3541Q49.0026 59.461 48.6455 59.5505Q48.2883 59.64 47.9272 59.7118Q47.566 59.7836 47.2018 59.8377Q46.8376 59.8917 46.4712 59.9278Q46.1047 59.9639 45.737 59.9819Q45.3692 60 45.001 60L14.999 60Q14.6308 60 14.263 59.9819Q13.8953 59.9639 13.5288 59.9278Q13.1624 59.8917 12.7982 59.8377Q12.434 59.7836 12.0728 59.7118Q11.7117 59.64 11.3545 59.5505Q10.9974 59.461 10.645 59.3541Q10.2927 59.2473 9.94599 59.1232Q9.59931 58.9992 9.25913 58.8583Q8.91895 58.7174 8.5861 58.5599Q8.25325 58.4025 7.92852 58.2289Q7.60379 58.0554 7.28797 57.8661Q6.97215 57.6768 6.666 57.4722Q6.35985 57.2676 6.06411 57.0483Q5.76836 56.829 5.48373 56.5954Q5.19911 56.3618 4.92629 56.1145Q4.65346 55.8673 4.39311 55.6069Q4.13274 55.3465 3.88547 55.0737Q3.6382 54.8009 3.40462 54.5163Q3.17103 54.2316 2.95169 53.9359Q2.73235 53.6401 2.52779 53.334Q2.32322 53.0278 2.13393 52.712Q1.94463 52.3962 1.77106 52.0715Q1.59749 51.7467 1.44006 51.4139Q1.28264 51.081 1.14173 50.7409Q1.00082 50.4007 0.87678 50.054Q0.752736 49.7073 0.645852 49.355Q0.538968 49.0026 0.449501 48.6455Q0.360035 48.2883 0.288202 47.9272Q0.216368 47.566 0.162341 47.2018Q0.108315 46.8376 0.0722243 46.4712Q0.0361339 46.1047 0.0180669 45.737Q0 45.3692 0 45.001L0 14.999Q0 14.6308 0.0180669 14.263Q0.0361339 13.8953 0.0722243 13.5288Q0.108315 13.1624 0.162341 12.7982Q0.216368 12.434 0.288202 12.0728Q0.360035 11.7117 0.449501 11.3545Q0.538968 10.9974 0.645852 10.645Q0.752736 10.2927 0.87678 9.94599Q1.00082 9.59931 1.14173 9.25913Q1.28264 8.91895 1.44006 8.5861Q1.59749 8.25325 1.77106 7.92852Q1.94463 7.60379 2.13393 7.28797Q2.32322 6.97215 2.52779 6.666Q2.73235 6.35985 2.95169 6.06411Q3.17103 5.76836 3.40462 5.48373Q3.6382 5.19911 3.88547 4.92629Q4.13274 4.65346 4.39311 4.39311Q4.65346 4.13274 4.92629 3.88547Q5.19911 3.6382 5.48373 3.40462Q5.76836 3.17103 6.06411 2.95169Q6.35985 2.73235 6.666 2.52779Q6.97215 2.32322 7.28797 2.13393Q7.60379 1.94463 7.92852 1.77106Q8.25325 1.59749 8.5861 1.44006Q8.91895 1.28264 9.25913 1.14173Q9.59931 1.00082 9.94599 0.87678Q10.2927 0.752736 10.645 0.645852Q10.9974 0.538968 11.3545 0.449501Q11.7117 0.360035 12.0728 0.288202Q12.434 0.216368 12.7982 0.162341Q13.1624 0.108315 13.5288 0.0722243Q13.8953 0.0361339 14.263 0.0180669Q14.6308 0 14.999 0L14.999 0Z" transform="translate(70 0)" id="path_2" />
    <path d="M14.999 0L45.001 0Q45.3692 0 45.737 0.0180669Q46.1047 0.0361339 46.4712 0.0722243Q46.8376 0.108315 47.2018 0.162341Q47.566 0.216368 47.9272 0.288202Q48.2883 0.360035 48.6455 0.449501Q49.0026 0.538968 49.355 0.645852Q49.7073 0.752736 50.054 0.87678Q50.4007 1.00082 50.7409 1.14173Q51.081 1.28264 51.4139 1.44006Q51.7467 1.59749 52.0715 1.77106Q52.3962 1.94463 52.712 2.13393Q53.0278 2.32322 53.334 2.52779Q53.6401 2.73235 53.9359 2.95169Q54.2316 3.17103 54.5163 3.40462Q54.8009 3.6382 55.0737 3.88547Q55.3465 4.13274 55.6069 4.39311Q55.8673 4.65346 56.1145 4.92629Q56.3618 5.19911 56.5954 5.48373Q56.829 5.76836 57.0483 6.06411Q57.2676 6.35985 57.4722 6.666Q57.6768 6.97215 57.8661 7.28797Q58.0554 7.60379 58.2289 7.92852Q58.4025 8.25325 58.5599 8.5861Q58.7174 8.91895 58.8583 9.25913Q58.9992 9.59931 59.1232 9.94599Q59.2473 10.2927 59.3541 10.645Q59.461 10.9974 59.5505 11.3545Q59.64 11.7117 59.7118 12.0728Q59.7836 12.434 59.8377 12.7982Q59.8917 13.1624 59.9278 13.5288Q59.9639 13.8953 59.9819 14.263Q60 14.6308 60 14.999L60 45.001Q60 45.3692 59.9819 45.737Q59.9639 46.1047 59.9278 46.4712Q59.8917 46.8376 59.8377 47.2018Q59.7836 47.566 59.7118 47.9272Q59.64 48.2883 59.5505 48.6455Q59.461 49.0026 59.3541 49.355Q59.2473 49.7073 59.1232 50.054Q58.9992 50.4007 58.8583 50.7409Q58.7174 51.081 58.5599 51.4139Q58.4025 51.7467 58.2289 52.0715Q58.0554 52.3962 57.8661 52.712Q57.6768 53.0278 57.4722 53.334Q57.2676 53.6401 57.0483 53.9359Q56.829 54.2316 56.5954 54.5163Q56.3618 54.8009 56.1145 55.0737Q55.8673 55.3465 55.6069 55.6069Q55.3465 55.8673 55.0737 56.1145Q54.8009 56.3618 54.5163 56.5954Q54.2316 56.829 53.9359 57.0483Q53.6401 57.2676 53.334 57.4722Q53.0278 57.6768 52.712 57.8661Q52.3962 58.0554 52.0715 58.2289Q51.7467 58.4025 51.4139 58.5599Q51.081 58.7174 50.7409 58.8583Q50.4007 58.9992 50.054 59.1232Q49.7073 59.2473 49.355 59.3541Q49.0026 59.461 48.6455 59.5505Q48.2883 59.64 47.9272 59.7118Q47.566 59.7836 47.2018 59.8377Q46.8376 59.8917 46.4712 59.9278Q46.1047 59.9639 45.737 59.9819Q45.3692 60 45.001 60L14.999 60Q14.6308 60 14.263 59.9819Q13.8953 59.9639 13.5288 59.9278Q13.1624 59.8917 12.7982 59.8377Q12.434 59.7836 12.0728 59.7118Q11.7117 59.64 11.3545 59.5505Q10.9974 59.461 10.645 59.3541Q10.2927 59.2473 9.94599 59.1232Q9.59931 58.9992 9.25913 58.8583Q8.91895 58.7174 8.5861 58.5599Q8.25325 58.4025 7.92852 58.2289Q7.60379 58.0554 7.28797 57.8661Q6.97215 57.6768 6.666 57.4722Q6.35985 57.2676 6.06411 57.0483Q5.76836 56.829 5.48373 56.5954Q5.19911 56.3618 4.92629 56.1145Q4.65346 55.8673 4.39311 55.6069Q4.13274 55.3465 3.88547 55.0737Q3.6382 54.8009 3.40462 54.5163Q3.17103 54.2316 2.95169 53.9359Q2.73235 53.6401 2.52779 53.334Q2.32322 53.0278 2.13393 52.712Q1.94463 52.3962 1.77106 52.0715Q1.59749 51.7467 1.44006 51.4139Q1.28264 51.081 1.14173 50.7409Q1.00082 50.4007 0.87678 50.054Q0.752736 49.7073 0.645852 49.355Q0.538968 49.0026 0.449501 48.6455Q0.360035 48.2883 0.288202 47.9272Q0.216368 47.566 0.162341 47.2018Q0.108315 46.8376 0.0722243 46.4712Q0.0361339 46.1047 0.0180669 45.737Q0 45.3692 0 45.001L0 14.999Q0 14.6308 0.0180669 14.263Q0.0361339 13.8953 0.0722243 13.5288Q0.108315 13.1624 0.162341 12.7982Q0.216368 12.434 0.288202 12.0728Q0.360035 11.7117 0.449501 11.3545Q0.538968 10.9974 0.645852 10.645Q0.752736 10.2927 0.87678 9.94599Q1.00082 9.59931 1.14173 9.25913Q1.28264 8.91895 1.44006 8.5861Q1.59749 8.25325 1.77106 7.92852Q1.94463 7.60379 2.13393 7.28797Q2.32322 6.97215 2.52779 6.666Q2.73235 6.35985 2.95169 6.06411Q3.17103 5.76836 3.40462 5.48373Q3.6382 5.19911 3.88547 4.92629Q4.13274 4.65346 4.39311 4.39311Q4.65346 4.13274 4.92629 3.88547Q5.19911 3.6382 5.48373 3.40462Q5.76836 3.17103 6.06411 2.95169Q6.35985 2.73235 6.666 2.52779Q6.97215 2.32322 7.28797 2.13393Q7.60379 1.94463 7.92852 1.77106Q8.25325 1.59749 8.5861 1.44006Q8.91895 1.28264 9.25913 1.14173Q9.59931 1.00082 9.94599 0.87678Q10.2927 0.752736 10.645 0.645852Q10.9974 0.538968 11.3545 0.449501Q11.7117 0.360035 12.0728 0.288202Q12.434 0.216368 12.7982 0.162341Q13.1624 0.108315 13.5288 0.0722243Q13.8953 0.0361339 14.263 0.0180669Q14.6308 0 14.999 0L14.999 0Z" transform="translate(140 0)" id="path_3" />
    <path d="M14.999 0L45.001 0Q45.3692 0 45.737 0.0180669Q46.1047 0.0361339 46.4712 0.0722243Q46.8376 0.108315 47.2018 0.162341Q47.566 0.216368 47.9272 0.288202Q48.2883 0.360035 48.6455 0.449501Q49.0026 0.538968 49.355 0.645852Q49.7073 0.752736 50.054 0.87678Q50.4007 1.00082 50.7409 1.14173Q51.081 1.28264 51.4139 1.44006Q51.7467 1.59749 52.0715 1.77106Q52.3962 1.94463 52.712 2.13393Q53.0278 2.32322 53.334 2.52779Q53.6401 2.73235 53.9359 2.95169Q54.2316 3.17103 54.5163 3.40462Q54.8009 3.6382 55.0737 3.88547Q55.3465 4.13274 55.6069 4.39311Q55.8673 4.65346 56.1145 4.92629Q56.3618 5.19911 56.5954 5.48373Q56.829 5.76836 57.0483 6.06411Q57.2676 6.35985 57.4722 6.666Q57.6768 6.97215 57.8661 7.28797Q58.0554 7.60379 58.2289 7.92852Q58.4025 8.25325 58.5599 8.5861Q58.7174 8.91895 58.8583 9.25913Q58.9992 9.59931 59.1232 9.94599Q59.2473 10.2927 59.3541 10.645Q59.461 10.9974 59.5505 11.3545Q59.64 11.7117 59.7118 12.0728Q59.7836 12.434 59.8377 12.7982Q59.8917 13.1624 59.9278 13.5288Q59.9639 13.8953 59.9819 14.263Q60 14.6308 60 14.999L60 45.001Q60 45.3692 59.9819 45.737Q59.9639 46.1047 59.9278 46.4712Q59.8917 46.8376 59.8377 47.2018Q59.7836 47.566 59.7118 47.9272Q59.64 48.2883 59.5505 48.6455Q59.461 49.0026 59.3541 49.355Q59.2473 49.7073 59.1232 50.054Q58.9992 50.4007 58.8583 50.7409Q58.7174 51.081 58.5599 51.4139Q58.4025 51.7467 58.2289 52.0715Q58.0554 52.3962 57.8661 52.712Q57.6768 53.0278 57.4722 53.334Q57.2676 53.6401 57.0483 53.9359Q56.829 54.2316 56.5954 54.5163Q56.3618 54.8009 56.1145 55.0737Q55.8673 55.3465 55.6069 55.6069Q55.3465 55.8673 55.0737 56.1145Q54.8009 56.3618 54.5163 56.5954Q54.2316 56.829 53.9359 57.0483Q53.6401 57.2676 53.334 57.4722Q53.0278 57.6768 52.712 57.8661Q52.3962 58.0554 52.0715 58.2289Q51.7467 58.4025 51.4139 58.5599Q51.081 58.7174 50.7409 58.8583Q50.4007 58.9992 50.054 59.1232Q49.7073 59.2473 49.355 59.3541Q49.0026 59.461 48.6455 59.5505Q48.2883 59.64 47.9272 59.7118Q47.566 59.7836 47.2018 59.8377Q46.8376 59.8917 46.4712 59.9278Q46.1047 59.9639 45.737 59.9819Q45.3692 60 45.001 60L14.999 60Q14.6308 60 14.263 59.9819Q13.8953 59.9639 13.5288 59.9278Q13.1624 59.8917 12.7982 59.8377Q12.434 59.7836 12.0728 59.7118Q11.7117 59.64 11.3545 59.5505Q10.9974 59.461 10.645 59.3541Q10.2927 59.2473 9.94599 59.1232Q9.59931 58.9992 9.25913 58.8583Q8.91895 58.7174 8.5861 58.5599Q8.25325 58.4025 7.92852 58.2289Q7.60379 58.0554 7.28797 57.8661Q6.97215 57.6768 6.666 57.4722Q6.35985 57.2676 6.06411 57.0483Q5.76836 56.829 5.48373 56.5954Q5.19911 56.3618 4.92629 56.1145Q4.65346 55.8673 4.39311 55.6069Q4.13274 55.3465 3.88547 55.0737Q3.6382 54.8009 3.40462 54.5163Q3.17103 54.2316 2.95169 53.9359Q2.73235 53.6401 2.52779 53.334Q2.32322 53.0278 2.13393 52.712Q1.94463 52.3962 1.77106 52.0715Q1.59749 51.7467 1.44006 51.4139Q1.28264 51.081 1.14173 50.7409Q1.00082 50.4007 0.87678 50.054Q0.752736 49.7073 0.645852 49.355Q0.538968 49.0026 0.449501 48.6455Q0.360035 48.2883 0.288202 47.9272Q0.216368 47.566 0.162341 47.2018Q0.108315 46.8376 0.0722243 46.4712Q0.0361339 46.1047 0.0180669 45.737Q0 45.3692 0 45.001L0 14.999Q0 14.6308 0.0180669 14.263Q0.0361339 13.8953 0.0722243 13.5288Q0.108315 13.1624 0.162341 12.7982Q0.216368 12.434 0.288202 12.0728Q0.360035 11.7117 0.449501 11.3545Q0.538968 10.9974 0.645852 10.645Q0.752736 10.2927 0.87678 9.94599Q1.00082 9.59931 1.14173 9.25913Q1.28264 8.91895 1.44006 8.5861Q1.59749 8.25325 1.77106 7.92852Q1.94463 7.60379 2.13393 7.28797Q2.32322 6.97215 2.52779 6.666Q2.73235 6.35985 2.95169 6.06411Q3.17103 5.76836 3.40462 5.48373Q3.6382 5.19911 3.88547 4.92629Q4.13274 4.65346 4.39311 4.39311Q4.65346 4.13274 4.92629 3.88547Q5.19911 3.6382 5.48373 3.40462Q5.76836 3.17103 6.06411 2.95169Q6.35985 2.73235 6.666 2.52779Q6.97215 2.32322 7.28797 2.13393Q7.60379 1.94463 7.92852 1.77106Q8.25325 1.59749 8.5861 1.44006Q8.91895 1.28264 9.25913 1.14173Q9.59931 1.00082 9.94599 0.87678Q10.2927 0.752736 10.645 0.645852Q10.9974 0.538968 11.3545 0.449501Q11.7117 0.360035 12.0728 0.288202Q12.434 0.216368 12.7982 0.162341Q13.1624 0.108315 13.5288 0.0722243Q13.8953 0.0361339 14.263 0.0180669Q14.6308 0 14.999 0L14.999 0Z" transform="translate(-0 70)" id="path_4" />
    <path d="M14.999 0L45.001 0Q45.3692 0 45.737 0.0180669Q46.1047 0.0361339 46.4712 0.0722243Q46.8376 0.108315 47.2018 0.162341Q47.566 0.216368 47.9272 0.288202Q48.2883 0.360035 48.6455 0.449501Q49.0026 0.538968 49.355 0.645852Q49.7073 0.752736 50.054 0.87678Q50.4007 1.00082 50.7409 1.14173Q51.081 1.28264 51.4139 1.44006Q51.7467 1.59749 52.0715 1.77106Q52.3962 1.94463 52.712 2.13393Q53.0278 2.32322 53.334 2.52779Q53.6401 2.73235 53.9359 2.95169Q54.2316 3.17103 54.5163 3.40462Q54.8009 3.6382 55.0737 3.88547Q55.3465 4.13274 55.6069 4.39311Q55.8673 4.65346 56.1145 4.92629Q56.3618 5.19911 56.5954 5.48373Q56.829 5.76836 57.0483 6.06411Q57.2676 6.35985 57.4722 6.666Q57.6768 6.97215 57.8661 7.28797Q58.0554 7.60379 58.2289 7.92852Q58.4025 8.25325 58.5599 8.5861Q58.7174 8.91895 58.8583 9.25913Q58.9992 9.59931 59.1232 9.94599Q59.2473 10.2927 59.3541 10.645Q59.461 10.9974 59.5505 11.3545Q59.64 11.7117 59.7118 12.0728Q59.7836 12.434 59.8377 12.7982Q59.8917 13.1624 59.9278 13.5288Q59.9639 13.8953 59.9819 14.263Q60 14.6308 60 14.999L60 45.001Q60 45.3692 59.9819 45.737Q59.9639 46.1047 59.9278 46.4712Q59.8917 46.8376 59.8377 47.2018Q59.7836 47.566 59.7118 47.9272Q59.64 48.2883 59.5505 48.6455Q59.461 49.0026 59.3541 49.355Q59.2473 49.7073 59.1232 50.054Q58.9992 50.4007 58.8583 50.7409Q58.7174 51.081 58.5599 51.4139Q58.4025 51.7467 58.2289 52.0715Q58.0554 52.3962 57.8661 52.712Q57.6768 53.0278 57.4722 53.334Q57.2676 53.6401 57.0483 53.9359Q56.829 54.2316 56.5954 54.5163Q56.3618 54.8009 56.1145 55.0737Q55.8673 55.3465 55.6069 55.6069Q55.3465 55.8673 55.0737 56.1145Q54.8009 56.3618 54.5163 56.5954Q54.2316 56.829 53.9359 57.0483Q53.6401 57.2676 53.334 57.4722Q53.0278 57.6768 52.712 57.8661Q52.3962 58.0554 52.0715 58.2289Q51.7467 58.4025 51.4139 58.5599Q51.081 58.7174 50.7409 58.8583Q50.4007 58.9992 50.054 59.1232Q49.7073 59.2473 49.355 59.3541Q49.0026 59.461 48.6455 59.5505Q48.2883 59.64 47.9272 59.7118Q47.566 59.7836 47.2018 59.8377Q46.8376 59.8917 46.4712 59.9278Q46.1047 59.9639 45.737 59.9819Q45.3692 60 45.001 60L14.999 60Q14.6308 60 14.263 59.9819Q13.8953 59.9639 13.5288 59.9278Q13.1624 59.8917 12.7982 59.8377Q12.434 59.7836 12.0728 59.7118Q11.7117 59.64 11.3545 59.5505Q10.9974 59.461 10.645 59.3541Q10.2927 59.2473 9.94599 59.1232Q9.59931 58.9992 9.25913 58.8583Q8.91895 58.7174 8.5861 58.5599Q8.25325 58.4025 7.92852 58.2289Q7.60379 58.0554 7.28797 57.8661Q6.97215 57.6768 6.666 57.4722Q6.35985 57.2676 6.06411 57.0483Q5.76836 56.829 5.48373 56.5954Q5.19911 56.3618 4.92629 56.1145Q4.65346 55.8673 4.39311 55.6069Q4.13274 55.3465 3.88547 55.0737Q3.6382 54.8009 3.40462 54.5163Q3.17103 54.2316 2.95169 53.9359Q2.73235 53.6401 2.52779 53.334Q2.32322 53.0278 2.13393 52.712Q1.94463 52.3962 1.77106 52.0715Q1.59749 51.7467 1.44006 51.4139Q1.28264 51.081 1.14173 50.7409Q1.00082 50.4007 0.87678 50.054Q0.752736 49.7073 0.645852 49.355Q0.538968 49.0026 0.449501 48.6455Q0.360035 48.2883 0.288202 47.9272Q0.216368 47.566 0.162341 47.2018Q0.108315 46.8376 0.0722243 46.4712Q0.0361339 46.1047 0.0180669 45.737Q0 45.3692 0 45.001L0 14.999Q0 14.6308 0.0180669 14.263Q0.0361339 13.8953 0.0722243 13.5288Q0.108315 13.1624 0.162341 12.7982Q0.216368 12.434 0.288202 12.0728Q0.360035 11.7117 0.449501 11.3545Q0.538968 10.9974 0.645852 10.645Q0.752736 10.2927 0.87678 9.94599Q1.00082 9.59931 1.14173 9.25913Q1.28264 8.91895 1.44006 8.5861Q1.59749 8.25325 1.77106 7.92852Q1.94463 7.60379 2.13393 7.28797Q2.32322 6.97215 2.52779 6.666Q2.73235 6.35985 2.95169 6.06411Q3.17103 5.76836 3.40462 5.48373Q3.6382 5.19911 3.88547 4.92629Q4.13274 4.65346 4.39311 4.39311Q4.65346 4.13274 4.92629 3.88547Q5.19911 3.6382 5.48373 3.40462Q5.76836 3.17103 6.06411 2.95169Q6.35985 2.73235 6.666 2.52779Q6.97215 2.32322 7.28797 2.13393Q7.60379 1.94463 7.92852 1.77106Q8.25325 1.59749 8.5861 1.44006Q8.91895 1.28264 9.25913 1.14173Q9.59931 1.00082 9.94599 0.87678Q10.2927 0.752736 10.645 0.645852Q10.9974 0.538968 11.3545 0.449501Q11.7117 0.360035 12.0728 0.288202Q12.434 0.216368 12.7982 0.162341Q13.1624 0.108315 13.5288 0.0722243Q13.8953 0.0361339 14.263 0.0180669Q14.6308 0 14.999 0L14.999 0Z" transform="translate(70 70)" id="path_5" />
    <path d="M14.999 0L45.001 0Q45.3692 0 45.737 0.0180669Q46.1047 0.0361339 46.4712 0.0722243Q46.8376 0.108315 47.2018 0.162341Q47.566 0.216368 47.9272 0.288202Q48.2883 0.360035 48.6455 0.449501Q49.0026 0.538968 49.355 0.645852Q49.7073 0.752736 50.054 0.87678Q50.4007 1.00082 50.7409 1.14173Q51.081 1.28264 51.4139 1.44006Q51.7467 1.59749 52.0715 1.77106Q52.3962 1.94463 52.712 2.13393Q53.0278 2.32322 53.334 2.52779Q53.6401 2.73235 53.9359 2.95169Q54.2316 3.17103 54.5163 3.40462Q54.8009 3.6382 55.0737 3.88547Q55.3465 4.13274 55.6069 4.39311Q55.8673 4.65346 56.1145 4.92629Q56.3618 5.19911 56.5954 5.48373Q56.829 5.76836 57.0483 6.06411Q57.2676 6.35985 57.4722 6.666Q57.6768 6.97215 57.8661 7.28797Q58.0554 7.60379 58.2289 7.92852Q58.4025 8.25325 58.5599 8.5861Q58.7174 8.91895 58.8583 9.25913Q58.9992 9.59931 59.1232 9.94599Q59.2473 10.2927 59.3541 10.645Q59.461 10.9974 59.5505 11.3545Q59.64 11.7117 59.7118 12.0728Q59.7836 12.434 59.8377 12.7982Q59.8917 13.1624 59.9278 13.5288Q59.9639 13.8953 59.9819 14.263Q60 14.6308 60 14.999L60 45.001Q60 45.3692 59.9819 45.737Q59.9639 46.1047 59.9278 46.4712Q59.8917 46.8376 59.8377 47.2018Q59.7836 47.566 59.7118 47.9272Q59.64 48.2883 59.5505 48.6455Q59.461 49.0026 59.3541 49.355Q59.2473 49.7073 59.1232 50.054Q58.9992 50.4007 58.8583 50.7409Q58.7174 51.081 58.5599 51.4139Q58.4025 51.7467 58.2289 52.0715Q58.0554 52.3962 57.8661 52.712Q57.6768 53.0278 57.4722 53.334Q57.2676 53.6401 57.0483 53.9359Q56.829 54.2316 56.5954 54.5163Q56.3618 54.8009 56.1145 55.0737Q55.8673 55.3465 55.6069 55.6069Q55.3465 55.8673 55.0737 56.1145Q54.8009 56.3618 54.5163 56.5954Q54.2316 56.829 53.9359 57.0483Q53.6401 57.2676 53.334 57.4722Q53.0278 57.6768 52.712 57.8661Q52.3962 58.0554 52.0715 58.2289Q51.7467 58.4025 51.4139 58.5599Q51.081 58.7174 50.7409 58.8583Q50.4007 58.9992 50.054 59.1232Q49.7073 59.2473 49.355 59.3541Q49.0026 59.461 48.6455 59.5505Q48.2883 59.64 47.9272 59.7118Q47.566 59.7836 47.2018 59.8377Q46.8376 59.8917 46.4712 59.9278Q46.1047 59.9639 45.737 59.9819Q45.3692 60 45.001 60L14.999 60Q14.6308 60 14.263 59.9819Q13.8953 59.9639 13.5288 59.9278Q13.1624 59.8917 12.7982 59.8377Q12.434 59.7836 12.0728 59.7118Q11.7117 59.64 11.3545 59.5505Q10.9974 59.461 10.645 59.3541Q10.2927 59.2473 9.94599 59.1232Q9.59931 58.9992 9.25913 58.8583Q8.91895 58.7174 8.5861 58.5599Q8.25325 58.4025 7.92852 58.2289Q7.60379 58.0554 7.28797 57.8661Q6.97215 57.6768 6.666 57.4722Q6.35985 57.2676 6.06411 57.0483Q5.76836 56.829 5.48373 56.5954Q5.19911 56.3618 4.92629 56.1145Q4.65346 55.8673 4.39311 55.6069Q4.13274 55.3465 3.88547 55.0737Q3.6382 54.8009 3.40462 54.5163Q3.17103 54.2316 2.95169 53.9359Q2.73235 53.6401 2.52779 53.334Q2.32322 53.0278 2.13393 52.712Q1.94463 52.3962 1.77106 52.0715Q1.59749 51.7467 1.44006 51.4139Q1.28264 51.081 1.14173 50.7409Q1.00082 50.4007 0.87678 50.054Q0.752736 49.7073 0.645852 49.355Q0.538968 49.0026 0.449501 48.6455Q0.360035 48.2883 0.288202 47.9272Q0.216368 47.566 0.162341 47.2018Q0.108315 46.8376 0.0722243 46.4712Q0.0361339 46.1047 0.0180669 45.737Q0 45.3692 0 45.001L0 14.999Q0 14.6308 0.0180669 14.263Q0.0361339 13.8953 0.0722243 13.5288Q0.108315 13.1624 0.162341 12.7982Q0.216368 12.434 0.288202 12.0728Q0.360035 11.7117 0.449501 11.3545Q0.538968 10.9974 0.645852 10.645Q0.752736 10.2927 0.87678 9.94599Q1.00082 9.59931 1.14173 9.25913Q1.28264 8.91895 1.44006 8.5861Q1.59749 8.25325 1.77106 7.92852Q1.94463 7.60379 2.13393 7.28797Q2.32322 6.97215 2.52779 6.666Q2.73235 6.35985 2.95169 6.06411Q3.17103 5.76836 3.40462 5.48373Q3.6382 5.19911 3.88547 4.92629Q4.13274 4.65346 4.39311 4.39311Q4.65346 4.13274 4.92629 3.88547Q5.19911 3.6382 5.48373 3.40462Q5.76836 3.17103 6.06411 2.95169Q6.35985 2.73235 6.666 2.52779Q6.97215 2.32322 7.28797 2.13393Q7.60379 1.94463 7.92852 1.77106Q8.25325 1.59749 8.5861 1.44006Q8.91895 1.28264 9.25913 1.14173Q9.59931 1.00082 9.94599 0.87678Q10.2927 0.752736 10.645 0.645852Q10.9974 0.538968 11.3545 0.449501Q11.7117 0.360035 12.0728 0.288202Q12.434 0.216368 12.7982 0.162341Q13.1624 0.108315 13.5288 0.0722243Q13.8953 0.0361339 14.263 0.0180669Q14.6308 0 14.999 0L14.999 0Z" transform="translate(140 70)" id="path_6" />
    <path d="M14.999 0L45.001 0Q45.3692 0 45.737 0.0180669Q46.1047 0.0361339 46.4712 0.0722243Q46.8376 0.108315 47.2018 0.162341Q47.566 0.216368 47.9272 0.288202Q48.2883 0.360035 48.6455 0.449501Q49.0026 0.538968 49.355 0.645852Q49.7073 0.752736 50.054 0.87678Q50.4007 1.00082 50.7409 1.14173Q51.081 1.28264 51.4139 1.44006Q51.7467 1.59749 52.0715 1.77106Q52.3962 1.94463 52.712 2.13393Q53.0278 2.32322 53.334 2.52779Q53.6401 2.73235 53.9359 2.95169Q54.2316 3.17103 54.5163 3.40462Q54.8009 3.6382 55.0737 3.88547Q55.3465 4.13274 55.6069 4.39311Q55.8673 4.65346 56.1145 4.92629Q56.3618 5.19911 56.5954 5.48373Q56.829 5.76836 57.0483 6.06411Q57.2676 6.35985 57.4722 6.666Q57.6768 6.97215 57.8661 7.28797Q58.0554 7.60379 58.2289 7.92852Q58.4025 8.25325 58.5599 8.5861Q58.7174 8.91895 58.8583 9.25913Q58.9992 9.59931 59.1232 9.94599Q59.2473 10.2927 59.3541 10.645Q59.461 10.9974 59.5505 11.3545Q59.64 11.7117 59.7118 12.0728Q59.7836 12.434 59.8377 12.7982Q59.8917 13.1624 59.9278 13.5288Q59.9639 13.8953 59.9819 14.263Q60 14.6308 60 14.999L60 45.001Q60 45.3692 59.9819 45.737Q59.9639 46.1047 59.9278 46.4712Q59.8917 46.8376 59.8377 47.2018Q59.7836 47.566 59.7118 47.9272Q59.64 48.2883 59.5505 48.6455Q59.461 49.0026 59.3541 49.355Q59.2473 49.7073 59.1232 50.054Q58.9992 50.4007 58.8583 50.7409Q58.7174 51.081 58.5599 51.4139Q58.4025 51.7467 58.2289 52.0715Q58.0554 52.3962 57.8661 52.712Q57.6768 53.0278 57.4722 53.334Q57.2676 53.6401 57.0483 53.9359Q56.829 54.2316 56.5954 54.5163Q56.3618 54.8009 56.1145 55.0737Q55.8673 55.3465 55.6069 55.6069Q55.3465 55.8673 55.0737 56.1145Q54.8009 56.3618 54.5163 56.5954Q54.2316 56.829 53.9359 57.0483Q53.6401 57.2676 53.334 57.4722Q53.0278 57.6768 52.712 57.8661Q52.3962 58.0554 52.0715 58.2289Q51.7467 58.4025 51.4139 58.5599Q51.081 58.7174 50.7409 58.8583Q50.4007 58.9992 50.054 59.1232Q49.7073 59.2473 49.355 59.3541Q49.0026 59.461 48.6455 59.5505Q48.2883 59.64 47.9272 59.7118Q47.566 59.7836 47.2018 59.8377Q46.8376 59.8917 46.4712 59.9278Q46.1047 59.9639 45.737 59.9819Q45.3692 60 45.001 60L14.999 60Q14.6308 60 14.263 59.9819Q13.8953 59.9639 13.5288 59.9278Q13.1624 59.8917 12.7982 59.8377Q12.434 59.7836 12.0728 59.7118Q11.7117 59.64 11.3545 59.5505Q10.9974 59.461 10.645 59.3541Q10.2927 59.2473 9.94599 59.1232Q9.59931 58.9992 9.25913 58.8583Q8.91895 58.7174 8.5861 58.5599Q8.25325 58.4025 7.92852 58.2289Q7.60379 58.0554 7.28797 57.8661Q6.97215 57.6768 6.666 57.4722Q6.35985 57.2676 6.06411 57.0483Q5.76836 56.829 5.48373 56.5954Q5.19911 56.3618 4.92629 56.1145Q4.65346 55.8673 4.39311 55.6069Q4.13274 55.3465 3.88547 55.0737Q3.6382 54.8009 3.40462 54.5163Q3.17103 54.2316 2.95169 53.9359Q2.73235 53.6401 2.52779 53.334Q2.32322 53.0278 2.13393 52.712Q1.94463 52.3962 1.77106 52.0715Q1.59749 51.7467 1.44006 51.4139Q1.28264 51.081 1.14173 50.7409Q1.00082 50.4007 0.87678 50.054Q0.752736 49.7073 0.645852 49.355Q0.538968 49.0026 0.449501 48.6455Q0.360035 48.2883 0.288202 47.9272Q0.216368 47.566 0.162341 47.2018Q0.108315 46.8376 0.0722243 46.4712Q0.0361339 46.1047 0.0180669 45.737Q0 45.3692 0 45.001L0 14.999Q0 14.6308 0.0180669 14.263Q0.0361339 13.8953 0.0722243 13.5288Q0.108315 13.1624 0.162341 12.7982Q0.216368 12.434 0.288202 12.0728Q0.360035 11.7117 0.449501 11.3545Q0.538968 10.9974 0.645852 10.645Q0.752736 10.2927 0.87678 9.94599Q1.00082 9.59931 1.14173 9.25913Q1.28264 8.91895 1.44006 8.5861Q1.59749 8.25325 1.77106 7.92852Q1.94463 7.60379 2.13393 7.28797Q2.32322 6.97215 2.52779 6.666Q2.73235 6.35985 2.95169 6.06411Q3.17103 5.76836 3.40462 5.48373Q3.6382 5.19911 3.88547 4.92629Q4.13274 4.65346 4.39311 4.39311Q4.65346 4.13274 4.92629 3.88547Q5.19911 3.6382 5.48373 3.40462Q5.76836 3.17103 6.06411 2.95169Q6.35985 2.73235 6.666 2.52779Q6.97215 2.32322 7.28797 2.13393Q7.60379 1.94463 7.92852 1.77106Q8.25325 1.59749 8.5861 1.44006Q8.91895 1.28264 9.25913 1.14173Q9.59931 1.00082 9.94599 0.87678Q10.2927 0.752736 10.645 0.645852Q10.9974 0.538968 11.3545 0.449501Q11.7117 0.360035 12.0728 0.288202Q12.434 0.216368 12.7982 0.162341Q13.1624 0.108315 13.5288 0.0722243Q13.8953 0.0361339 14.263 0.0180669Q14.6308 0 14.999 0L14.999 0Z" transform="translate(0 140)" id="path_7" />
    <path d="M14.999 0L45.001 0Q45.3692 0 45.737 0.0180669Q46.1047 0.0361339 46.4712 0.0722243Q46.8376 0.108315 47.2018 0.162341Q47.566 0.216368 47.9272 0.288202Q48.2883 0.360035 48.6455 0.449501Q49.0026 0.538968 49.355 0.645852Q49.7073 0.752736 50.054 0.87678Q50.4007 1.00082 50.7409 1.14173Q51.081 1.28264 51.4139 1.44006Q51.7467 1.59749 52.0715 1.77106Q52.3962 1.94463 52.712 2.13393Q53.0278 2.32322 53.334 2.52779Q53.6401 2.73235 53.9359 2.95169Q54.2316 3.17103 54.5163 3.40462Q54.8009 3.6382 55.0737 3.88547Q55.3465 4.13274 55.6069 4.39311Q55.8673 4.65346 56.1145 4.92629Q56.3618 5.19911 56.5954 5.48373Q56.829 5.76836 57.0483 6.06411Q57.2676 6.35985 57.4722 6.666Q57.6768 6.97215 57.8661 7.28797Q58.0554 7.60379 58.2289 7.92852Q58.4025 8.25325 58.5599 8.5861Q58.7174 8.91895 58.8583 9.25913Q58.9992 9.59931 59.1232 9.94599Q59.2473 10.2927 59.3541 10.645Q59.461 10.9974 59.5505 11.3545Q59.64 11.7117 59.7118 12.0728Q59.7836 12.434 59.8377 12.7982Q59.8917 13.1624 59.9278 13.5288Q59.9639 13.8953 59.9819 14.263Q60 14.6308 60 14.999L60 45.001Q60 45.3692 59.9819 45.737Q59.9639 46.1047 59.9278 46.4712Q59.8917 46.8376 59.8377 47.2018Q59.7836 47.566 59.7118 47.9272Q59.64 48.2883 59.5505 48.6455Q59.461 49.0026 59.3541 49.355Q59.2473 49.7073 59.1232 50.054Q58.9992 50.4007 58.8583 50.7409Q58.7174 51.081 58.5599 51.4139Q58.4025 51.7467 58.2289 52.0715Q58.0554 52.3962 57.8661 52.712Q57.6768 53.0278 57.4722 53.334Q57.2676 53.6401 57.0483 53.9359Q56.829 54.2316 56.5954 54.5163Q56.3618 54.8009 56.1145 55.0737Q55.8673 55.3465 55.6069 55.6069Q55.3465 55.8673 55.0737 56.1145Q54.8009 56.3618 54.5163 56.5954Q54.2316 56.829 53.9359 57.0483Q53.6401 57.2676 53.334 57.4722Q53.0278 57.6768 52.712 57.8661Q52.3962 58.0554 52.0715 58.2289Q51.7467 58.4025 51.4139 58.5599Q51.081 58.7174 50.7409 58.8583Q50.4007 58.9992 50.054 59.1232Q49.7073 59.2473 49.355 59.3541Q49.0026 59.461 48.6455 59.5505Q48.2883 59.64 47.9272 59.7118Q47.566 59.7836 47.2018 59.8377Q46.8376 59.8917 46.4712 59.9278Q46.1047 59.9639 45.737 59.9819Q45.3692 60 45.001 60L14.999 60Q14.6308 60 14.263 59.9819Q13.8953 59.9639 13.5288 59.9278Q13.1624 59.8917 12.7982 59.8377Q12.434 59.7836 12.0728 59.7118Q11.7117 59.64 11.3545 59.5505Q10.9974 59.461 10.645 59.3541Q10.2927 59.2473 9.94599 59.1232Q9.59931 58.9992 9.25913 58.8583Q8.91895 58.7174 8.5861 58.5599Q8.25325 58.4025 7.92852 58.2289Q7.60379 58.0554 7.28797 57.8661Q6.97215 57.6768 6.666 57.4722Q6.35985 57.2676 6.06411 57.0483Q5.76836 56.829 5.48373 56.5954Q5.19911 56.3618 4.92629 56.1145Q4.65346 55.8673 4.39311 55.6069Q4.13274 55.3465 3.88547 55.0737Q3.6382 54.8009 3.40462 54.5163Q3.17103 54.2316 2.95169 53.9359Q2.73235 53.6401 2.52779 53.334Q2.32322 53.0278 2.13393 52.712Q1.94463 52.3962 1.77106 52.0715Q1.59749 51.7467 1.44006 51.4139Q1.28264 51.081 1.14173 50.7409Q1.00082 50.4007 0.87678 50.054Q0.752736 49.7073 0.645852 49.355Q0.538968 49.0026 0.449501 48.6455Q0.360035 48.2883 0.288202 47.9272Q0.216368 47.566 0.162341 47.2018Q0.108315 46.8376 0.0722243 46.4712Q0.0361339 46.1047 0.0180669 45.737Q0 45.3692 0 45.001L0 14.999Q0 14.6308 0.0180669 14.263Q0.0361339 13.8953 0.0722243 13.5288Q0.108315 13.1624 0.162341 12.7982Q0.216368 12.434 0.288202 12.0728Q0.360035 11.7117 0.449501 11.3545Q0.538968 10.9974 0.645852 10.645Q0.752736 10.2927 0.87678 9.94599Q1.00082 9.59931 1.14173 9.25913Q1.28264 8.91895 1.44006 8.5861Q1.59749 8.25325 1.77106 7.92852Q1.94463 7.60379 2.13393 7.28797Q2.32322 6.97215 2.52779 6.666Q2.73235 6.35985 2.95169 6.06411Q3.17103 5.76836 3.40462 5.48373Q3.6382 5.19911 3.88547 4.92629Q4.13274 4.65346 4.39311 4.39311Q4.65346 4.13274 4.92629 3.88547Q5.19911 3.6382 5.48373 3.40462Q5.76836 3.17103 6.06411 2.95169Q6.35985 2.73235 6.666 2.52779Q6.97215 2.32322 7.28797 2.13393Q7.60379 1.94463 7.92852 1.77106Q8.25325 1.59749 8.5861 1.44006Q8.91895 1.28264 9.25913 1.14173Q9.59931 1.00082 9.94599 0.87678Q10.2927 0.752736 10.645 0.645852Q10.9974 0.538968 11.3545 0.449501Q11.7117 0.360035 12.0728 0.288202Q12.434 0.216368 12.7982 0.162341Q13.1624 0.108315 13.5288 0.0722243Q13.8953 0.0361339 14.263 0.0180669Q14.6308 0 14.999 0L14.999 0Z" transform="translate(70 140)" id="path_8" />
    <path d="M14.999 0L45.001 0Q45.3692 0 45.737 0.0180669Q46.1047 0.0361339 46.4712 0.0722243Q46.8376 0.108315 47.2018 0.162341Q47.566 0.216368 47.9272 0.288202Q48.2883 0.360035 48.6455 0.449501Q49.0026 0.538968 49.355 0.645852Q49.7073 0.752736 50.054 0.87678Q50.4007 1.00082 50.7409 1.14173Q51.081 1.28264 51.4139 1.44006Q51.7467 1.59749 52.0715 1.77106Q52.3962 1.94463 52.712 2.13393Q53.0278 2.32322 53.334 2.52779Q53.6401 2.73235 53.9359 2.95169Q54.2316 3.17103 54.5163 3.40462Q54.8009 3.6382 55.0737 3.88547Q55.3465 4.13274 55.6069 4.39311Q55.8673 4.65346 56.1145 4.92629Q56.3618 5.19911 56.5954 5.48373Q56.829 5.76836 57.0483 6.06411Q57.2676 6.35985 57.4722 6.666Q57.6768 6.97215 57.8661 7.28797Q58.0554 7.60379 58.2289 7.92852Q58.4025 8.25325 58.5599 8.5861Q58.7174 8.91895 58.8583 9.25913Q58.9992 9.59931 59.1232 9.94599Q59.2473 10.2927 59.3541 10.645Q59.461 10.9974 59.5505 11.3545Q59.64 11.7117 59.7118 12.0728Q59.7836 12.434 59.8377 12.7982Q59.8917 13.1624 59.9278 13.5288Q59.9639 13.8953 59.9819 14.263Q60 14.6308 60 14.999L60 45.001Q60 45.3692 59.9819 45.737Q59.9639 46.1047 59.9278 46.4712Q59.8917 46.8376 59.8377 47.2018Q59.7836 47.566 59.7118 47.9272Q59.64 48.2883 59.5505 48.6455Q59.461 49.0026 59.3541 49.355Q59.2473 49.7073 59.1232 50.054Q58.9992 50.4007 58.8583 50.7409Q58.7174 51.081 58.5599 51.4139Q58.4025 51.7467 58.2289 52.0715Q58.0554 52.3962 57.8661 52.712Q57.6768 53.0278 57.4722 53.334Q57.2676 53.6401 57.0483 53.9359Q56.829 54.2316 56.5954 54.5163Q56.3618 54.8009 56.1145 55.0737Q55.8673 55.3465 55.6069 55.6069Q55.3465 55.8673 55.0737 56.1145Q54.8009 56.3618 54.5163 56.5954Q54.2316 56.829 53.9359 57.0483Q53.6401 57.2676 53.334 57.4722Q53.0278 57.6768 52.712 57.8661Q52.3962 58.0554 52.0715 58.2289Q51.7467 58.4025 51.4139 58.5599Q51.081 58.7174 50.7409 58.8583Q50.4007 58.9992 50.054 59.1232Q49.7073 59.2473 49.355 59.3541Q49.0026 59.461 48.6455 59.5505Q48.2883 59.64 47.9272 59.7118Q47.566 59.7836 47.2018 59.8377Q46.8376 59.8917 46.4712 59.9278Q46.1047 59.9639 45.737 59.9819Q45.3692 60 45.001 60L14.999 60Q14.6308 60 14.263 59.9819Q13.8953 59.9639 13.5288 59.9278Q13.1624 59.8917 12.7982 59.8377Q12.434 59.7836 12.0728 59.7118Q11.7117 59.64 11.3545 59.5505Q10.9974 59.461 10.645 59.3541Q10.2927 59.2473 9.94599 59.1232Q9.59931 58.9992 9.25913 58.8583Q8.91895 58.7174 8.5861 58.5599Q8.25325 58.4025 7.92852 58.2289Q7.60379 58.0554 7.28797 57.8661Q6.97215 57.6768 6.666 57.4722Q6.35985 57.2676 6.06411 57.0483Q5.76836 56.829 5.48373 56.5954Q5.19911 56.3618 4.92629 56.1145Q4.65346 55.8673 4.39311 55.6069Q4.13274 55.3465 3.88547 55.0737Q3.6382 54.8009 3.40462 54.5163Q3.17103 54.2316 2.95169 53.9359Q2.73235 53.6401 2.52779 53.334Q2.32322 53.0278 2.13393 52.712Q1.94463 52.3962 1.77106 52.0715Q1.59749 51.7467 1.44006 51.4139Q1.28264 51.081 1.14173 50.7409Q1.00082 50.4007 0.87678 50.054Q0.752736 49.7073 0.645852 49.355Q0.538968 49.0026 0.449501 48.6455Q0.360035 48.2883 0.288202 47.9272Q0.216368 47.566 0.162341 47.2018Q0.108315 46.8376 0.0722243 46.4712Q0.0361339 46.1047 0.0180669 45.737Q0 45.3692 0 45.001L0 14.999Q0 14.6308 0.0180669 14.263Q0.0361339 13.8953 0.0722243 13.5288Q0.108315 13.1624 0.162341 12.7982Q0.216368 12.434 0.288202 12.0728Q0.360035 11.7117 0.449501 11.3545Q0.538968 10.9974 0.645852 10.645Q0.752736 10.2927 0.87678 9.94599Q1.00082 9.59931 1.14173 9.25913Q1.28264 8.91895 1.44006 8.5861Q1.59749 8.25325 1.77106 7.92852Q1.94463 7.60379 2.13393 7.28797Q2.32322 6.97215 2.52779 6.666Q2.73235 6.35985 2.95169 6.06411Q3.17103 5.76836 3.40462 5.48373Q3.6382 5.19911 3.88547 4.92629Q4.13274 4.65346 4.39311 4.39311Q4.65346 4.13274 4.92629 3.88547Q5.19911 3.6382 5.48373 3.40462Q5.76836 3.17103 6.06411 2.95169Q6.35985 2.73235 6.666 2.52779Q6.97215 2.32322 7.28797 2.13393Q7.60379 1.94463 7.92852 1.77106Q8.25325 1.59749 8.5861 1.44006Q8.91895 1.28264 9.25913 1.14173Q9.59931 1.00082 9.94599 0.87678Q10.2927 0.752736 10.645 0.645852Q10.9974 0.538968 11.3545 0.449501Q11.7117 0.360035 12.0728 0.288202Q12.434 0.216368 12.7982 0.162341Q13.1624 0.108315 13.5288 0.0722243Q13.8953 0.0361339 14.263 0.0180669Q14.6308 0 14.999 0L14.999 0Z" transform="translate(140 140)" id="path_9" />
    <clipPath id="clip_1">
      <use xlink:href="#path_1" />
    </clipPath>
    <clipPath id="clip_2">
      <use xlink:href="#path_2" />
    </clipPath>
    <clipPath id="clip_3">
      <use xlink:href="#path_3" />
    </clipPath>
    <clipPath id="clip_4">
      <use xlink:href="#path_4" />
    </clipPath>
    <clipPath id="clip_5">
      <use xlink:href="#path_5" />
    </clipPath>
    <clipPath id="clip_6">
      <use xlink:href="#path_6" />
    </clipPath>
    <clipPath id="clip_7">
      <use xlink:href="#path_7" />
    </clipPath>
    <clipPath id="clip_8">
      <use xlink:href="#path_8" />
    </clipPath>
    <clipPath id="clip_9">
      <use xlink:href="#path_9" />
    </clipPath>
  </defs>
  <g id="Group">
    <g id="1-1">
      <g clip-path="url(#clip_1)">
        <use xlink:href="#path_1" fill="none" stroke="#323232" stroke-width="20" />
      </g>
    </g>
    <g id="1-2">
      <g clip-path="url(#clip_2)">
        <use xlink:href="#path_2" fill="none" stroke="#323232" stroke-width="20" />
      </g>
    </g>
    <g id="1-3">
      <g clip-path="url(#clip_3)">
        <use xlink:href="#path_3" fill="none" stroke="#323232" stroke-width="20" />
      </g>
    </g>
    <g id="2-1">
      <g clip-path="url(#clip_4)">
        <use xlink:href="#path_4" fill="none" stroke="#323232" stroke-width="20" />
      </g>
    </g>
    <g id="2-2">
      <g clip-path="url(#clip_5)">
        <use xlink:href="#path_5" fill="none" stroke="#323232" stroke-width="20" />
      </g>
    </g>
    <g id="2-3">
      <g clip-path="url(#clip_6)">
        <use xlink:href="#path_6" fill="none" stroke="#323232" stroke-width="20" />
      </g>
    </g>
    <g id="3-1">
      <g clip-path="url(#clip_7)">
        <use xlink:href="#path_7" fill="none" stroke="#323232" stroke-width="20" />
      </g>
    </g>
    <g id="3-2">
      <g clip-path="url(#clip_8)">
        <use xlink:href="#path_8" fill="none" stroke="#323232" stroke-width="20" />
      </g>
    </g>
    <g id="3-3">
      <g clip-path="url(#clip_9)">
        <use xlink:href="#path_9" fill="none" stroke="#323232" stroke-width="20" />
      </g>
    </g>
  </g>
</svg>