<?xml version="1.0" encoding="utf-8"?>
<svg width="200px" height="200px" viewBox="0 0 200 200" version="1.1" xmlns:xlink="http://www.w3.org/1999/xlink" xmlns="http://www.w3.org/2000/svg">
  <defs>
    <path d="M14.999 0L45.001 0C45.2465 0 45.4918 0.00602722 45.737 0.0180664C45.9821 0.0301056 46.2269 0.0481567 46.4712 0.0722199C46.7155 0.096283 46.959 0.126328 47.2018 0.162338C47.4446 0.198364 47.6864 0.240311 47.9272 0.288208C48.1679 0.33609 48.4074 0.389862 48.6455 0.449493C48.8836 0.50914 49.1201 0.5746 49.355 0.645859C49.5899 0.717102 49.8229 0.794083 50.054 0.876785C50.2851 0.959473 50.5141 1.04779 50.7409 1.14172C50.9676 1.23567 51.192 1.33511 51.4139 1.44006C51.6358 1.54501 51.855 1.65535 52.0715 1.77106C52.288 1.88678 52.5015 2.00774 52.712 2.13393C52.9225 2.26012 53.1299 2.3914 53.334 2.52779C53.5381 2.66417 53.7387 2.80547 53.9359 2.95169C54.133 3.09792 54.3265 3.24889 54.5163 3.40462C54.706 3.56033 54.8918 3.72063 55.0737 3.88547C55.2556 4.05032 55.4333 4.21953 55.6069 4.39311C55.7805 4.56668 55.9497 4.7444 56.1145 4.92628C56.2794 5.10817 56.4397 5.29398 56.5954 5.48373C56.7511 5.67348 56.9021 5.86694 57.0483 6.06412C57.1945 6.26128 57.3358 6.4619 57.4722 6.666C57.6086 6.8701 57.7399 7.07742 57.8661 7.28796C57.9923 7.49852 58.1132 7.71204 58.2289 7.92853C58.3446 8.14501 58.455 8.3642 58.5599 8.58611C58.6649 8.808 58.7644 9.03235 58.8583 9.25912C58.9522 9.48592 59.0405 9.71488 59.1232 9.94598C59.2059 10.1771 59.2829 10.4101 59.3541 10.645C59.4254 10.8799 59.4908 11.1164 59.5505 11.3545C59.6102 11.5926 59.6639 11.8321 59.7118 12.0728C59.7597 12.3136 59.8016 12.5554 59.8377 12.7982C59.8737 13.041 59.9037 13.2845 59.9278 13.5288C59.9519 13.7731 59.9699 14.0179 59.9819 14.263C59.994 14.5082 60 14.7535 60 14.999L60 45.001C60 45.2465 59.994 45.4918 59.9819 45.737C59.9699 45.9821 59.9519 46.2269 59.9278 46.4712C59.9037 46.7155 59.8737 46.959 59.8377 47.2018C59.8016 47.4446 59.7597 47.6864 59.7118 47.9272C59.6639 48.1679 59.6102 48.4074 59.5505 48.6455C59.4908 48.8836 59.4254 49.1201 59.3541 49.355C59.2829 49.5899 59.2059 49.8229 59.1232 50.054C59.0405 50.2851 58.9522 50.5141 58.8583 50.7409C58.7644 50.9676 58.6649 51.192 58.5599 51.4139C58.455 51.6358 58.3446 51.855 58.2289 52.0715C58.1132 52.288 57.9923 52.5015 57.8661 52.712C57.7399 52.9225 57.6086 53.1299 57.4722 53.334C57.3358 53.5381 57.1945 53.7387 57.0483 53.9359C56.9021 54.133 56.7511 54.3265 56.5954 54.5163C56.4397 54.706 56.2794 54.8918 56.1145 55.0737C55.9497 55.2556 55.7805 55.4333 55.6069 55.6069C55.4333 55.7805 55.2556 55.9497 55.0737 56.1145C54.8918 56.2794 54.706 56.4397 54.5163 56.5954C54.3265 56.7511 54.133 56.9021 53.9359 57.0483C53.7387 57.1945 53.5381 57.3358 53.334 57.4722C53.1299 57.6086 52.9225 57.7399 52.712 57.8661C52.5015 57.9923 52.288 58.1132 52.0715 58.2289C51.855 58.3446 51.6358 58.455 51.4139 58.5599C51.192 58.6649 50.9676 58.7644 50.7409 58.8583C50.5141 58.9522 50.2851 59.0405 50.054 59.1232C49.8229 59.2059 49.5899 59.2829 49.355 59.3541C49.1201 59.4254 48.8836 59.4908 48.6455 59.5505C48.4074 59.6102 48.1679 59.6639 47.9272 59.7118C47.6864 59.7597 47.4446 59.8016 47.2018 59.8377C46.959 59.8737 46.7155 59.9037 46.4712 59.9278C46.2269 59.9519 45.9821 59.9699 45.737 59.9819C45.4918 59.994 45.2465 60 45.001 60L14.999 60C14.7535 60 14.5082 59.994 14.263 59.9819C14.0179 59.9699 13.7731 59.9519 13.5288 59.9278C13.2845 59.9037 13.041 59.8737 12.7982 59.8377C12.5554 59.8016 12.3136 59.7597 12.0728 59.7118C11.8321 59.6639 11.5926 59.6102 11.3545 59.5505C11.1164 59.4908 10.8799 59.4254 10.645 59.3541C10.4101 59.2829 10.1771 59.2059 9.94598 59.1232C9.71488 59.0405 9.48592 58.9522 9.25912 58.8583C9.03235 58.7644 8.808 58.6649 8.58611 58.5599C8.3642 58.455 8.14501 58.3446 7.92853 58.2289C7.71204 58.1132 7.49852 57.9923 7.28796 57.8661C7.07742 57.7399 6.8701 57.6086 6.666 57.4722C6.4619 57.3358 6.26128 57.1945 6.06412 57.0483C5.86694 56.9021 5.67348 56.7511 5.48373 56.5954C5.29398 56.4397 5.10817 56.2794 4.92628 56.1145C4.7444 55.9497 4.56668 55.7805 4.39311 55.6069C4.21953 55.4333 4.05032 55.2556 3.88547 55.0737C3.72063 54.8918 3.56033 54.706 3.40462 54.5163C3.24889 54.3265 3.09792 54.133 2.95169 53.9359C2.80547 53.7387 2.66417 53.5381 2.52779 53.334C2.3914 53.1299 2.26012 52.9225 2.13393 52.712C2.00774 52.5015 1.88678 52.288 1.77106 52.0715C1.65535 51.855 1.54501 51.6358 1.44006 51.4139C1.33511 51.192 1.23567 50.9676 1.14172 50.7409C1.04779 50.5141 0.959473 50.2851 0.876785 50.054C0.794083 49.8229 0.717102 49.5899 0.645859 49.355C0.5746 49.1201 0.50914 48.8836 0.449493 48.6455C0.389862 48.4074 0.33609 48.1679 0.288208 47.9272C0.240311 47.6864 0.198364 47.4446 0.162338 47.2018C0.126328 46.959 0.096283 46.7155 0.0722199 46.4712C0.0481567 46.2269 0.0301056 45.9821 0.0180664 45.737C0.00602722 45.4918 0 45.2465 0 45.001L0 14.999C0 14.7535 0.00602722 14.5082 0.0180664 14.263C0.0301056 14.0179 0.0481567 13.7731 0.0722199 13.5288C0.096283 13.2845 0.126328 13.041 0.162338 12.7982C0.198364 12.5554 0.240311 12.3136 0.288208 12.0728C0.33609 11.8321 0.389862 11.5926 0.449493 11.3545C0.50914 11.1164 0.5746 10.8799 0.645859 10.645C0.717102 10.4101 0.794083 10.1771 0.876785 9.94598C0.959473 9.71488 1.04779 9.48592 1.14172 9.25912C1.23567 9.03235 1.33511 8.808 1.44006 8.58611C1.54501 8.3642 1.65535 8.14501 1.77106 7.92853C1.88678 7.71204 2.00774 7.49852 2.13393 7.28796C2.26012 7.07742 2.3914 6.8701 2.52779 6.666C2.66417 6.4619 2.80547 6.26128 2.95169 6.06412C3.09792 5.86694 3.24889 5.67348 3.40462 5.48373C3.56033 5.29398 3.72063 5.10817 3.88547 4.92628C4.05032 4.7444 4.21953 4.56668 4.39311 4.39311C4.56668 4.21953 4.7444 4.05032 4.92628 3.88547C5.10817 3.72063 5.29398 3.56033 5.48373 3.40462C5.67348 3.24889 5.86694 3.09792 6.06412 2.95169C6.26128 2.80547 6.4619 2.66417 6.666 2.52779C6.8701 2.3914 7.07742 2.26012 7.28796 2.13393C7.49852 2.00774 7.71204 1.88678 7.92853 1.77106C8.14501 1.65535 8.3642 1.54501 8.58611 1.44006C8.808 1.33511 9.03235 1.23567 9.25912 1.14172C9.48592 1.04779 9.71488 0.959473 9.94598 0.876785C10.1771 0.794083 10.4101 0.717102 10.645 0.645859C10.8799 0.5746 11.1164 0.50914 11.3545 0.449493C11.5926 0.389862 11.8321 0.33609 12.0728 0.288208C12.3136 0.240311 12.5554 0.198364 12.7982 0.162338C13.041 0.126328 13.2845 0.096283 13.5288 0.0722199C13.7731 0.0481567 14.0179 0.0301056 14.263 0.0180664C14.5082 0.00602722 14.7535 0 14.999 0L14.999 0L14.999 0Z" transform="translate(140 0)" id="path_1" />
    <path d="M14.999 0L45.001 0C45.2465 0 45.4918 0.00602722 45.737 0.0180664C45.9821 0.0301056 46.2269 0.0481567 46.4712 0.0722199C46.7155 0.096283 46.959 0.126328 47.2018 0.162338C47.4446 0.198364 47.6864 0.240311 47.9272 0.288208C48.1679 0.33609 48.4074 0.389862 48.6455 0.449493C48.8836 0.50914 49.1201 0.5746 49.355 0.645859C49.5899 0.717102 49.8229 0.794083 50.054 0.876785C50.2851 0.959473 50.5141 1.04779 50.7409 1.14172C50.9676 1.23567 51.192 1.33511 51.4139 1.44006C51.6358 1.54501 51.855 1.65535 52.0715 1.77106C52.288 1.88678 52.5015 2.00774 52.712 2.13393C52.9225 2.26012 53.1299 2.3914 53.334 2.52779C53.5381 2.66417 53.7387 2.80547 53.9359 2.95169C54.133 3.09792 54.3265 3.24889 54.5163 3.40462C54.706 3.56033 54.8918 3.72063 55.0737 3.88547C55.2556 4.05032 55.4333 4.21953 55.6069 4.39311C55.7805 4.56668 55.9497 4.7444 56.1145 4.92628C56.2794 5.10817 56.4397 5.29398 56.5954 5.48373C56.7511 5.67348 56.9021 5.86694 57.0483 6.06412C57.1945 6.26128 57.3358 6.4619 57.4722 6.666C57.6086 6.8701 57.7399 7.07742 57.8661 7.28796C57.9923 7.49852 58.1132 7.71204 58.2289 7.92853C58.3446 8.14501 58.455 8.3642 58.5599 8.58611C58.6649 8.808 58.7644 9.03235 58.8583 9.25912C58.9522 9.48592 59.0405 9.71488 59.1232 9.94598C59.2059 10.1771 59.2829 10.4101 59.3541 10.645C59.4254 10.8799 59.4908 11.1164 59.5505 11.3545C59.6102 11.5926 59.6639 11.8321 59.7118 12.0728C59.7597 12.3136 59.8016 12.5554 59.8377 12.7982C59.8737 13.041 59.9037 13.2845 59.9278 13.5288C59.9519 13.7731 59.9699 14.0179 59.9819 14.263C59.994 14.5082 60 14.7535 60 14.999L60 45.001C60 45.2465 59.994 45.4918 59.9819 45.737C59.9699 45.9821 59.9519 46.2269 59.9278 46.4712C59.9037 46.7155 59.8737 46.959 59.8377 47.2018C59.8016 47.4446 59.7597 47.6864 59.7118 47.9272C59.6639 48.1679 59.6102 48.4074 59.5505 48.6455C59.4908 48.8836 59.4254 49.1201 59.3541 49.355C59.2829 49.5899 59.2059 49.8229 59.1232 50.054C59.0405 50.2851 58.9522 50.5141 58.8583 50.7409C58.7644 50.9676 58.6649 51.192 58.5599 51.4139C58.455 51.6358 58.3446 51.855 58.2289 52.0715C58.1132 52.288 57.9923 52.5015 57.8661 52.712C57.7399 52.9225 57.6086 53.1299 57.4722 53.334C57.3358 53.5381 57.1945 53.7387 57.0483 53.9359C56.9021 54.133 56.7511 54.3265 56.5954 54.5163C56.4397 54.706 56.2794 54.8918 56.1145 55.0737C55.9497 55.2556 55.7805 55.4333 55.6069 55.6069C55.4333 55.7805 55.2556 55.9497 55.0737 56.1145C54.8918 56.2794 54.706 56.4397 54.5163 56.5954C54.3265 56.7511 54.133 56.9021 53.9359 57.0483C53.7387 57.1945 53.5381 57.3358 53.334 57.4722C53.1299 57.6086 52.9225 57.7399 52.712 57.8661C52.5015 57.9923 52.288 58.1132 52.0715 58.2289C51.855 58.3446 51.6358 58.455 51.4139 58.5599C51.192 58.6649 50.9676 58.7644 50.7409 58.8583C50.5141 58.9522 50.2851 59.0405 50.054 59.1232C49.8229 59.2059 49.5899 59.2829 49.355 59.3541C49.1201 59.4254 48.8836 59.4908 48.6455 59.5505C48.4074 59.6102 48.1679 59.6639 47.9272 59.7118C47.6864 59.7597 47.4446 59.8016 47.2018 59.8377C46.959 59.8737 46.7155 59.9037 46.4712 59.9278C46.2269 59.9519 45.9821 59.9699 45.737 59.9819C45.4918 59.994 45.2465 60 45.001 60L14.999 60C14.7535 60 14.5082 59.994 14.263 59.9819C14.0179 59.9699 13.7731 59.9519 13.5288 59.9278C13.2845 59.9037 13.041 59.8737 12.7982 59.8377C12.5554 59.8016 12.3136 59.7597 12.0728 59.7118C11.8321 59.6639 11.5926 59.6102 11.3545 59.5505C11.1164 59.4908 10.8799 59.4254 10.645 59.3541C10.4101 59.2829 10.1771 59.2059 9.94599 59.1232C9.71487 59.0405 9.48592 58.9522 9.25913 58.8583C9.03234 58.7644 8.808 58.6649 8.5861 58.5599C8.3642 58.455 8.14501 58.3446 7.92852 58.2289C7.71204 58.1132 7.49852 57.9923 7.28797 57.8661C7.07742 57.7399 6.8701 57.6086 6.666 57.4722C6.4619 57.3358 6.26127 57.1945 6.06411 57.0483C5.86694 56.9021 5.67348 56.7511 5.48373 56.5954C5.29398 56.4397 5.10817 56.2794 4.92629 56.1145C4.7444 55.9497 4.56667 55.7805 4.39311 55.6069C4.21953 55.4333 4.05032 55.2556 3.88547 55.0737C3.72063 54.8918 3.56034 54.706 3.40462 54.5163C3.24889 54.3265 3.09792 54.133 2.95169 53.9359C2.80547 53.7387 2.66416 53.5381 2.52779 53.334C2.39141 53.1299 2.26012 52.9225 2.13393 52.712C2.00773 52.5015 1.88677 52.288 1.77106 52.0715C1.65535 51.855 1.54501 51.6358 1.44006 51.4139C1.33511 51.192 1.23567 50.9676 1.14173 50.7409C1.04779 50.5141 0.959473 50.2851 0.876778 50.054C0.794083 49.8229 0.71711 49.5899 0.645851 49.355C0.574593 49.1201 0.509148 48.8836 0.449501 48.6455C0.389854 48.4074 0.33609 48.1679 0.2882 47.9272C0.240311 47.6864 0.198357 47.4446 0.162338 47.2018C0.12632 46.959 0.096283 46.7155 0.0722275 46.4712C0.0481644 46.2269 0.0301132 45.9821 0.0180664 45.737C0.00601959 45.4918 0 45.2465 0 45.001L0 14.999C0 14.7535 0.00601959 14.5082 0.0180664 14.263C0.0301132 14.0179 0.0481644 13.7731 0.0722275 13.5288C0.096283 13.2845 0.12632 13.041 0.162338 12.7982C0.198357 12.5554 0.240311 12.3136 0.2882 12.0728C0.33609 11.8321 0.389854 11.5926 0.449501 11.3545C0.509148 11.1164 0.574593 10.8799 0.645851 10.645C0.71711 10.4101 0.794083 10.1771 0.876778 9.94598C0.959473 9.71488 1.04779 9.48592 1.14173 9.25912C1.23567 9.03235 1.33511 8.808 1.44006 8.58611C1.54501 8.3642 1.65535 8.14501 1.77106 7.92853C1.88677 7.71204 2.00773 7.49852 2.13393 7.28796C2.26012 7.07742 2.39141 6.8701 2.52779 6.666C2.66416 6.4619 2.80547 6.26128 2.95169 6.06412C3.09792 5.86694 3.24889 5.67348 3.40462 5.48373C3.56034 5.29398 3.72063 5.10817 3.88547 4.92628C4.05032 4.7444 4.21953 4.56668 4.39311 4.39311C4.56667 4.21953 4.7444 4.05032 4.92629 3.88547C5.10817 3.72063 5.29398 3.56033 5.48373 3.40462C5.67348 3.24889 5.86694 3.09792 6.06411 2.95169C6.26127 2.80547 6.4619 2.66417 6.666 2.52779C6.8701 2.3914 7.07742 2.26012 7.28797 2.13393C7.49852 2.00774 7.71204 1.88678 7.92852 1.77106C8.14501 1.65535 8.3642 1.54501 8.5861 1.44006C8.808 1.33511 9.03234 1.23567 9.25913 1.14172C9.48592 1.04779 9.71487 0.959473 9.94599 0.876785C10.1771 0.794083 10.4101 0.717102 10.645 0.645859C10.8799 0.5746 11.1164 0.50914 11.3545 0.449493C11.5926 0.389862 11.8321 0.33609 12.0728 0.288208C12.3136 0.240311 12.5554 0.198364 12.7982 0.162338C13.041 0.126328 13.2845 0.096283 13.5288 0.0722199C13.7731 0.0481567 14.0179 0.0301056 14.263 0.0180664C14.5082 0.00602722 14.7535 0 14.999 0L14.999 0L14.999 0Z" transform="translate(70 0)" id="path_2" />
    <path d="M14.999 0L45.001 0C45.2465 0 45.4918 0.00602722 45.737 0.0180664C45.9821 0.0301056 46.2269 0.0481567 46.4712 0.0722199C46.7155 0.096283 46.959 0.126328 47.2018 0.162338C47.4446 0.198364 47.6864 0.240311 47.9272 0.288208C48.1679 0.33609 48.4074 0.389862 48.6455 0.449493C48.8836 0.50914 49.1201 0.5746 49.355 0.645859C49.5899 0.717102 49.8229 0.794083 50.054 0.876785C50.2851 0.959473 50.5141 1.04779 50.7409 1.14172C50.9676 1.23567 51.192 1.33511 51.4139 1.44006C51.6358 1.54501 51.855 1.65535 52.0715 1.77106C52.288 1.88678 52.5015 2.00774 52.712 2.13393C52.9225 2.26012 53.1299 2.3914 53.334 2.52779C53.5381 2.66417 53.7387 2.80547 53.9359 2.95169C54.133 3.09792 54.3265 3.24889 54.5163 3.40462C54.706 3.56033 54.8918 3.72063 55.0737 3.88547C55.2556 4.05032 55.4333 4.21953 55.6069 4.39311C55.7805 4.56668 55.9497 4.7444 56.1145 4.92628C56.2794 5.10817 56.4397 5.29398 56.5954 5.48373C56.7511 5.67348 56.9021 5.86694 57.0483 6.06412C57.1945 6.26128 57.3358 6.4619 57.4722 6.666C57.6086 6.8701 57.7399 7.07742 57.8661 7.28796C57.9923 7.49852 58.1132 7.71204 58.2289 7.92853C58.3446 8.14501 58.455 8.3642 58.5599 8.58611C58.6649 8.808 58.7644 9.03235 58.8583 9.25912C58.9522 9.48592 59.0405 9.71488 59.1232 9.94598C59.2059 10.1771 59.2829 10.4101 59.3541 10.645C59.4254 10.8799 59.4908 11.1164 59.5505 11.3545C59.6102 11.5926 59.6639 11.8321 59.7118 12.0728C59.7597 12.3136 59.8016 12.5554 59.8377 12.7982C59.8737 13.041 59.9037 13.2845 59.9278 13.5288C59.9519 13.7731 59.9699 14.0179 59.9819 14.263C59.994 14.5082 60 14.7535 60 14.999L60 45.001C60 45.2465 59.994 45.4918 59.9819 45.737C59.9699 45.9821 59.9519 46.2269 59.9278 46.4712C59.9037 46.7155 59.8737 46.959 59.8377 47.2018C59.8016 47.4446 59.7597 47.6864 59.7118 47.9272C59.6639 48.1679 59.6102 48.4074 59.5505 48.6455C59.4908 48.8836 59.4254 49.1201 59.3541 49.355C59.2829 49.5899 59.2059 49.8229 59.1232 50.054C59.0405 50.2851 58.9522 50.5141 58.8583 50.7409C58.7644 50.9676 58.6649 51.192 58.5599 51.4139C58.455 51.6358 58.3446 51.855 58.2289 52.0715C58.1132 52.288 57.9923 52.5015 57.8661 52.712C57.7399 52.9225 57.6086 53.1299 57.4722 53.334C57.3358 53.5381 57.1945 53.7387 57.0483 53.9359C56.9021 54.133 56.7511 54.3265 56.5954 54.5163C56.4397 54.706 56.2794 54.8918 56.1145 55.0737C55.9497 55.2556 55.7805 55.4333 55.6069 55.6069C55.4333 55.7805 55.2556 55.9497 55.0737 56.1145C54.8918 56.2794 54.706 56.4397 54.5163 56.5954C54.3265 56.7511 54.133 56.9021 53.9359 57.0483C53.7387 57.1945 53.5381 57.3358 53.334 57.4722C53.1299 57.6086 52.9225 57.7399 52.712 57.8661C52.5015 57.9923 52.288 58.1132 52.0715 58.2289C51.855 58.3446 51.6358 58.455 51.4139 58.5599C51.192 58.6649 50.9676 58.7644 50.7409 58.8583C50.5141 58.9522 50.2851 59.0405 50.054 59.1232C49.8229 59.2059 49.5899 59.2829 49.355 59.3541C49.1201 59.4254 48.8836 59.4908 48.6455 59.5505C48.4074 59.6102 48.1679 59.6639 47.9272 59.7118C47.6864 59.7597 47.4446 59.8016 47.2018 59.8377C46.959 59.8737 46.7155 59.9037 46.4712 59.9278C46.2269 59.9519 45.9821 59.9699 45.737 59.9819C45.4918 59.994 45.2465 60 45.001 60L14.999 60C14.7535 60 14.5082 59.994 14.263 59.9819C14.0179 59.9699 13.7731 59.9519 13.5288 59.9278C13.2845 59.9037 13.041 59.8737 12.7982 59.8377C12.5554 59.8016 12.3136 59.7597 12.0728 59.7118C11.8321 59.6639 11.5926 59.6102 11.3545 59.5505C11.1164 59.4908 10.8799 59.4254 10.645 59.3541C10.4101 59.2829 10.1771 59.2059 9.94599 59.1232C9.71487 59.0405 9.48592 58.9522 9.25913 58.8583C9.03234 58.7644 8.808 58.6649 8.5861 58.5599C8.3642 58.455 8.14501 58.3446 7.92852 58.2289C7.71203 58.1132 7.49852 57.9923 7.28797 57.8661C7.07742 57.7399 6.8701 57.6086 6.666 57.4722C6.4619 57.3358 6.26127 57.1945 6.06411 57.0483C5.86694 56.9021 5.67348 56.7511 5.48373 56.5954C5.29398 56.4397 5.10817 56.2794 4.92629 56.1145C4.7444 55.9497 4.56668 55.7805 4.39311 55.6069C4.21953 55.4333 4.05032 55.2556 3.88547 55.0737C3.72062 54.8918 3.56034 54.706 3.40462 54.5163C3.24889 54.3265 3.09792 54.133 2.95169 53.9359C2.80546 53.7387 2.66416 53.5381 2.52779 53.334C2.39141 53.1299 2.26012 52.9225 2.13393 52.712C2.00773 52.5015 1.88677 52.288 1.77106 52.0715C1.65535 51.855 1.54501 51.6358 1.44006 51.4139C1.33511 51.192 1.23567 50.9676 1.14173 50.7409C1.04779 50.5141 0.959473 50.2851 0.87678 50.054C0.794084 49.8229 0.717108 49.5899 0.645852 49.355C0.574596 49.1201 0.509146 48.8836 0.449501 48.6455C0.389857 48.4074 0.336091 48.1679 0.288202 47.9272C0.240313 47.6864 0.198359 47.4446 0.162341 47.2018C0.126324 46.959 0.0962848 46.7155 0.0722243 46.4712C0.048164 46.2269 0.0301116 45.9821 0.0180669 45.737C0.0060223 45.4918 0 45.2465 0 45.001L0 14.999C0 14.7535 0.0060223 14.5082 0.0180669 14.263C0.0301116 14.0179 0.048164 13.7731 0.0722243 13.5288C0.0962848 13.2845 0.126324 13.041 0.162341 12.7982C0.198359 12.5554 0.240313 12.3136 0.288202 12.0728C0.336091 11.8321 0.389857 11.5926 0.449501 11.3545C0.509146 11.1164 0.574596 10.8799 0.645852 10.645C0.717108 10.4101 0.794084 10.1771 0.87678 9.94598C0.959473 9.71488 1.04779 9.48592 1.14173 9.25912C1.23567 9.03235 1.33511 8.808 1.44006 8.58611C1.54501 8.3642 1.65535 8.14501 1.77106 7.92853C1.88677 7.71204 2.00773 7.49852 2.13393 7.28796C2.26012 7.07742 2.39141 6.8701 2.52779 6.666C2.66416 6.4619 2.80546 6.26128 2.95169 6.06412C3.09792 5.86694 3.24889 5.67348 3.40462 5.48373C3.56034 5.29398 3.72062 5.10817 3.88547 4.92628C4.05032 4.7444 4.21953 4.56668 4.39311 4.39311C4.56668 4.21953 4.7444 4.05032 4.92629 3.88547C5.10817 3.72063 5.29398 3.56033 5.48373 3.40462C5.67348 3.24889 5.86694 3.09792 6.06411 2.95169C6.26127 2.80547 6.4619 2.66417 6.666 2.52779C6.8701 2.3914 7.07742 2.26012 7.28797 2.13393C7.49852 2.00774 7.71203 1.88678 7.92852 1.77106C8.14501 1.65535 8.3642 1.54501 8.5861 1.44006C8.808 1.33511 9.03234 1.23567 9.25913 1.14172C9.48592 1.04779 9.71487 0.959473 9.94599 0.876785C10.1771 0.794083 10.4101 0.717102 10.645 0.645859C10.8799 0.5746 11.1164 0.50914 11.3545 0.449493C11.5926 0.389862 11.8321 0.33609 12.0728 0.288208C12.3136 0.240311 12.5554 0.198364 12.7982 0.162338C13.041 0.126328 13.2845 0.096283 13.5288 0.0722199C13.7731 0.0481567 14.0179 0.0301056 14.263 0.0180664C14.5082 0.00602722 14.7535 0 14.999 0L14.999 0L14.999 0Z" id="path_3" />
    <path d="M14.999 0L45.001 0C45.2465 0 45.4918 0.00601959 45.737 0.0180664C45.9821 0.0301132 46.2269 0.0481644 46.4712 0.0722275C46.7155 0.096283 46.959 0.12632 47.2018 0.162338C47.4446 0.198357 47.6864 0.240311 47.9272 0.2882C48.1679 0.33609 48.4074 0.389854 48.6455 0.449501C48.8836 0.509148 49.1201 0.574593 49.355 0.645851C49.5899 0.71711 49.8229 0.794083 50.054 0.876778C50.2851 0.959473 50.5141 1.04779 50.7409 1.14173C50.9676 1.23567 51.192 1.33511 51.4139 1.44006C51.6358 1.54501 51.855 1.65535 52.0715 1.77106C52.288 1.88677 52.5015 2.00773 52.712 2.13393C52.9225 2.26012 53.1299 2.39141 53.334 2.52779C53.5381 2.66416 53.7387 2.80547 53.9359 2.95169C54.133 3.09792 54.3265 3.24889 54.5163 3.40462C54.706 3.56034 54.8918 3.72063 55.0737 3.88547C55.2556 4.05032 55.4333 4.21953 55.6069 4.39311C55.7805 4.56667 55.9497 4.7444 56.1145 4.92629C56.2794 5.10817 56.4397 5.29398 56.5954 5.48373C56.7511 5.67348 56.9021 5.86694 57.0483 6.06411C57.1945 6.26127 57.3358 6.4619 57.4722 6.666C57.6086 6.8701 57.7399 7.07742 57.8661 7.28797C57.9923 7.49852 58.1132 7.71204 58.2289 7.92852C58.3446 8.14501 58.455 8.3642 58.5599 8.5861C58.6649 8.808 58.7644 9.03234 58.8583 9.25913C58.9522 9.48592 59.0405 9.71487 59.1232 9.94599C59.2059 10.1771 59.2829 10.4101 59.3541 10.645C59.4254 10.8799 59.4908 11.1164 59.5505 11.3545C59.6102 11.5926 59.6639 11.8321 59.7118 12.0728C59.7597 12.3136 59.8016 12.5554 59.8377 12.7982C59.8737 13.041 59.9037 13.2845 59.9278 13.5288C59.9519 13.7731 59.9699 14.0179 59.9819 14.263C59.994 14.5082 60 14.7535 60 14.999L60 45.001C60 45.2465 59.994 45.4918 59.9819 45.737C59.9699 45.9821 59.9519 46.2269 59.9278 46.4712C59.9037 46.7155 59.8737 46.959 59.8377 47.2018C59.8016 47.4446 59.7597 47.6864 59.7118 47.9272C59.6639 48.1679 59.6102 48.4074 59.5505 48.6455C59.4908 48.8836 59.4254 49.1201 59.3541 49.355C59.2829 49.5899 59.2059 49.8229 59.1232 50.054C59.0405 50.2851 58.9522 50.5141 58.8583 50.7409C58.7644 50.9676 58.6649 51.192 58.5599 51.4139C58.455 51.6358 58.3446 51.855 58.2289 52.0715C58.1132 52.288 57.9923 52.5015 57.8661 52.712C57.7399 52.9225 57.6086 53.1299 57.4722 53.334C57.3358 53.5381 57.1945 53.7387 57.0483 53.9359C56.9021 54.133 56.7511 54.3265 56.5954 54.5163C56.4397 54.706 56.2794 54.8918 56.1145 55.0737C55.9497 55.2556 55.7805 55.4333 55.6069 55.6069C55.4333 55.7805 55.2556 55.9497 55.0737 56.1145C54.8918 56.2794 54.706 56.4397 54.5163 56.5954C54.3265 56.7511 54.133 56.9021 53.9359 57.0483C53.7387 57.1945 53.5381 57.3358 53.334 57.4722C53.1299 57.6086 52.9225 57.7399 52.712 57.8661C52.5015 57.9923 52.288 58.1132 52.0715 58.2289C51.855 58.3446 51.6358 58.455 51.4139 58.5599C51.192 58.6649 50.9676 58.7644 50.7409 58.8583C50.5141 58.9522 50.2851 59.0405 50.054 59.1232C49.8229 59.2059 49.5899 59.2829 49.355 59.3541C49.1201 59.4254 48.8836 59.4908 48.6455 59.5505C48.4074 59.6102 48.1679 59.6639 47.9272 59.7118C47.6864 59.7597 47.4446 59.8016 47.2018 59.8377C46.959 59.8737 46.7155 59.9037 46.4712 59.9278C46.2269 59.9519 45.9821 59.9699 45.737 59.9819C45.4918 59.994 45.2465 60 45.001 60L14.999 60C14.7535 60 14.5082 59.994 14.263 59.9819C14.0179 59.9699 13.7731 59.9519 13.5288 59.9278C13.2845 59.9037 13.041 59.8737 12.7982 59.8377C12.5554 59.8016 12.3136 59.7597 12.0728 59.7118C11.8321 59.6639 11.5926 59.6102 11.3545 59.5505C11.1164 59.4908 10.8799 59.4254 10.645 59.3541C10.4101 59.2829 10.1771 59.2059 9.94598 59.1232C9.71488 59.0405 9.48592 58.9522 9.25912 58.8583C9.03235 58.7644 8.808 58.6649 8.58611 58.5599C8.3642 58.455 8.14501 58.3446 7.92853 58.2289C7.71204 58.1132 7.49852 57.9923 7.28796 57.8661C7.07742 57.7399 6.8701 57.6086 6.666 57.4722C6.4619 57.3358 6.26128 57.1945 6.06412 57.0483C5.86694 56.9021 5.67348 56.7511 5.48373 56.5954C5.29398 56.4397 5.10817 56.2794 4.92628 56.1145C4.7444 55.9497 4.56668 55.7805 4.39311 55.6069C4.21953 55.4333 4.05032 55.2556 3.88547 55.0737C3.72063 54.8918 3.56033 54.706 3.40462 54.5163C3.24889 54.3265 3.09792 54.133 2.95169 53.9359C2.80547 53.7387 2.66417 53.5381 2.52779 53.334C2.3914 53.1299 2.26012 52.9225 2.13393 52.712C2.00774 52.5015 1.88678 52.288 1.77106 52.0715C1.65535 51.855 1.54501 51.6358 1.44006 51.4139C1.33511 51.192 1.23567 50.9676 1.14172 50.7409C1.04779 50.5141 0.959473 50.2851 0.876785 50.054C0.794083 49.8229 0.717102 49.5899 0.645859 49.355C0.5746 49.1201 0.50914 48.8836 0.449493 48.6455C0.389862 48.4074 0.33609 48.1679 0.288208 47.9272C0.240311 47.6864 0.198364 47.4446 0.162338 47.2018C0.126328 46.959 0.096283 46.7155 0.0722199 46.4712C0.0481567 46.2269 0.0301056 45.9821 0.0180664 45.737C0.00602722 45.4918 0 45.2465 0 45.001L0 14.999C0 14.7535 0.00602722 14.5082 0.0180664 14.263C0.0301056 14.0179 0.0481567 13.7731 0.0722199 13.5288C0.096283 13.2845 0.126328 13.041 0.162338 12.7982C0.198364 12.5554 0.240311 12.3136 0.288208 12.0728C0.33609 11.8321 0.389862 11.5926 0.449493 11.3545C0.50914 11.1164 0.5746 10.8799 0.645859 10.645C0.717102 10.4101 0.794083 10.1771 0.876785 9.94599C0.959473 9.71487 1.04779 9.48592 1.14172 9.25913C1.23567 9.03234 1.33511 8.808 1.44006 8.5861C1.54501 8.3642 1.65535 8.14501 1.77106 7.92852C1.88678 7.71204 2.00774 7.49852 2.13393 7.28797C2.26012 7.07742 2.3914 6.8701 2.52779 6.666C2.66417 6.4619 2.80547 6.26127 2.95169 6.06411C3.09792 5.86694 3.24889 5.67348 3.40462 5.48373C3.56033 5.29398 3.72063 5.10817 3.88547 4.92629C4.05032 4.7444 4.21953 4.56667 4.39311 4.39311C4.56668 4.21953 4.7444 4.05032 4.92628 3.88547C5.10817 3.72063 5.29398 3.56034 5.48373 3.40462C5.67348 3.24889 5.86694 3.09792 6.06412 2.95169C6.26128 2.80547 6.4619 2.66416 6.666 2.52779C6.8701 2.39141 7.07742 2.26012 7.28796 2.13393C7.49852 2.00773 7.71204 1.88677 7.92853 1.77106C8.14501 1.65535 8.3642 1.54501 8.58611 1.44006C8.808 1.33511 9.03235 1.23567 9.25912 1.14173C9.48592 1.04779 9.71488 0.959473 9.94598 0.876778C10.1771 0.794083 10.4101 0.71711 10.645 0.645851C10.8799 0.574593 11.1164 0.509148 11.3545 0.449501C11.5926 0.389854 11.8321 0.33609 12.0728 0.2882C12.3136 0.240311 12.5554 0.198357 12.7982 0.162338C13.041 0.12632 13.2845 0.096283 13.5288 0.0722275C13.7731 0.0481644 14.0179 0.0301132 14.263 0.0180664C14.5082 0.00601959 14.7535 0 14.999 0L14.999 0L14.999 0Z" transform="translate(140 0)" id="path_4" />
    <path d="M14.999 0L45.001 0C45.2465 0 45.4918 0.00601959 45.737 0.0180664C45.9821 0.0301132 46.2269 0.0481644 46.4712 0.0722275C46.7155 0.096283 46.959 0.12632 47.2018 0.162338C47.4446 0.198357 47.6864 0.240311 47.9272 0.2882C48.1679 0.33609 48.4074 0.389854 48.6455 0.449501C48.8836 0.509148 49.1201 0.574593 49.355 0.645851C49.5899 0.71711 49.8229 0.794083 50.054 0.876778C50.2851 0.959473 50.5141 1.04779 50.7409 1.14173C50.9676 1.23567 51.192 1.33511 51.4139 1.44006C51.6358 1.54501 51.855 1.65535 52.0715 1.77106C52.288 1.88677 52.5015 2.00773 52.712 2.13393C52.9225 2.26012 53.1299 2.39141 53.334 2.52779C53.5381 2.66416 53.7387 2.80547 53.9359 2.95169C54.133 3.09792 54.3265 3.24889 54.5163 3.40462C54.706 3.56034 54.8918 3.72063 55.0737 3.88547C55.2556 4.05032 55.4333 4.21953 55.6069 4.39311C55.7805 4.56667 55.9497 4.7444 56.1145 4.92629C56.2794 5.10817 56.4397 5.29398 56.5954 5.48373C56.7511 5.67348 56.9021 5.86694 57.0483 6.06411C57.1945 6.26127 57.3358 6.4619 57.4722 6.666C57.6086 6.8701 57.7399 7.07742 57.8661 7.28797C57.9923 7.49852 58.1132 7.71204 58.2289 7.92852C58.3446 8.14501 58.455 8.3642 58.5599 8.5861C58.6649 8.808 58.7644 9.03234 58.8583 9.25913C58.9522 9.48592 59.0405 9.71487 59.1232 9.94599C59.2059 10.1771 59.2829 10.4101 59.3541 10.645C59.4254 10.8799 59.4908 11.1164 59.5505 11.3545C59.6102 11.5926 59.6639 11.8321 59.7118 12.0728C59.7597 12.3136 59.8016 12.5554 59.8377 12.7982C59.8737 13.041 59.9037 13.2845 59.9278 13.5288C59.9519 13.7731 59.9699 14.0179 59.9819 14.263C59.994 14.5082 60 14.7535 60 14.999L60 45.001C60 45.2465 59.994 45.4918 59.9819 45.737C59.9699 45.9821 59.9519 46.2269 59.9278 46.4712C59.9037 46.7155 59.8737 46.959 59.8377 47.2018C59.8016 47.4446 59.7597 47.6864 59.7118 47.9272C59.6639 48.1679 59.6102 48.4074 59.5505 48.6455C59.4908 48.8836 59.4254 49.1201 59.3541 49.355C59.2829 49.5899 59.2059 49.8229 59.1232 50.054C59.0405 50.2851 58.9522 50.5141 58.8583 50.7409C58.7644 50.9676 58.6649 51.192 58.5599 51.4139C58.455 51.6358 58.3446 51.855 58.2289 52.0715C58.1132 52.288 57.9923 52.5015 57.8661 52.712C57.7399 52.9225 57.6086 53.1299 57.4722 53.334C57.3358 53.5381 57.1945 53.7387 57.0483 53.9359C56.9021 54.133 56.7511 54.3265 56.5954 54.5163C56.4397 54.706 56.2794 54.8918 56.1145 55.0737C55.9497 55.2556 55.7805 55.4333 55.6069 55.6069C55.4333 55.7805 55.2556 55.9497 55.0737 56.1145C54.8918 56.2794 54.706 56.4397 54.5163 56.5954C54.3265 56.7511 54.133 56.9021 53.9359 57.0483C53.7387 57.1945 53.5381 57.3358 53.334 57.4722C53.1299 57.6086 52.9225 57.7399 52.712 57.8661C52.5015 57.9923 52.288 58.1132 52.0715 58.2289C51.855 58.3446 51.6358 58.455 51.4139 58.5599C51.192 58.6649 50.9676 58.7644 50.7409 58.8583C50.5141 58.9522 50.2851 59.0405 50.054 59.1232C49.8229 59.2059 49.5899 59.2829 49.355 59.3541C49.1201 59.4254 48.8836 59.4908 48.6455 59.5505C48.4074 59.6102 48.1679 59.6639 47.9272 59.7118C47.6864 59.7597 47.4446 59.8016 47.2018 59.8377C46.959 59.8737 46.7155 59.9037 46.4712 59.9278C46.2269 59.9519 45.9821 59.9699 45.737 59.9819C45.4918 59.994 45.2465 60 45.001 60L14.999 60C14.7535 60 14.5082 59.994 14.263 59.9819C14.0179 59.9699 13.7731 59.9519 13.5288 59.9278C13.2845 59.9037 13.041 59.8737 12.7982 59.8377C12.5554 59.8016 12.3136 59.7597 12.0728 59.7118C11.8321 59.6639 11.5926 59.6102 11.3545 59.5505C11.1164 59.4908 10.8799 59.4254 10.645 59.3541C10.4101 59.2829 10.1771 59.2059 9.94599 59.1232C9.71487 59.0405 9.48592 58.9522 9.25913 58.8583C9.03234 58.7644 8.808 58.6649 8.5861 58.5599C8.3642 58.455 8.14501 58.3446 7.92852 58.2289C7.71204 58.1132 7.49852 57.9923 7.28797 57.8661C7.07742 57.7399 6.8701 57.6086 6.666 57.4722C6.4619 57.3358 6.26127 57.1945 6.06411 57.0483C5.86694 56.9021 5.67348 56.7511 5.48373 56.5954C5.29398 56.4397 5.10817 56.2794 4.92629 56.1145C4.7444 55.9497 4.56667 55.7805 4.39311 55.6069C4.21953 55.4333 4.05032 55.2556 3.88547 55.0737C3.72063 54.8918 3.56034 54.706 3.40462 54.5163C3.24889 54.3265 3.09792 54.133 2.95169 53.9359C2.80547 53.7387 2.66416 53.5381 2.52779 53.334C2.39141 53.1299 2.26012 52.9225 2.13393 52.712C2.00773 52.5015 1.88677 52.288 1.77106 52.0715C1.65535 51.855 1.54501 51.6358 1.44006 51.4139C1.33511 51.192 1.23567 50.9676 1.14173 50.7409C1.04779 50.5141 0.959473 50.2851 0.876778 50.054C0.794083 49.8229 0.71711 49.5899 0.645851 49.355C0.574593 49.1201 0.509148 48.8836 0.449501 48.6455C0.389854 48.4074 0.33609 48.1679 0.2882 47.9272C0.240311 47.6864 0.198357 47.4446 0.162338 47.2018C0.12632 46.959 0.096283 46.7155 0.0722275 46.4712C0.0481644 46.2269 0.0301132 45.9821 0.0180664 45.737C0.00601959 45.4918 0 45.2465 0 45.001L0 14.999C0 14.7535 0.00601959 14.5082 0.0180664 14.263C0.0301132 14.0179 0.0481644 13.7731 0.0722275 13.5288C0.096283 13.2845 0.12632 13.041 0.162338 12.7982C0.198357 12.5554 0.240311 12.3136 0.2882 12.0728C0.33609 11.8321 0.389854 11.5926 0.449501 11.3545C0.509148 11.1164 0.574593 10.8799 0.645851 10.645C0.71711 10.4101 0.794083 10.1771 0.876778 9.94599C0.959473 9.71487 1.04779 9.48592 1.14173 9.25913C1.23567 9.03234 1.33511 8.808 1.44006 8.5861C1.54501 8.3642 1.65535 8.14501 1.77106 7.92852C1.88677 7.71204 2.00773 7.49852 2.13393 7.28797C2.26012 7.07742 2.39141 6.8701 2.52779 6.666C2.66416 6.4619 2.80547 6.26127 2.95169 6.06411C3.09792 5.86694 3.24889 5.67348 3.40462 5.48373C3.56034 5.29398 3.72063 5.10817 3.88547 4.92629C4.05032 4.7444 4.21953 4.56667 4.39311 4.39311C4.56667 4.21953 4.7444 4.05032 4.92629 3.88547C5.10817 3.72063 5.29398 3.56034 5.48373 3.40462C5.67348 3.24889 5.86694 3.09792 6.06411 2.95169C6.26127 2.80547 6.4619 2.66416 6.666 2.52779C6.8701 2.39141 7.07742 2.26012 7.28797 2.13393C7.49852 2.00773 7.71204 1.88677 7.92852 1.77106C8.14501 1.65535 8.3642 1.54501 8.5861 1.44006C8.808 1.33511 9.03234 1.23567 9.25913 1.14173C9.48592 1.04779 9.71487 0.959473 9.94599 0.876778C10.1771 0.794083 10.4101 0.71711 10.645 0.645851C10.8799 0.574593 11.1164 0.509148 11.3545 0.449501C11.5926 0.389854 11.8321 0.33609 12.0728 0.2882C12.3136 0.240311 12.5554 0.198357 12.7982 0.162338C13.041 0.12632 13.2845 0.096283 13.5288 0.0722275C13.7731 0.0481644 14.0179 0.0301132 14.263 0.0180664C14.5082 0.00601959 14.7535 0 14.999 0L14.999 0L14.999 0Z" transform="translate(70 0)" id="path_5" />
    <path d="M14.999 0L45.001 0C45.2465 0 45.4918 0.00601959 45.737 0.0180664C45.9821 0.0301132 46.2269 0.0481644 46.4712 0.0722275C46.7155 0.096283 46.959 0.12632 47.2018 0.162338C47.4446 0.198357 47.6864 0.240311 47.9272 0.2882C48.1679 0.33609 48.4074 0.389854 48.6455 0.449501C48.8836 0.509148 49.1201 0.574593 49.355 0.645851C49.5899 0.71711 49.8229 0.794083 50.054 0.876778C50.2851 0.959473 50.5141 1.04779 50.7409 1.14173C50.9676 1.23567 51.192 1.33511 51.4139 1.44006C51.6358 1.54501 51.855 1.65535 52.0715 1.77106C52.288 1.88677 52.5015 2.00773 52.712 2.13393C52.9225 2.26012 53.1299 2.39141 53.334 2.52779C53.5381 2.66416 53.7387 2.80547 53.9359 2.95169C54.133 3.09792 54.3265 3.24889 54.5163 3.40462C54.706 3.56034 54.8918 3.72063 55.0737 3.88547C55.2556 4.05032 55.4333 4.21953 55.6069 4.39311C55.7805 4.56667 55.9497 4.7444 56.1145 4.92629C56.2794 5.10817 56.4397 5.29398 56.5954 5.48373C56.7511 5.67348 56.9021 5.86694 57.0483 6.06411C57.1945 6.26127 57.3358 6.4619 57.4722 6.666C57.6086 6.8701 57.7399 7.07742 57.8661 7.28797C57.9923 7.49852 58.1132 7.71204 58.2289 7.92852C58.3446 8.14501 58.455 8.3642 58.5599 8.5861C58.6649 8.808 58.7644 9.03234 58.8583 9.25913C58.9522 9.48592 59.0405 9.71487 59.1232 9.94599C59.2059 10.1771 59.2829 10.4101 59.3541 10.645C59.4254 10.8799 59.4908 11.1164 59.5505 11.3545C59.6102 11.5926 59.6639 11.8321 59.7118 12.0728C59.7597 12.3136 59.8016 12.5554 59.8377 12.7982C59.8737 13.041 59.9037 13.2845 59.9278 13.5288C59.9519 13.7731 59.9699 14.0179 59.9819 14.263C59.994 14.5082 60 14.7535 60 14.999L60 45.001C60 45.2465 59.994 45.4918 59.9819 45.737C59.9699 45.9821 59.9519 46.2269 59.9278 46.4712C59.9037 46.7155 59.8737 46.959 59.8377 47.2018C59.8016 47.4446 59.7597 47.6864 59.7118 47.9272C59.6639 48.1679 59.6102 48.4074 59.5505 48.6455C59.4908 48.8836 59.4254 49.1201 59.3541 49.355C59.2829 49.5899 59.2059 49.8229 59.1232 50.054C59.0405 50.2851 58.9522 50.5141 58.8583 50.7409C58.7644 50.9676 58.6649 51.192 58.5599 51.4139C58.455 51.6358 58.3446 51.855 58.2289 52.0715C58.1132 52.288 57.9923 52.5015 57.8661 52.712C57.7399 52.9225 57.6086 53.1299 57.4722 53.334C57.3358 53.5381 57.1945 53.7387 57.0483 53.9359C56.9021 54.133 56.7511 54.3265 56.5954 54.5163C56.4397 54.706 56.2794 54.8918 56.1145 55.0737C55.9497 55.2556 55.7805 55.4333 55.6069 55.6069C55.4333 55.7805 55.2556 55.9497 55.0737 56.1145C54.8918 56.2794 54.706 56.4397 54.5163 56.5954C54.3265 56.7511 54.133 56.9021 53.9359 57.0483C53.7387 57.1945 53.5381 57.3358 53.334 57.4722C53.1299 57.6086 52.9225 57.7399 52.712 57.8661C52.5015 57.9923 52.288 58.1132 52.0715 58.2289C51.855 58.3446 51.6358 58.455 51.4139 58.5599C51.192 58.6649 50.9676 58.7644 50.7409 58.8583C50.5141 58.9522 50.2851 59.0405 50.054 59.1232C49.8229 59.2059 49.5899 59.2829 49.355 59.3541C49.1201 59.4254 48.8836 59.4908 48.6455 59.5505C48.4074 59.6102 48.1679 59.6639 47.9272 59.7118C47.6864 59.7597 47.4446 59.8016 47.2018 59.8377C46.959 59.8737 46.7155 59.9037 46.4712 59.9278C46.2269 59.9519 45.9821 59.9699 45.737 59.9819C45.4918 59.994 45.2465 60 45.001 60L14.999 60C14.7535 60 14.5082 59.994 14.263 59.9819C14.0179 59.9699 13.7731 59.9519 13.5288 59.9278C13.2845 59.9037 13.041 59.8737 12.7982 59.8377C12.5554 59.8016 12.3136 59.7597 12.0728 59.7118C11.8321 59.6639 11.5926 59.6102 11.3545 59.5505C11.1164 59.4908 10.8799 59.4254 10.645 59.3541C10.4101 59.2829 10.1771 59.2059 9.94599 59.1232C9.71487 59.0405 9.48592 58.9522 9.25913 58.8583C9.03234 58.7644 8.808 58.6649 8.5861 58.5599C8.3642 58.455 8.14501 58.3446 7.92852 58.2289C7.71203 58.1132 7.49852 57.9923 7.28797 57.8661C7.07742 57.7399 6.8701 57.6086 6.666 57.4722C6.4619 57.3358 6.26127 57.1945 6.06411 57.0483C5.86694 56.9021 5.67348 56.7511 5.48373 56.5954C5.29398 56.4397 5.10817 56.2794 4.92629 56.1145C4.7444 55.9497 4.56668 55.7805 4.39311 55.6069C4.21953 55.4333 4.05032 55.2556 3.88547 55.0737C3.72062 54.8918 3.56034 54.706 3.40462 54.5163C3.24889 54.3265 3.09792 54.133 2.95169 53.9359C2.80546 53.7387 2.66416 53.5381 2.52779 53.334C2.39141 53.1299 2.26012 52.9225 2.13393 52.712C2.00773 52.5015 1.88677 52.288 1.77106 52.0715C1.65535 51.855 1.54501 51.6358 1.44006 51.4139C1.33511 51.192 1.23567 50.9676 1.14173 50.7409C1.04779 50.5141 0.959473 50.2851 0.87678 50.054C0.794084 49.8229 0.717108 49.5899 0.645852 49.355C0.574596 49.1201 0.509146 48.8836 0.449501 48.6455C0.389857 48.4074 0.336091 48.1679 0.288202 47.9272C0.240313 47.6864 0.198359 47.4446 0.162341 47.2018C0.126324 46.959 0.0962848 46.7155 0.0722243 46.4712C0.048164 46.2269 0.0301116 45.9821 0.0180669 45.737C0.0060223 45.4918 0 45.2465 0 45.001L0 14.999C0 14.7535 0.0060223 14.5082 0.0180669 14.263C0.0301116 14.0179 0.048164 13.7731 0.0722243 13.5288C0.0962848 13.2845 0.126324 13.041 0.162341 12.7982C0.198359 12.5554 0.240313 12.3136 0.288202 12.0728C0.336091 11.8321 0.389857 11.5926 0.449501 11.3545C0.509146 11.1164 0.574596 10.8799 0.645852 10.645C0.717108 10.4101 0.794084 10.1771 0.87678 9.94599C0.959473 9.71487 1.04779 9.48592 1.14173 9.25913C1.23567 9.03234 1.33511 8.808 1.44006 8.5861C1.54501 8.3642 1.65535 8.14501 1.77106 7.92852C1.88677 7.71204 2.00773 7.49852 2.13393 7.28797C2.26012 7.07742 2.39141 6.8701 2.52779 6.666C2.66416 6.4619 2.80546 6.26127 2.95169 6.06411C3.09792 5.86694 3.24889 5.67348 3.40462 5.48373C3.56034 5.29398 3.72062 5.10817 3.88547 4.92629C4.05032 4.7444 4.21953 4.56667 4.39311 4.39311C4.56668 4.21953 4.7444 4.05032 4.92629 3.88547C5.10817 3.72063 5.29398 3.56034 5.48373 3.40462C5.67348 3.24889 5.86694 3.09792 6.06411 2.95169C6.26127 2.80547 6.4619 2.66416 6.666 2.52779C6.8701 2.39141 7.07742 2.26012 7.28797 2.13393C7.49852 2.00773 7.71203 1.88677 7.92852 1.77106C8.14501 1.65535 8.3642 1.54501 8.5861 1.44006C8.808 1.33511 9.03234 1.23567 9.25913 1.14173C9.48592 1.04779 9.71487 0.959473 9.94599 0.876778C10.1771 0.794083 10.4101 0.71711 10.645 0.645851C10.8799 0.574593 11.1164 0.509148 11.3545 0.449501C11.5926 0.389854 11.8321 0.33609 12.0728 0.2882C12.3136 0.240311 12.5554 0.198357 12.7982 0.162338C13.041 0.12632 13.2845 0.096283 13.5288 0.0722275C13.7731 0.0481644 14.0179 0.0301132 14.263 0.0180664C14.5082 0.00601959 14.7535 0 14.999 0L14.999 0L14.999 0Z" id="path_6" />
    <path d="M14.999 0L45.001 0C45.2465 0 45.4918 0.0060223 45.737 0.0180669C45.9821 0.0301116 46.2269 0.048164 46.4712 0.0722243C46.7155 0.0962848 46.959 0.126324 47.2018 0.162341C47.4446 0.198359 47.6864 0.240313 47.9272 0.288202C48.1679 0.336091 48.4074 0.389857 48.6455 0.449501C48.8836 0.509146 49.1201 0.574596 49.355 0.645852C49.5899 0.717108 49.8229 0.794084 50.054 0.87678C50.2851 0.959473 50.5141 1.04779 50.7409 1.14173C50.9676 1.23567 51.192 1.33511 51.4139 1.44006C51.6358 1.54501 51.855 1.65535 52.0715 1.77106C52.288 1.88677 52.5015 2.00773 52.712 2.13393C52.9225 2.26012 53.1299 2.39141 53.334 2.52779C53.5381 2.66416 53.7387 2.80546 53.9359 2.95169C54.133 3.09792 54.3265 3.24889 54.5163 3.40462C54.706 3.56034 54.8918 3.72062 55.0737 3.88547C55.2556 4.05032 55.4333 4.21953 55.6069 4.39311C55.7805 4.56668 55.9497 4.7444 56.1145 4.92629C56.2794 5.10817 56.4397 5.29398 56.5954 5.48373C56.7511 5.67348 56.9021 5.86694 57.0483 6.06411C57.1945 6.26127 57.3358 6.4619 57.4722 6.666C57.6086 6.8701 57.7399 7.07742 57.8661 7.28797C57.9923 7.49852 58.1132 7.71203 58.2289 7.92852C58.3446 8.14501 58.455 8.3642 58.5599 8.5861C58.6649 8.808 58.7644 9.03234 58.8583 9.25913C58.9522 9.48592 59.0405 9.71487 59.1232 9.94599C59.2059 10.1771 59.2829 10.4101 59.3541 10.645C59.4254 10.8799 59.4908 11.1164 59.5505 11.3545C59.6102 11.5926 59.6639 11.8321 59.7118 12.0728C59.7597 12.3136 59.8016 12.5554 59.8377 12.7982C59.8737 13.041 59.9037 13.2845 59.9278 13.5288C59.9519 13.7731 59.9699 14.0179 59.9819 14.263C59.994 14.5082 60 14.7535 60 14.999L60 45.001C60 45.2465 59.994 45.4918 59.9819 45.737C59.9699 45.9821 59.9519 46.2269 59.9278 46.4712C59.9037 46.7155 59.8737 46.959 59.8377 47.2018C59.8016 47.4446 59.7597 47.6864 59.7118 47.9272C59.6639 48.1679 59.6102 48.4074 59.5505 48.6455C59.4908 48.8836 59.4254 49.1201 59.3541 49.355C59.2829 49.5899 59.2059 49.8229 59.1232 50.054C59.0405 50.2851 58.9522 50.5141 58.8583 50.7409C58.7644 50.9676 58.6649 51.192 58.5599 51.4139C58.455 51.6358 58.3446 51.855 58.2289 52.0715C58.1132 52.288 57.9923 52.5015 57.8661 52.712C57.7399 52.9225 57.6086 53.1299 57.4722 53.334C57.3358 53.5381 57.1945 53.7387 57.0483 53.9359C56.9021 54.133 56.7511 54.3265 56.5954 54.5163C56.4397 54.706 56.2794 54.8918 56.1145 55.0737C55.9497 55.2556 55.7805 55.4333 55.6069 55.6069C55.4333 55.7805 55.2556 55.9497 55.0737 56.1145C54.8918 56.2794 54.706 56.4397 54.5163 56.5954C54.3265 56.7511 54.133 56.9021 53.9359 57.0483C53.7387 57.1945 53.5381 57.3358 53.334 57.4722C53.1299 57.6086 52.9225 57.7399 52.712 57.8661C52.5015 57.9923 52.288 58.1132 52.0715 58.2289C51.855 58.3446 51.6358 58.455 51.4139 58.5599C51.192 58.6649 50.9676 58.7644 50.7409 58.8583C50.5141 58.9522 50.2851 59.0405 50.054 59.1232C49.8229 59.2059 49.5899 59.2829 49.355 59.3541C49.1201 59.4254 48.8836 59.4908 48.6455 59.5505C48.4074 59.6102 48.1679 59.6639 47.9272 59.7118C47.6864 59.7597 47.4446 59.8016 47.2018 59.8377C46.959 59.8737 46.7155 59.9037 46.4712 59.9278C46.2269 59.9519 45.9821 59.9699 45.737 59.9819C45.4918 59.994 45.2465 60 45.001 60L14.999 60C14.7535 60 14.5082 59.994 14.263 59.9819C14.0179 59.9699 13.7731 59.9519 13.5288 59.9278C13.2845 59.9037 13.041 59.8737 12.7982 59.8377C12.5554 59.8016 12.3136 59.7597 12.0728 59.7118C11.8321 59.6639 11.5926 59.6102 11.3545 59.5505C11.1164 59.4908 10.8799 59.4254 10.645 59.3541C10.4101 59.2829 10.1771 59.2059 9.94598 59.1232C9.71488 59.0405 9.48592 58.9522 9.25912 58.8583C9.03235 58.7644 8.808 58.6649 8.58611 58.5599C8.3642 58.455 8.14501 58.3446 7.92853 58.2289C7.71204 58.1132 7.49852 57.9923 7.28796 57.8661C7.07742 57.7399 6.8701 57.6086 6.666 57.4722C6.4619 57.3358 6.26128 57.1945 6.06412 57.0483C5.86694 56.9021 5.67348 56.7511 5.48373 56.5954C5.29398 56.4397 5.10817 56.2794 4.92628 56.1145C4.7444 55.9497 4.56668 55.7805 4.39311 55.6069C4.21953 55.4333 4.05032 55.2556 3.88547 55.0737C3.72063 54.8918 3.56033 54.706 3.40462 54.5163C3.24889 54.3265 3.09792 54.133 2.95169 53.9359C2.80547 53.7387 2.66417 53.5381 2.52779 53.334C2.3914 53.1299 2.26012 52.9225 2.13393 52.712C2.00774 52.5015 1.88678 52.288 1.77106 52.0715C1.65535 51.855 1.54501 51.6358 1.44006 51.4139C1.33511 51.192 1.23567 50.9676 1.14172 50.7409C1.04779 50.5141 0.959473 50.2851 0.876785 50.054C0.794083 49.8229 0.717102 49.5899 0.645859 49.355C0.5746 49.1201 0.50914 48.8836 0.449493 48.6455C0.389862 48.4074 0.33609 48.1679 0.288208 47.9272C0.240311 47.6864 0.198364 47.4446 0.162338 47.2018C0.126328 46.959 0.096283 46.7155 0.0722199 46.4712C0.0481567 46.2269 0.0301056 45.9821 0.0180664 45.737C0.00602722 45.4918 0 45.2465 0 45.001L0 14.999C0 14.7535 0.00602722 14.5082 0.0180664 14.263C0.0301056 14.0179 0.0481567 13.7731 0.0722199 13.5288C0.096283 13.2845 0.126328 13.041 0.162338 12.7982C0.198364 12.5554 0.240311 12.3136 0.288208 12.0728C0.33609 11.8321 0.389862 11.5926 0.449493 11.3545C0.50914 11.1164 0.5746 10.8799 0.645859 10.645C0.717102 10.4101 0.794083 10.1771 0.876785 9.94599C0.959473 9.71487 1.04779 9.48592 1.14172 9.25913C1.23567 9.03234 1.33511 8.808 1.44006 8.5861C1.54501 8.3642 1.65535 8.14501 1.77106 7.92852C1.88678 7.71203 2.00774 7.49852 2.13393 7.28797C2.26012 7.07742 2.3914 6.8701 2.52779 6.666C2.66417 6.4619 2.80547 6.26127 2.95169 6.06411C3.09792 5.86694 3.24889 5.67348 3.40462 5.48373C3.56033 5.29398 3.72063 5.10817 3.88547 4.92629C4.05032 4.7444 4.21953 4.56668 4.39311 4.39311C4.56668 4.21953 4.7444 4.05032 4.92628 3.88547C5.10817 3.72062 5.29398 3.56034 5.48373 3.40462C5.67348 3.24889 5.86694 3.09792 6.06412 2.95169C6.26128 2.80546 6.4619 2.66416 6.666 2.52779C6.8701 2.39141 7.07742 2.26012 7.28796 2.13393C7.49852 2.00773 7.71204 1.88677 7.92853 1.77106C8.14501 1.65535 8.3642 1.54501 8.58611 1.44006C8.808 1.33511 9.03235 1.23567 9.25912 1.14173C9.48592 1.04779 9.71488 0.959473 9.94598 0.87678C10.1771 0.794084 10.4101 0.717108 10.645 0.645852C10.8799 0.574596 11.1164 0.509146 11.3545 0.449501C11.5926 0.389857 11.8321 0.336091 12.0728 0.288202C12.3136 0.240313 12.5554 0.198359 12.7982 0.162341C13.041 0.126324 13.2845 0.0962848 13.5288 0.0722243C13.7731 0.048164 14.0179 0.0301116 14.263 0.0180669C14.5082 0.0060223 14.7535 0 14.999 0L14.999 0L14.999 0Z" transform="translate(140 0)" id="path_7" />
    <path d="M14.999 0L45.001 0C45.2465 0 45.4918 0.0060223 45.737 0.0180669C45.9821 0.0301116 46.2269 0.048164 46.4712 0.0722243C46.7155 0.0962848 46.959 0.126324 47.2018 0.162341C47.4446 0.198359 47.6864 0.240313 47.9272 0.288202C48.1679 0.336091 48.4074 0.389857 48.6455 0.449501C48.8836 0.509146 49.1201 0.574596 49.355 0.645852C49.5899 0.717108 49.8229 0.794084 50.054 0.87678C50.2851 0.959473 50.5141 1.04779 50.7409 1.14173C50.9676 1.23567 51.192 1.33511 51.4139 1.44006C51.6358 1.54501 51.855 1.65535 52.0715 1.77106C52.288 1.88677 52.5015 2.00773 52.712 2.13393C52.9225 2.26012 53.1299 2.39141 53.334 2.52779C53.5381 2.66416 53.7387 2.80546 53.9359 2.95169C54.133 3.09792 54.3265 3.24889 54.5163 3.40462C54.706 3.56034 54.8918 3.72062 55.0737 3.88547C55.2556 4.05032 55.4333 4.21953 55.6069 4.39311C55.7805 4.56668 55.9497 4.7444 56.1145 4.92629C56.2794 5.10817 56.4397 5.29398 56.5954 5.48373C56.7511 5.67348 56.9021 5.86694 57.0483 6.06411C57.1945 6.26127 57.3358 6.4619 57.4722 6.666C57.6086 6.8701 57.7399 7.07742 57.8661 7.28797C57.9923 7.49852 58.1132 7.71203 58.2289 7.92852C58.3446 8.14501 58.455 8.3642 58.5599 8.5861C58.6649 8.808 58.7644 9.03234 58.8583 9.25913C58.9522 9.48592 59.0405 9.71487 59.1232 9.94599C59.2059 10.1771 59.2829 10.4101 59.3541 10.645C59.4254 10.8799 59.4908 11.1164 59.5505 11.3545C59.6102 11.5926 59.6639 11.8321 59.7118 12.0728C59.7597 12.3136 59.8016 12.5554 59.8377 12.7982C59.8737 13.041 59.9037 13.2845 59.9278 13.5288C59.9519 13.7731 59.9699 14.0179 59.9819 14.263C59.994 14.5082 60 14.7535 60 14.999L60 45.001C60 45.2465 59.994 45.4918 59.9819 45.737C59.9699 45.9821 59.9519 46.2269 59.9278 46.4712C59.9037 46.7155 59.8737 46.959 59.8377 47.2018C59.8016 47.4446 59.7597 47.6864 59.7118 47.9272C59.6639 48.1679 59.6102 48.4074 59.5505 48.6455C59.4908 48.8836 59.4254 49.1201 59.3541 49.355C59.2829 49.5899 59.2059 49.8229 59.1232 50.054C59.0405 50.2851 58.9522 50.5141 58.8583 50.7409C58.7644 50.9676 58.6649 51.192 58.5599 51.4139C58.455 51.6358 58.3446 51.855 58.2289 52.0715C58.1132 52.288 57.9923 52.5015 57.8661 52.712C57.7399 52.9225 57.6086 53.1299 57.4722 53.334C57.3358 53.5381 57.1945 53.7387 57.0483 53.9359C56.9021 54.133 56.7511 54.3265 56.5954 54.5163C56.4397 54.706 56.2794 54.8918 56.1145 55.0737C55.9497 55.2556 55.7805 55.4333 55.6069 55.6069C55.4333 55.7805 55.2556 55.9497 55.0737 56.1145C54.8918 56.2794 54.706 56.4397 54.5163 56.5954C54.3265 56.7511 54.133 56.9021 53.9359 57.0483C53.7387 57.1945 53.5381 57.3358 53.334 57.4722C53.1299 57.6086 52.9225 57.7399 52.712 57.8661C52.5015 57.9923 52.288 58.1132 52.0715 58.2289C51.855 58.3446 51.6358 58.455 51.4139 58.5599C51.192 58.6649 50.9676 58.7644 50.7409 58.8583C50.5141 58.9522 50.2851 59.0405 50.054 59.1232C49.8229 59.2059 49.5899 59.2829 49.355 59.3541C49.1201 59.4254 48.8836 59.4908 48.6455 59.5505C48.4074 59.6102 48.1679 59.6639 47.9272 59.7118C47.6864 59.7597 47.4446 59.8016 47.2018 59.8377C46.959 59.8737 46.7155 59.9037 46.4712 59.9278C46.2269 59.9519 45.9821 59.9699 45.737 59.9819C45.4918 59.994 45.2465 60 45.001 60L14.999 60C14.7535 60 14.5082 59.994 14.263 59.9819C14.0179 59.9699 13.7731 59.9519 13.5288 59.9278C13.2845 59.9037 13.041 59.8737 12.7982 59.8377C12.5554 59.8016 12.3136 59.7597 12.0728 59.7118C11.8321 59.6639 11.5926 59.6102 11.3545 59.5505C11.1164 59.4908 10.8799 59.4254 10.645 59.3541C10.4101 59.2829 10.1771 59.2059 9.94599 59.1232C9.71487 59.0405 9.48592 58.9522 9.25913 58.8583C9.03234 58.7644 8.808 58.6649 8.5861 58.5599C8.3642 58.455 8.14501 58.3446 7.92852 58.2289C7.71204 58.1132 7.49852 57.9923 7.28797 57.8661C7.07742 57.7399 6.8701 57.6086 6.666 57.4722C6.4619 57.3358 6.26127 57.1945 6.06411 57.0483C5.86694 56.9021 5.67348 56.7511 5.48373 56.5954C5.29398 56.4397 5.10817 56.2794 4.92629 56.1145C4.7444 55.9497 4.56667 55.7805 4.39311 55.6069C4.21953 55.4333 4.05032 55.2556 3.88547 55.0737C3.72063 54.8918 3.56034 54.706 3.40462 54.5163C3.24889 54.3265 3.09792 54.133 2.95169 53.9359C2.80547 53.7387 2.66416 53.5381 2.52779 53.334C2.39141 53.1299 2.26012 52.9225 2.13393 52.712C2.00773 52.5015 1.88677 52.288 1.77106 52.0715C1.65535 51.855 1.54501 51.6358 1.44006 51.4139C1.33511 51.192 1.23567 50.9676 1.14173 50.7409C1.04779 50.5141 0.959473 50.2851 0.876778 50.054C0.794083 49.8229 0.71711 49.5899 0.645851 49.355C0.574593 49.1201 0.509148 48.8836 0.449501 48.6455C0.389854 48.4074 0.33609 48.1679 0.2882 47.9272C0.240311 47.6864 0.198357 47.4446 0.162338 47.2018C0.12632 46.959 0.096283 46.7155 0.0722275 46.4712C0.0481644 46.2269 0.0301132 45.9821 0.0180664 45.737C0.00601959 45.4918 0 45.2465 0 45.001L0 14.999C0 14.7535 0.00601959 14.5082 0.0180664 14.263C0.0301132 14.0179 0.0481644 13.7731 0.0722275 13.5288C0.096283 13.2845 0.12632 13.041 0.162338 12.7982C0.198357 12.5554 0.240311 12.3136 0.2882 12.0728C0.33609 11.8321 0.389854 11.5926 0.449501 11.3545C0.509148 11.1164 0.574593 10.8799 0.645851 10.645C0.71711 10.4101 0.794083 10.1771 0.876778 9.94599C0.959473 9.71487 1.04779 9.48592 1.14173 9.25913C1.23567 9.03234 1.33511 8.808 1.44006 8.5861C1.54501 8.3642 1.65535 8.14501 1.77106 7.92852C1.88677 7.71203 2.00773 7.49852 2.13393 7.28797C2.26012 7.07742 2.39141 6.8701 2.52779 6.666C2.66416 6.4619 2.80547 6.26127 2.95169 6.06411C3.09792 5.86694 3.24889 5.67348 3.40462 5.48373C3.56034 5.29398 3.72063 5.10817 3.88547 4.92629C4.05032 4.7444 4.21953 4.56668 4.39311 4.39311C4.56667 4.21953 4.7444 4.05032 4.92629 3.88547C5.10817 3.72062 5.29398 3.56034 5.48373 3.40462C5.67348 3.24889 5.86694 3.09792 6.06411 2.95169C6.26127 2.80546 6.4619 2.66416 6.666 2.52779C6.8701 2.39141 7.07742 2.26012 7.28797 2.13393C7.49852 2.00773 7.71204 1.88677 7.92852 1.77106C8.14501 1.65535 8.3642 1.54501 8.5861 1.44006C8.808 1.33511 9.03234 1.23567 9.25913 1.14173C9.48592 1.04779 9.71487 0.959473 9.94599 0.87678C10.1771 0.794084 10.4101 0.717108 10.645 0.645852C10.8799 0.574596 11.1164 0.509146 11.3545 0.449501C11.5926 0.389857 11.8321 0.336091 12.0728 0.288202C12.3136 0.240313 12.5554 0.198359 12.7982 0.162341C13.041 0.126324 13.2845 0.0962848 13.5288 0.0722243C13.7731 0.048164 14.0179 0.0301116 14.263 0.0180669C14.5082 0.0060223 14.7535 0 14.999 0L14.999 0L14.999 0Z" transform="translate(70 0)" id="path_8" />
    <path d="M14.999 0L45.001 0C45.2465 0 45.4918 0.0060223 45.737 0.0180669C45.9821 0.0301116 46.2269 0.048164 46.4712 0.0722243C46.7155 0.0962848 46.959 0.126324 47.2018 0.162341C47.4446 0.198359 47.6864 0.240313 47.9272 0.288202C48.1679 0.336091 48.4074 0.389857 48.6455 0.449501C48.8836 0.509146 49.1201 0.574596 49.355 0.645852C49.5899 0.717108 49.8229 0.794084 50.054 0.87678C50.2851 0.959473 50.5141 1.04779 50.7409 1.14173C50.9676 1.23567 51.192 1.33511 51.4139 1.44006C51.6358 1.54501 51.855 1.65535 52.0715 1.77106C52.288 1.88677 52.5015 2.00773 52.712 2.13393C52.9225 2.26012 53.1299 2.39141 53.334 2.52779C53.5381 2.66416 53.7387 2.80546 53.9359 2.95169C54.133 3.09792 54.3265 3.24889 54.5163 3.40462C54.706 3.56034 54.8918 3.72062 55.0737 3.88547C55.2556 4.05032 55.4333 4.21953 55.6069 4.39311C55.7805 4.56668 55.9497 4.7444 56.1145 4.92629C56.2794 5.10817 56.4397 5.29398 56.5954 5.48373C56.7511 5.67348 56.9021 5.86694 57.0483 6.06411C57.1945 6.26127 57.3358 6.4619 57.4722 6.666C57.6086 6.8701 57.7399 7.07742 57.8661 7.28797C57.9923 7.49852 58.1132 7.71203 58.2289 7.92852C58.3446 8.14501 58.455 8.3642 58.5599 8.5861C58.6649 8.808 58.7644 9.03234 58.8583 9.25913C58.9522 9.48592 59.0405 9.71487 59.1232 9.94599C59.2059 10.1771 59.2829 10.4101 59.3541 10.645C59.4254 10.8799 59.4908 11.1164 59.5505 11.3545C59.6102 11.5926 59.6639 11.8321 59.7118 12.0728C59.7597 12.3136 59.8016 12.5554 59.8377 12.7982C59.8737 13.041 59.9037 13.2845 59.9278 13.5288C59.9519 13.7731 59.9699 14.0179 59.9819 14.263C59.994 14.5082 60 14.7535 60 14.999L60 45.001C60 45.2465 59.994 45.4918 59.9819 45.737C59.9699 45.9821 59.9519 46.2269 59.9278 46.4712C59.9037 46.7155 59.8737 46.959 59.8377 47.2018C59.8016 47.4446 59.7597 47.6864 59.7118 47.9272C59.6639 48.1679 59.6102 48.4074 59.5505 48.6455C59.4908 48.8836 59.4254 49.1201 59.3541 49.355C59.2829 49.5899 59.2059 49.8229 59.1232 50.054C59.0405 50.2851 58.9522 50.5141 58.8583 50.7409C58.7644 50.9676 58.6649 51.192 58.5599 51.4139C58.455 51.6358 58.3446 51.855 58.2289 52.0715C58.1132 52.288 57.9923 52.5015 57.8661 52.712C57.7399 52.9225 57.6086 53.1299 57.4722 53.334C57.3358 53.5381 57.1945 53.7387 57.0483 53.9359C56.9021 54.133 56.7511 54.3265 56.5954 54.5163C56.4397 54.706 56.2794 54.8918 56.1145 55.0737C55.9497 55.2556 55.7805 55.4333 55.6069 55.6069C55.4333 55.7805 55.2556 55.9497 55.0737 56.1145C54.8918 56.2794 54.706 56.4397 54.5163 56.5954C54.3265 56.7511 54.133 56.9021 53.9359 57.0483C53.7387 57.1945 53.5381 57.3358 53.334 57.4722C53.1299 57.6086 52.9225 57.7399 52.712 57.8661C52.5015 57.9923 52.288 58.1132 52.0715 58.2289C51.855 58.3446 51.6358 58.455 51.4139 58.5599C51.192 58.6649 50.9676 58.7644 50.7409 58.8583C50.5141 58.9522 50.2851 59.0405 50.054 59.1232C49.8229 59.2059 49.5899 59.2829 49.355 59.3541C49.1201 59.4254 48.8836 59.4908 48.6455 59.5505C48.4074 59.6102 48.1679 59.6639 47.9272 59.7118C47.6864 59.7597 47.4446 59.8016 47.2018 59.8377C46.959 59.8737 46.7155 59.9037 46.4712 59.9278C46.2269 59.9519 45.9821 59.9699 45.737 59.9819C45.4918 59.994 45.2465 60 45.001 60L14.999 60C14.7535 60 14.5082 59.994 14.263 59.9819C14.0179 59.9699 13.7731 59.9519 13.5288 59.9278C13.2845 59.9037 13.041 59.8737 12.7982 59.8377C12.5554 59.8016 12.3136 59.7597 12.0728 59.7118C11.8321 59.6639 11.5926 59.6102 11.3545 59.5505C11.1164 59.4908 10.8799 59.4254 10.645 59.3541C10.4101 59.2829 10.1771 59.2059 9.94599 59.1232C9.71487 59.0405 9.48592 58.9522 9.25913 58.8583C9.03234 58.7644 8.808 58.6649 8.5861 58.5599C8.3642 58.455 8.14501 58.3446 7.92852 58.2289C7.71203 58.1132 7.49852 57.9923 7.28797 57.8661C7.07742 57.7399 6.8701 57.6086 6.666 57.4722C6.4619 57.3358 6.26127 57.1945 6.06411 57.0483C5.86694 56.9021 5.67348 56.7511 5.48373 56.5954C5.29398 56.4397 5.10817 56.2794 4.92629 56.1145C4.7444 55.9497 4.56668 55.7805 4.39311 55.6069C4.21953 55.4333 4.05032 55.2556 3.88547 55.0737C3.72062 54.8918 3.56034 54.706 3.40462 54.5163C3.24889 54.3265 3.09792 54.133 2.95169 53.9359C2.80546 53.7387 2.66416 53.5381 2.52779 53.334C2.39141 53.1299 2.26012 52.9225 2.13393 52.712C2.00773 52.5015 1.88677 52.288 1.77106 52.0715C1.65535 51.855 1.54501 51.6358 1.44006 51.4139C1.33511 51.192 1.23567 50.9676 1.14173 50.7409C1.04779 50.5141 0.959473 50.2851 0.87678 50.054C0.794084 49.8229 0.717108 49.5899 0.645852 49.355C0.574596 49.1201 0.509146 48.8836 0.449501 48.6455C0.389857 48.4074 0.336091 48.1679 0.288202 47.9272C0.240313 47.6864 0.198359 47.4446 0.162341 47.2018C0.126324 46.959 0.0962848 46.7155 0.0722243 46.4712C0.048164 46.2269 0.0301116 45.9821 0.0180669 45.737C0.0060223 45.4918 0 45.2465 0 45.001L0 14.999C0 14.7535 0.0060223 14.5082 0.0180669 14.263C0.0301116 14.0179 0.048164 13.7731 0.0722243 13.5288C0.0962848 13.2845 0.126324 13.041 0.162341 12.7982C0.198359 12.5554 0.240313 12.3136 0.288202 12.0728C0.336091 11.8321 0.389857 11.5926 0.449501 11.3545C0.509146 11.1164 0.574596 10.8799 0.645852 10.645C0.717108 10.4101 0.794084 10.1771 0.87678 9.94599C0.959473 9.71487 1.04779 9.48592 1.14173 9.25913C1.23567 9.03234 1.33511 8.808 1.44006 8.5861C1.54501 8.3642 1.65535 8.14501 1.77106 7.92852C1.88677 7.71203 2.00773 7.49852 2.13393 7.28797C2.26012 7.07742 2.39141 6.8701 2.52779 6.666C2.66416 6.4619 2.80546 6.26127 2.95169 6.06411C3.09792 5.86694 3.24889 5.67348 3.40462 5.48373C3.56034 5.29398 3.72062 5.10817 3.88547 4.92629C4.05032 4.7444 4.21953 4.56668 4.39311 4.39311C4.56668 4.21953 4.7444 4.05032 4.92629 3.88547C5.10817 3.72062 5.29398 3.56034 5.48373 3.40462C5.67348 3.24889 5.86694 3.09792 6.06411 2.95169C6.26127 2.80546 6.4619 2.66416 6.666 2.52779C6.8701 2.39141 7.07742 2.26012 7.28797 2.13393C7.49852 2.00773 7.71203 1.88677 7.92852 1.77106C8.14501 1.65535 8.3642 1.54501 8.5861 1.44006C8.808 1.33511 9.03234 1.23567 9.25913 1.14173C9.48592 1.04779 9.71487 0.959473 9.94599 0.87678C10.1771 0.794084 10.4101 0.717108 10.645 0.645852C10.8799 0.574596 11.1164 0.509146 11.3545 0.449501C11.5926 0.389857 11.8321 0.336091 12.0728 0.288202C12.3136 0.240313 12.5554 0.198359 12.7982 0.162341C13.041 0.126324 13.2845 0.0962848 13.5288 0.0722243C13.7731 0.048164 14.0179 0.0301116 14.263 0.0180669C14.5082 0.0060223 14.7535 0 14.999 0L14.999 0L14.999 0Z" id="path_9" />
    <clipPath id="clip_1">
      <use xlink:href="#path_1" />
    </clipPath>
    <clipPath id="clip_2">
      <use xlink:href="#path_2" />
    </clipPath>
    <clipPath id="clip_3">
      <use xlink:href="#path_3" />
    </clipPath>
    <clipPath id="clip_4">
      <use xlink:href="#path_4" />
    </clipPath>
    <clipPath id="clip_5">
      <use xlink:href="#path_5" />
    </clipPath>
    <clipPath id="clip_6">
      <use xlink:href="#path_6" />
    </clipPath>
    <clipPath id="clip_7">
      <use xlink:href="#path_7" />
    </clipPath>
    <clipPath id="clip_8">
      <use xlink:href="#path_8" />
    </clipPath>
    <clipPath id="clip_9">
      <use xlink:href="#path_9" />
    </clipPath>
  </defs>
  <g id="Grid">
    <g id="Row-3" transform="translate(0 140)">
      <g id="3-3">
        <g clip-path="url(#clip_1)">
          <use xlink:href="#path_1" fill="none" stroke="#323232" stroke-width="20" />
        </g>
      </g>
      <g id="3-2">
        <g clip-path="url(#clip_2)">
          <use xlink:href="#path_2" fill="none" stroke="#323232" stroke-width="20" />
        </g>
      </g>
      <g id="3-1">
        <g clip-path="url(#clip_3)">
          <use xlink:href="#path_3" fill="none" stroke="#323232" stroke-width="20" />
        </g>
      </g>
    </g>
    <g id="Row-2" transform="translate(0 70)">
      <g id="2-3">
        <g clip-path="url(#clip_4)">
          <use xlink:href="#path_4" fill="none" stroke="#323232" stroke-width="20" />
        </g>
      </g>
      <g id="2-2">
        <g clip-path="url(#clip_5)">
          <use xlink:href="#path_5" fill="none" stroke="#323232" stroke-width="20" />
        </g>
      </g>
      <g id="2-1">
        <g clip-path="url(#clip_6)">
          <use xlink:href="#path_6" fill="none" stroke="#323232" stroke-width="20" />
        </g>
      </g>
    </g>
    <g id="Row-1">
      <g id="1-3">
        <g clip-path="url(#clip_7)">
          <use xlink:href="#path_7" fill="none" stroke="#323232" stroke-width="20" />
        </g>
      </g>
      <g id="1-2">
        <g clip-path="url(#clip_8)">
          <use xlink:href="#path_8" fill="none" stroke="#323232" stroke-width="20" />
        </g>
      </g>
      <g id="1-1">
        <g clip-path="url(#clip_9)">
          <use xlink:href="#path_9" fill="none" stroke="#323232" stroke-width="20" />
        </g>
      </g>
    </g>
  </g>
</svg>