<svg width="200" height="200" xmlns:xlink="http://www.w3.org/1999/xlink" xmlns="http://www.w3.org/2000/svg"><defs><clipPath id="j"><use xlink:href="#a"/></clipPath><clipPath id="k"><use xlink:href="#b"/></clipPath><clipPath id="l"><use xlink:href="#c"/></clipPath><clipPath id="m"><use xlink:href="#d"/></clipPath><clipPath id="n"><use xlink:href="#e"/></clipPath><clipPath id="o"><use xlink:href="#f"/></clipPath><clipPath id="p"><use xlink:href="#g"/></clipPath><clipPath id="q"><use xlink:href="#h"/></clipPath><clipPath id="r"><use xlink:href="#i"/></clipPath><path d="M15 0h31.5l.7.2h.7l.7.2.8.2.7.3.6.2.7.3.7.4.6.3.6.4.6.5.6.4.6.5.5.5.5.5.5.6.4.6.5.6.4.6.3.6.4.7.3.7.2.6.3.7.2.8.1.7.1.7.1.7v.8l.1.7v31.5l-.2.7v.7l-.2.7-.2.8-.3.7-.2.6-.3.7-.4.7-.3.6-.4.6-.5.6-.4.6-.5.6-.5.5-.5.5-.6.5-.6.4-.6.5-.6.4-.6.3-.7.4-.7.3-.6.2-.7.3-.8.2-.7.1-.7.1-.7.1h-.8l-.7.1H13.5l-.7-.2h-.7l-.7-.2-.8-.2-.7-.3-.6-.2-.7-.3-.7-.4-.6-.3-.6-.4L6 57l-.6-.4-.6-.5-.5-.5-.5-.5-.5-.6L3 54l-.5-.6-.4-.6-.3-.6-.4-.7-.3-.7-.2-.6-.3-.7-.2-.8-.1-.7-.1-.7-.1-.7v-.8L0 45V13.5l.2-.7v-.7l.2-.7.2-.8.3-.7.2-.6.3-.7.4-.7.3-.6.4-.6L3 6l.4-.6.5-.6.5-.5.5-.5.6-.5L6 3l.6-.5.6-.4.6-.3.7-.4.7-.3.6-.2.7-.3.8-.2.7-.1.7-.1.7-.1h.8L15 0Z" id="a"/><path d="M15 0h31.5l.7.2h.7l.7.2.8.2.7.3.6.2.7.3.7.4.6.3.6.4.6.5.6.4.6.5.5.5.5.5.5.6.4.6.5.6.4.6.3.6.4.7.3.7.2.6.3.7.2.8.1.7.1.7.1.7v.8l.1.7v31.5l-.2.7v.7l-.2.7-.2.8-.3.7-.2.6-.3.7-.4.7-.3.6-.4.6-.5.6-.4.6-.5.6-.5.5-.5.5-.6.5-.6.4-.6.5-.6.4-.6.3-.7.4-.7.3-.6.2-.7.3-.8.2-.7.1-.7.1-.7.1h-.8l-.7.1H13.5l-.7-.2h-.7l-.7-.2-.8-.2-.7-.3-.6-.2-.7-.3-.7-.4-.6-.3-.6-.4L6 57l-.6-.4-.6-.5-.5-.5-.5-.5-.5-.6L3 54l-.5-.6-.4-.6-.3-.6-.4-.7-.3-.7-.2-.6-.3-.7-.2-.8-.1-.7-.1-.7-.1-.7v-.8L0 45V13.5l.2-.7v-.7l.2-.7.2-.8.3-.7.2-.6.3-.7.4-.7.3-.6.4-.6L3 6l.4-.6.5-.6.5-.5.5-.5.6-.5L6 3l.6-.5.6-.4.6-.3.7-.4.7-.3.6-.2.7-.3.8-.2.7-.1.7-.1.7-.1h.8L15 0Z" transform="translate(70)" id="b"/><path d="M15 0h31.5l.7.2h.7l.7.2.8.2.7.3.6.2.7.3.7.4.6.3.6.4.6.5.6.4.6.5.5.5.5.5.5.6.4.6.5.6.4.6.3.6.4.7.3.7.2.6.3.7.2.8.1.7.1.7.1.7v.8l.1.7v31.5l-.2.7v.7l-.2.7-.2.8-.3.7-.2.6-.3.7-.4.7-.3.6-.4.6-.5.6-.4.6-.5.6-.5.5-.5.5-.6.5-.6.4-.6.5-.6.4-.6.3-.7.4-.7.3-.6.2-.7.3-.8.2-.7.1-.7.1-.7.1h-.8l-.7.1H13.5l-.7-.2h-.7l-.7-.2-.8-.2-.7-.3-.6-.2-.7-.3-.7-.4-.6-.3-.6-.4L6 57l-.6-.4-.6-.5-.5-.5-.5-.5-.5-.6L3 54l-.5-.6-.4-.6-.3-.6-.4-.7-.3-.7-.2-.6-.3-.7-.2-.8-.1-.7-.1-.7-.1-.7v-.8L0 45V13.5l.2-.7v-.7l.2-.7.2-.8.3-.7.2-.6.3-.7.4-.7.3-.6.4-.6L3 6l.4-.6.5-.6.5-.5.5-.5.6-.5L6 3l.6-.5.6-.4.6-.3.7-.4.7-.3.6-.2.7-.3.8-.2.7-.1.7-.1.7-.1h.8L15 0Z" transform="translate(140)" id="c"/><path d="M15 0h31.5l.7.2h.7l.7.2.8.2.7.3.6.2.7.3.7.4.6.3.6.4.6.5.6.4.6.5.5.5.5.5.5.6.4.6.5.6.4.6.3.6.4.7.3.7.2.6.3.7.2.8.1.7.1.7.1.7v.8l.1.7v31.5l-.2.7v.7l-.2.7-.2.8-.3.7-.2.6-.3.7-.4.7-.3.6-.4.6-.5.6-.4.6-.5.6-.5.5-.5.5-.6.5-.6.4-.6.5-.6.4-.6.3-.7.4-.7.3-.6.2-.7.3-.8.2-.7.1-.7.1-.7.1h-.8l-.7.1H13.5l-.7-.2h-.7l-.7-.2-.8-.2-.7-.3-.6-.2-.7-.3-.7-.4-.6-.3-.6-.4L6 57l-.6-.4-.6-.5-.5-.5-.5-.5-.5-.6L3 54l-.5-.6-.4-.6-.3-.6-.4-.7-.3-.7-.2-.6-.3-.7-.2-.8-.1-.7-.1-.7-.1-.7v-.8L0 45V13.5l.2-.7v-.7l.2-.7.2-.8.3-.7.2-.6.3-.7.4-.7.3-.6.4-.6L3 6l.4-.6.5-.6.5-.5.5-.5.6-.5L6 3l.6-.5.6-.4.6-.3.7-.4.7-.3.6-.2.7-.3.8-.2.7-.1.7-.1.7-.1h.8L15 0Z" transform="translate(0 70)" id="d"/><path d="M15 0h31.5l.7.2h.7l.7.2.8.2.7.3.6.2.7.3.7.4.6.3.6.4.6.5.6.4.6.5.5.5.5.5.5.6.4.6.5.6.4.6.3.6.4.7.3.7.2.6.3.7.2.8.1.7.1.7.1.7v.8l.1.7v31.5l-.2.7v.7l-.2.7-.2.8-.3.7-.2.6-.3.7-.4.7-.3.6-.4.6-.5.6-.4.6-.5.6-.5.5-.5.5-.6.5-.6.4-.6.5-.6.4-.6.3-.7.4-.7.3-.6.2-.7.3-.8.2-.7.1-.7.1-.7.1h-.8l-.7.1H13.5l-.7-.2h-.7l-.7-.2-.8-.2-.7-.3-.6-.2-.7-.3-.7-.4-.6-.3-.6-.4L6 57l-.6-.4-.6-.5-.5-.5-.5-.5-.5-.6L3 54l-.5-.6-.4-.6-.3-.6-.4-.7-.3-.7-.2-.6-.3-.7-.2-.8-.1-.7-.1-.7-.1-.7v-.8L0 45V13.5l.2-.7v-.7l.2-.7.2-.8.3-.7.2-.6.3-.7.4-.7.3-.6.4-.6L3 6l.4-.6.5-.6.5-.5.5-.5.6-.5L6 3l.6-.5.6-.4.6-.3.7-.4.7-.3.6-.2.7-.3.8-.2.7-.1.7-.1.7-.1h.8L15 0Z" transform="translate(70 70)" id="e"/><path d="M15 0h31.5l.7.2h.7l.7.2.8.2.7.3.6.2.7.3.7.4.6.3.6.4.6.5.6.4.6.5.5.5.5.5.5.6.4.6.5.6.4.6.3.6.4.7.3.7.2.6.3.7.2.8.1.7.1.7.1.7v.8l.1.7v31.5l-.2.7v.7l-.2.7-.2.8-.3.7-.2.6-.3.7-.4.7-.3.6-.4.6-.5.6-.4.6-.5.6-.5.5-.5.5-.6.5-.6.4-.6.5-.6.4-.6.3-.7.4-.7.3-.6.2-.7.3-.8.2-.7.1-.7.1-.7.1h-.8l-.7.1H13.5l-.7-.2h-.7l-.7-.2-.8-.2-.7-.3-.6-.2-.7-.3-.7-.4-.6-.3-.6-.4L6 57l-.6-.4-.6-.5-.5-.5-.5-.5-.5-.6L3 54l-.5-.6-.4-.6-.3-.6-.4-.7-.3-.7-.2-.6-.3-.7-.2-.8-.1-.7-.1-.7-.1-.7v-.8L0 45V13.5l.2-.7v-.7l.2-.7.2-.8.3-.7.2-.6.3-.7.4-.7.3-.6.4-.6L3 6l.4-.6.5-.6.5-.5.5-.5.6-.5L6 3l.6-.5.6-.4.6-.3.7-.4.7-.3.6-.2.7-.3.8-.2.7-.1.7-.1.7-.1h.8L15 0Z" transform="translate(140 70)" id="f"/><path d="M15 0h31.5l.7.2h.7l.7.2.8.2.7.3.6.2.7.3.7.4.6.3.6.4.6.5.6.4.6.5.5.5.5.5.5.6.4.6.5.6.4.6.3.6.4.7.3.7.2.6.3.7.2.8.1.7.1.7.1.7v.8l.1.7v31.5l-.2.7v.7l-.2.7-.2.8-.3.7-.2.6-.3.7-.4.7-.3.6-.4.6-.5.6-.4.6-.5.6-.5.5-.5.5-.6.5-.6.4-.6.5-.6.4-.6.3-.7.4-.7.3-.6.2-.7.3-.8.2-.7.1-.7.1-.7.1h-.8l-.7.1H13.5l-.7-.2h-.7l-.7-.2-.8-.2-.7-.3-.6-.2-.7-.3-.7-.4-.6-.3-.6-.4L6 57l-.6-.4-.6-.5-.5-.5-.5-.5-.5-.6L3 54l-.5-.6-.4-.6-.3-.6-.4-.7-.3-.7-.2-.6-.3-.7-.2-.8-.1-.7-.1-.7-.1-.7v-.8L0 45V13.5l.2-.7v-.7l.2-.7.2-.8.3-.7.2-.6.3-.7.4-.7.3-.6.4-.6L3 6l.4-.6.5-.6.5-.5.5-.5.6-.5L6 3l.6-.5.6-.4.6-.3.7-.4.7-.3.6-.2.7-.3.8-.2.7-.1.7-.1.7-.1h.8L15 0Z" transform="translate(0 140)" id="g"/><path d="M15 0h31.5l.7.2h.7l.7.2.8.2.7.3.6.2.7.3.7.4.6.3.6.4.6.5.6.4.6.5.5.5.5.5.5.6.4.6.5.6.4.6.3.6.4.7.3.7.2.6.3.7.2.8.1.7.1.7.1.7v.8l.1.7v31.5l-.2.7v.7l-.2.7-.2.8-.3.7-.2.6-.3.7-.4.7-.3.6-.4.6-.5.6-.4.6-.5.6-.5.5-.5.5-.6.5-.6.4-.6.5-.6.4-.6.3-.7.4-.7.3-.6.2-.7.3-.8.2-.7.1-.7.1-.7.1h-.8l-.7.1H13.5l-.7-.2h-.7l-.7-.2-.8-.2-.7-.3-.6-.2-.7-.3-.7-.4-.6-.3-.6-.4L6 57l-.6-.4-.6-.5-.5-.5-.5-.5-.5-.6L3 54l-.5-.6-.4-.6-.3-.6-.4-.7-.3-.7-.2-.6-.3-.7-.2-.8-.1-.7-.1-.7-.1-.7v-.8L0 45V13.5l.2-.7v-.7l.2-.7.2-.8.3-.7.2-.6.3-.7.4-.7.3-.6.4-.6L3 6l.4-.6.5-.6.5-.5.5-.5.6-.5L6 3l.6-.5.6-.4.6-.3.7-.4.7-.3.6-.2.7-.3.8-.2.7-.1.7-.1.7-.1h.8L15 0Z" transform="translate(70 140)" id="h"/><path d="M15 0h31.5l.7.2h.7l.7.2.8.2.7.3.6.2.7.3.7.4.6.3.6.4.6.5.6.4.6.5.5.5.5.5.5.6.4.6.5.6.4.6.3.6.4.7.3.7.2.6.3.7.2.8.1.7.1.7.1.7v.8l.1.7v31.5l-.2.7v.7l-.2.7-.2.8-.3.7-.2.6-.3.7-.4.7-.3.6-.4.6-.5.6-.4.6-.5.6-.5.5-.5.5-.6.5-.6.4-.6.5-.6.4-.6.3-.7.4-.7.3-.6.2-.7.3-.8.2-.7.1-.7.1-.7.1h-.8l-.7.1H13.5l-.7-.2h-.7l-.7-.2-.8-.2-.7-.3-.6-.2-.7-.3-.7-.4-.6-.3-.6-.4L6 57l-.6-.4-.6-.5-.5-.5-.5-.5-.5-.6L3 54l-.5-.6-.4-.6-.3-.6-.4-.7-.3-.7-.2-.6-.3-.7-.2-.8-.1-.7-.1-.7-.1-.7v-.8L0 45V13.5l.2-.7v-.7l.2-.7.2-.8.3-.7.2-.6.3-.7.4-.7.3-.6.4-.6L3 6l.4-.6.5-.6.5-.5.5-.5.6-.5L6 3l.6-.5.6-.4.6-.3.7-.4.7-.3.6-.2.7-.3.8-.2.7-.1.7-.1.7-.1h.8L15 0Z" transform="translate(140 140)" id="i"/></defs><g clip-path="url(#j)"><use xlink:href="#a" fill="none" stroke="#323232" stroke-width="20"/></g><g clip-path="url(#k)"><use xlink:href="#b" fill="none" stroke="#323232" stroke-width="20"/></g><g clip-path="url(#l)"><use xlink:href="#c" fill="none" stroke="#323232" stroke-width="20"/></g><g clip-path="url(#m)"><use xlink:href="#d" fill="none" stroke="#323232" stroke-width="20"/></g><g clip-path="url(#n)"><use xlink:href="#e" fill="none" stroke="#323232" stroke-width="20"/></g><g clip-path="url(#o)"><use xlink:href="#f" fill="none" stroke="#323232" stroke-width="20"/></g><g clip-path="url(#p)"><use xlink:href="#g" fill="none" stroke="#323232" stroke-width="20"/></g><g clip-path="url(#q)"><use xlink:href="#h" fill="none" stroke="#323232" stroke-width="20"/></g><g clip-path="url(#r)"><use xlink:href="#i" fill="none" stroke="#323232" stroke-width="20"/></g></svg>